<svg width="20" height="19" viewBox="0 0 20 19" fill="none" xmlns="http://www.w3.org/2000/svg">
<g clip-path="url(#clip0_428_5323)">
<path d="M16.8544 0.391008C12.3259 -0.129725 7.69554 -0.129725 3.17326 0.387354C1.36432 0.594731 0 2.15599 0 4.02145V12.056C0 13.9178 1.35179 15.4782 3.14469 15.6848C5.40987 15.9442 7.71611 16.0767 10 16.0767C12.2688 16.0767 14.5653 15.946 16.8267 15.6875C18.6357 15.481 20 13.9179 20 12.0534V4.01951C20 2.15585 18.6482 0.596579 16.8544 0.391008ZM18.5714 12.0534C18.5714 13.1725 17.7535 14.1107 16.6678 14.2349C12.2356 14.742 7.71328 14.7392 3.30437 14.2313C2.23472 14.1079 1.42848 13.1734 1.42848 12.0552V4.02131C1.42848 2.9022 2.24722 1.96398 3.33205 1.83975C5.53739 1.58762 7.78027 1.45972 9.99993 1.45972C12.2276 1.45972 14.4795 1.58853 16.6955 1.8434C17.7651 1.96582 18.5714 2.90129 18.5714 4.01949V12.0534ZM16.0712 18.2692C16.0712 18.673 15.7516 19 15.357 19H4.64267C4.24802 19 3.92839 18.673 3.92839 18.2692C3.92839 17.8654 4.24802 17.5383 4.64267 17.5383H15.357C15.7516 17.5383 16.0712 17.8654 16.0712 18.2692ZM11.4285 13.1533C11.4285 13.5571 11.1089 13.8841 10.7142 13.8841H9.28565C8.89099 13.8841 8.57136 13.5571 8.57136 13.1533C8.57136 12.7495 8.89099 12.4224 9.28565 12.4224H10.7142C11.1089 12.4224 11.4285 12.7495 11.4285 13.1533Z" fill="black"/>
</g>
<defs>
<clipPath id="clip0_428_5323">
<rect width="20" height="19" fill="white"/>
</clipPath>
</defs>
</svg>
