<svg width="20" height="20" viewBox="0 0 20 20" fill="none" xmlns="http://www.w3.org/2000/svg">
<path d="M12.8421 1.16003H7.15789C5.41474 1.16003 4 2.57477 4 4.31793V15.6864C4 17.4295 5.41474 18.8442 7.15789 18.8442H12.8421C14.5853 18.8442 16 17.4295 16 15.6864V4.31793C16 2.57477 14.5853 1.16003 12.8421 1.16003ZM14.7368 15.6864C14.7368 16.7284 13.8842 17.5811 12.8421 17.5811H7.15789C6.1158 17.5811 5.26316 16.7284 5.26316 15.6864V4.31793C5.26316 3.27583 6.1158 2.42319 7.15789 2.42319H12.8421C13.8842 2.42319 14.7368 3.27583 14.7368 4.31793V15.6864ZM12.0779 16.2737C12.0779 16.6211 11.7937 16.9053 11.4464 16.9053H8.55384C8.20646 16.9053 7.92226 16.6211 7.92226 16.2737C7.92226 15.9263 8.20646 15.6421 8.55384 15.6421H11.4464C11.7937 15.6421 12.0779 15.9263 12.0779 16.2737ZM10.0001 4.63366C10.3475 4.63366 10.6317 4.34946 10.6317 4.00208C10.6317 3.6547 10.3475 3.3705 10.0001 3.3705C9.65272 3.3705 9.36852 3.6547 9.36852 4.00208C9.36852 4.34946 9.65272 4.63366 10.0001 4.63366Z" fill="black"/>
</svg>
