<svg width="20" height="20" viewBox="0 0 20 20" fill="none" xmlns="http://www.w3.org/2000/svg">
<path d="M7.84558 18.7061C9.03467 18.0195 9.99976 16.348 9.99976 14.9749V12.4874L7.84558 13.7312C6.65643 14.4177 5.69141 16.0893 5.69141 17.4624C5.69141 18.8354 6.65643 19.3926 7.84558 18.7061Z" fill="#0ACF83"/>
<path d="M5.69141 12.4873C5.69141 11.1143 6.65643 9.44269 7.84558 8.75616L9.99976 7.51245V12.4873L7.84558 13.731C6.65643 14.4176 5.69141 13.8604 5.69141 12.4873Z" fill="#A259FF"/>
<path d="M5.69141 7.5126C5.69141 6.13953 6.65643 4.46796 7.84558 3.78142L9.99976 2.53772V7.5126L7.84558 8.75631C6.65643 9.44285 5.69141 8.88568 5.69141 7.5126Z" fill="#F24E1E"/>
<path d="M10 2.53764L12.1542 1.29393C13.3433 0.607398 14.3084 1.16457 14.3084 2.53764C14.3084 3.91071 13.3433 5.58228 12.1542 6.26882L10 7.51252V2.53764Z" fill="#FF7262"/>
<path d="M14.3084 7.51249C14.3084 8.88557 13.3433 10.5571 12.1542 11.2437C10.9651 11.9302 10 11.373 10 9.99997C10 8.62689 10.9651 6.95533 12.1542 6.26879C13.3433 5.58225 14.3084 6.13942 14.3084 7.51249Z" fill="#1ABCFE"/>
</svg>
