<svg width="20" height="20" viewBox="0 0 20 20" fill="none" xmlns="http://www.w3.org/2000/svg">
<path fill-rule="evenodd" clip-rule="evenodd" d="M12.3526 2.47964C12.0444 2.31125 11.6312 2.35589 11.2011 2.60428C10.7711 2.85258 10.3579 3.28493 10.0497 3.80929L3.90881 14.3085C3.80609 14.4832 3.66837 14.6272 3.52508 14.7099C3.38179 14.7926 3.24416 14.8076 3.14136 14.7515C3.09106 14.7241 3.0511 14.6797 3.02379 14.6207C2.99648 14.5618 2.98242 14.4898 2.98242 14.4087C2.98242 14.3277 2.99648 14.2394 3.02379 14.1489C3.0511 14.0585 3.09106 13.9679 3.14136 13.8823L9.28221 3.38314C9.79588 2.50934 10.4844 1.78883 11.2011 1.37505C11.9179 0.96118 12.6064 0.886662 13.1201 1.16732C13.4173 1.32952 13.6419 1.61018 13.7754 1.98631C13.9088 2.36252 13.9475 2.8235 13.8882 3.3316C14.3039 3.02319 14.7277 2.82138 15.1269 2.74165C15.526 2.66191 15.89 2.70629 16.1905 2.8715L16.2223 2.88997C16.4739 3.02717 16.6739 3.24957 16.8104 3.54402C16.9469 3.83846 17.0173 4.19885 17.0173 4.60406C17.0173 5.00926 16.9469 5.45089 16.8104 5.90303C16.6739 6.35509 16.4739 6.80838 16.2223 7.23604L10.6684 16.7313C10.6517 16.7597 10.6384 16.7899 10.6293 16.8201C10.6202 16.8501 10.6155 16.8796 10.6155 16.9066C10.6155 16.9336 10.6202 16.9576 10.6293 16.9772C10.6384 16.9968 10.6517 17.0116 10.6684 17.0207L11.8091 17.6543C11.8594 17.6817 11.8994 17.7261 11.9267 17.7851C11.954 17.844 11.9681 17.916 11.9681 17.9971C11.9681 18.0781 11.954 18.1664 11.9267 18.2569C11.8994 18.3473 11.8594 18.4379 11.8091 18.5235C11.7064 18.6981 11.5687 18.8421 11.4254 18.9249C11.2821 19.0076 11.1444 19.0226 11.0416 18.9666L9.90098 18.3338C9.7835 18.2698 9.69016 18.166 9.62634 18.0286C9.5626 17.8912 9.52972 17.723 9.52972 17.5338C9.52972 17.3446 9.5626 17.1385 9.62634 16.9274C9.69016 16.7164 9.7835 16.5048 9.90098 16.3051L15.455 6.80918C15.6058 6.55257 15.7257 6.28057 15.8076 6.00937C15.8894 5.73817 15.9316 5.47325 15.9316 5.23016C15.9316 4.98708 15.8894 4.77086 15.8076 4.59416C15.7257 4.41745 15.6058 4.28398 15.455 4.2015L15.4231 4.18382C15.1152 4.01561 14.7026 4.05998 14.2729 4.30767C13.8433 4.55526 13.4304 4.98664 13.1219 5.51012L8.54667 13.3331L8.54543 13.3354L8.48285 13.4429C8.38004 13.6179 8.24232 13.762 8.09886 13.8449C7.95539 13.9277 7.81758 13.9426 7.71478 13.8864C7.66448 13.8589 7.62453 13.8145 7.59721 13.7556C7.5699 13.6967 7.55584 13.6246 7.55584 13.5435C7.55584 13.4626 7.5699 13.3742 7.59721 13.2838C7.62453 13.1934 7.66448 13.1027 7.71478 13.0171L12.3546 5.08405C12.5049 4.82752 12.6245 4.55579 12.706 4.28495C12.7875 4.01402 12.8294 3.74945 12.8293 3.50671C12.8291 3.26398 12.7868 3.04812 12.705 2.87168C12.6231 2.69533 12.5034 2.56203 12.3526 2.47964Z" fill="white"/>
<path fill-rule="evenodd" clip-rule="evenodd" d="M11.5849 4.66114C11.6353 4.57566 11.6752 4.48496 11.7026 4.39453C11.7299 4.30411 11.7439 4.2158 11.7439 4.13474C11.7439 4.05377 11.7299 3.98164 11.7026 3.92277C11.6752 3.8639 11.6353 3.81943 11.5849 3.79194C11.4822 3.73572 11.3444 3.75066 11.2009 3.83349C11.0574 3.91631 10.9196 4.06049 10.8168 4.23542L6.27532 12.0006C6.02384 12.4283 5.82389 12.8816 5.68732 13.3336C5.55074 13.7858 5.48047 14.2274 5.48047 14.6326C5.48047 15.0378 5.55074 15.3982 5.68732 15.6927C5.82389 15.9871 6.02384 16.2095 6.27532 16.3467C6.78908 16.6272 7.4776 16.5526 8.19431 16.1387C8.91102 15.7249 9.59945 15.0046 10.1132 14.131L14.6553 6.36541C14.7056 6.27984 14.7457 6.18915 14.773 6.09872C14.8003 6.00838 14.8144 5.91998 14.8144 5.83901C14.8144 5.75795 14.8003 5.68582 14.773 5.62695C14.7457 5.56808 14.7056 5.52361 14.6553 5.49612C14.5525 5.4399 14.4148 5.45484 14.2713 5.53767C14.1279 5.62049 13.9901 5.76467 13.8873 5.9396L9.34575 13.7048C9.03752 14.2292 8.62435 14.6615 8.19431 14.9098C7.76417 15.1581 7.35101 15.2029 7.04278 15.0344C6.89197 14.952 6.77202 14.8184 6.69017 14.6418C6.60831 14.4651 6.56615 14.2489 6.56615 14.0058C6.56615 13.7627 6.60831 13.4977 6.69017 13.2265C6.77202 12.9553 6.89197 12.6834 7.04278 12.4267L11.5849 4.66114Z" fill="white"/>
</svg>
