<svg width="20" height="20" viewBox="0 0 20 20" fill="none" xmlns="http://www.w3.org/2000/svg">
<path d="M5.67066 18.6121L5.30853 7.66916C5.29656 7.30777 5.54091 6.84858 5.85926 6.63431L14.0674 1.1097C14.3914 0.891643 14.6705 1.00879 14.6908 1.37132C14.6915 1.38496 14.6919 1.39888 14.6919 1.41303V13.5744C14.6919 13.9498 14.4287 14.4123 14.1041 14.6073C14.0953 14.6126 14.0865 14.6177 14.0777 14.6225L6.23169 18.9287C5.92612 19.0964 5.68217 18.9587 5.67066 18.6121Z" fill="#FF4785"/>
<path d="M12.2372 3.86979L12.2933 2.27656L13.4205 1.49695L13.4691 3.07602C13.4708 3.13097 13.4329 3.2007 13.3845 3.23172C13.3638 3.24501 13.3435 3.2495 13.3272 3.24449L12.8925 3.10957L12.3779 3.87031C12.3393 3.92733 12.2843 3.95166 12.255 3.92462C12.2427 3.91323 12.2364 3.89384 12.2372 3.86979ZM10.7956 8.17015C10.7956 8.43464 12.336 7.38242 12.5429 7.07242C12.5429 5.27137 11.7072 4.82696 10.1771 5.74621C8.64688 6.66552 7.78954 8.14173 7.78954 9.58346C7.78954 12.0945 10.7197 10.3822 10.7197 11.7518C10.7197 12.1363 10.5569 12.4624 10.1987 12.6775C9.73207 12.9579 9.54761 12.7931 9.5693 11.843C9.5693 11.6396 7.78954 12.6455 7.73528 12.9448C7.59714 15.2988 8.82053 15.2188 10.2204 14.3778C11.577 13.5628 12.6405 12.0876 12.6405 10.5738C12.6405 7.88258 9.667 9.74111 9.667 8.40748C9.667 7.86687 10.0142 7.58616 10.2204 7.46222C10.4375 7.33185 10.8282 7.1414 10.7956 8.17015Z" fill="white"/>
</svg>
