<svg width="20" height="20" viewBox="0 0 20 20" fill="none" xmlns="http://www.w3.org/2000/svg">
<path d="M8.61975 1.42288C10.5449 0.246584 12.4167 -0.0428159 13.8483 0.615784C15.2798 1.27438 16.1624 2.83048 16.3142 4.96228C16.466 7.09418 15.8753 9.64018 14.6641 12.0748L18.4755 14.2691C18.6214 14.3562 18.7027 14.5409 18.7018 14.7822C18.7007 15.0235 18.6175 15.3026 18.4704 15.5582C18.3231 15.8137 18.1237 16.026 17.9156 16.1479C17.7076 16.2697 17.5074 16.2916 17.3589 16.2093L13.5468 14.0145C12.0495 16.2843 10.1443 18.0737 8.22445 19.0128C6.30475 19.9517 4.51635 19.9693 3.22815 19.062C1.93985 18.1547 1.25025 16.3907 1.30095 14.1351C1.35165 11.8797 2.13855 9.30438 3.50015 6.93928C4.86185 4.57398 6.69455 2.59928 8.61975 1.42288ZM9.98875 2.61928C8.83955 3.02228 7.64825 3.84929 6.56575 4.99628C5.48335 6.14328 4.55815 7.55888 3.90715 9.06328C3.25625 10.5677 2.90895 12.0937 2.90895 13.4486C2.91065 15.2638 3.53545 16.6423 4.64615 17.2817C5.75685 17.9211 7.26265 17.7694 8.83335 16.8594C10.0049 16.1792 11.1504 15.1125 12.1246 13.7943C13.0989 12.4759 13.8584 10.9642 14.3068 9.45208C14.7551 7.94018 14.8723 6.49448 14.6438 5.29838C14.4151 4.10248 13.8508 3.20999 13.0223 2.73299C12.1938 2.25599 11.1379 2.21638 9.98875 2.61928ZM9.29705 10.2143C12.2015 8.52788 12.068 8.85198 12.3028 10.2192C12.5374 11.5862 12.2011 12.9031 9.29705 14.5893C6.39295 16.2753 6.05755 15.3483 6.29215 13.7089C6.52695 12.0691 6.39275 11.9005 9.29705 10.2143ZM9.29705 4.96429C10.3343 4.36199 11.1753 4.85308 11.1753 6.06128C11.1751 7.26928 10.3342 8.73708 9.29705 9.33928C8.25995 9.94128 7.41895 9.44999 7.41875 8.24229C7.41875 7.03419 8.25975 5.56659 9.29705 4.96429Z" fill="#D6CDB6"/>
</svg>
