<svg width="20" height="20" viewBox="0 0 20 20" fill="none" xmlns="http://www.w3.org/2000/svg">
<path d="M2.98662 12.9177C2.98662 12.9177 2.63837 12.8236 3.05628 12.1882L4.03004 10.6022C4.03004 10.6022 4.30864 10.0967 4.60322 10.2269L13.5885 13.0384V16.8743C13.5885 16.8743 13.5842 17.4791 12.9268 17.7921L2.98662 12.9177Z" fill="#2489CA"/>
<path d="M5.3026 14.053L2.9866 17.866C2.9866 17.866 2.74868 18.2116 2.9866 18.4462L4.06187 18.9754C4.06187 18.9754 4.31728 19.1504 4.69459 18.5658L7.14989 14.959L5.3026 14.053Z" fill="#1070B3"/>
<path d="M9.36864 11.726L13.6161 5.46014L13.5885 1.66065C13.5885 1.66065 13.4072 0.932705 12.802 1.71552L7.1499 11.0277L9.36864 11.726Z" fill="#0877B9"/>
<path d="M12.927 17.7973C13.1737 17.9517 13.4727 17.6818 13.4727 17.6818L16.7827 13.853C17.2063 13.2687 17.1469 12.8817 17.1469 12.8817V1.42875C17.1469 0.925391 16.7087 1.00439 16.7087 1.00439L13.8398 1.03463C13.2129 0.940936 12.8022 1.71551 12.8022 1.71551C12.8022 1.71551 13.3304 0.963531 13.5887 1.66072V16.8043C13.5887 16.9085 13.5699 17.0217 13.5321 17.1357C13.4567 17.3584 13.2927 17.6203 12.8994 17.7773L12.927 17.7973Z" fill="#3C99D4"/>
</svg>
