<svg width="20" height="20" viewBox="0 0 20 20" fill="none" xmlns="http://www.w3.org/2000/svg">
<path d="M10 1.9519C13.866 -0.270497 17 1.53115 17 5.97595C17 10.4208 13.866 15.8257 10 18.0481C6.13399 20.2705 3 18.4689 3 14.024C3 9.57925 6.13399 4.17431 10 1.9519ZM11.5938 11.9257C11.0822 12.2691 10.5485 12.6021 10 12.9174C9.45137 13.2328 8.91774 13.5133 8.40601 13.7583C8.52459 14.6904 8.70484 15.4739 8.92744 16.0681C9.13371 16.6187 9.36303 16.9713 9.5828 17.1465C9.80573 17.3242 9.94993 17.2721 10 17.2433C10.0501 17.2145 10.1943 17.1008 10.4172 16.6669C10.637 16.239 10.8663 15.6226 11.0726 14.835C11.2952 13.9849 11.4753 12.9941 11.5938 11.9257ZM3.81055 14.9138C4.2923 17.562 6.30349 18.7084 8.85211 17.7827C8.31459 17.1651 7.8959 15.849 7.69011 14.084C5.99544 14.8134 4.60486 15.1062 3.81055 14.9138ZM16.1893 7.7978C15.395 8.90337 14.0044 10.2094 12.3097 11.4284C12.1039 13.43 11.6852 15.2274 11.1477 16.463C13.6964 14.4585 15.7075 10.9999 16.1893 7.7978ZM10 8.08858C9.41856 8.42281 8.85736 8.77572 8.32518 9.13781C8.27628 9.77779 8.25001 10.4381 8.25001 11.1066C8.25001 11.7751 8.27636 12.4051 8.32518 12.9887C8.85736 12.739 9.41856 12.4469 10 12.1126C10.5814 11.7784 11.1425 11.4254 11.6747 11.0633C11.7235 10.4234 11.75 9.76306 11.75 9.09459C11.75 8.42603 11.7236 7.79611 11.6747 7.21238C11.1426 7.46203 10.5814 7.75434 10 8.08858ZM7.61542 9.63872C6.74554 10.2751 5.97394 10.9259 5.3459 11.5429C4.76393 12.1146 4.34257 12.6205 4.08028 13.024C3.81427 13.4332 3.78752 13.6143 3.78752 13.6719C3.78752 13.7296 3.81427 13.8799 4.08028 13.9832C4.34257 14.0852 4.76393 14.1066 5.3459 14.0092C5.97394 13.9041 6.74554 13.6677 7.61542 13.3038C7.57266 12.7401 7.55003 12.1397 7.55003 11.509C7.55003 10.8783 7.57266 10.2517 7.61542 9.63872ZM12.3844 6.8973C12.4272 7.46099 12.45 8.06146 12.45 8.69218C12.45 9.32283 12.4272 9.94946 12.3844 10.5623C13.2544 9.92596 14.026 9.27527 14.6541 8.6583C15.2361 8.08656 15.6574 7.58066 15.9197 7.17721C16.1857 6.76797 16.2125 6.58688 16.2125 6.52926C16.2125 6.47163 16.1857 6.3213 15.9197 6.21796C15.6574 6.11599 15.2361 6.09458 14.6541 6.19196C14.026 6.29707 13.2544 6.53336 12.3844 6.8973ZM8.99614 3.42559C6.3127 5.46216 4.19538 9.12147 3.77588 12.4518C4.56396 11.3361 5.97063 10.0096 7.69011 8.77275C7.914 6.59525 8.38944 4.65928 8.99614 3.42559ZM11.0037 2.27149C11.6104 2.80766 12.0858 4.19692 12.3097 6.11712C14.0292 5.37701 15.4358 5.08624 16.224 5.29581C15.8045 2.44783 13.6872 1.22283 11.0037 2.27149ZM10 2.95792C9.94993 2.98673 9.80573 3.10037 9.5828 3.53432C9.36303 3.96224 9.13371 4.57856 8.92744 5.36623C8.70484 6.21627 8.52459 7.20699 8.40601 8.27537C8.91774 7.93196 9.45137 7.59917 10 7.28377C10.5485 6.96844 11.0822 6.68773 11.5938 6.44282C11.4753 5.51077 11.2952 4.72721 11.0726 4.1331C10.8663 3.58253 10.637 3.22994 10.4172 3.05465C10.1943 2.87703 10.0501 2.9291 10 2.95792Z" fill="#FFF8E6"/>
</svg>
