<svg width="541" height="669" viewBox="0 0 541 669" fill="none" xmlns="http://www.w3.org/2000/svg">
<g clip-path="url(#clip0_138_25)">
<path d="M494.854 584.333C467.187 625.667 437.854 666 393.187 666.667C348.521 667.667 334.187 640.333 283.521 640.333C232.521 640.333 216.854 666 174.52 667.667C130.853 669.333 97.853 623.667 69.853 583.333C12.853 501 -30.8137 349.333 27.853 247.333C56.853 196.667 108.853 164.667 165.186 163.667C207.854 163 248.521 192.667 274.854 192.667C300.854 192.667 350.187 157 401.854 162.333C423.521 163.333 484.187 171 523.187 228.333C520.187 230.333 450.854 271 451.521 355.333C452.521 456 539.854 489.667 540.854 490C539.854 492.333 526.854 538 494.854 584.333ZM304.521 51C328.854 23.3333 369.187 2.33333 402.521 1C406.854 40 391.187 79.3333 367.854 107.333C344.854 135.667 306.854 157.667 269.521 154.667C264.521 116.333 283.187 76.3333 304.521 51Z" fill="white"/>
</g>
<defs>
<clipPath id="clip0_138_25">
<rect width="540.854" height="668.711" fill="white"/>
</clipPath>
</defs>
</svg>
