<svg width="1590" height="1589" viewBox="0 0 1590 1589" fill="none" xmlns="http://www.w3.org/2000/svg">
<g clip-path="url(#clip0_138_22)">
<path d="M471.608 734.706C464.318 725.189 453.555 718.947 441.675 717.346C429.794 715.746 417.763 718.917 408.215 726.166C402.597 730.596 398.066 736.25 394.967 742.698L5.73694 1521.38C0.224121 1532.41 -0.681379 1545.18 3.21947 1556.89C7.12032 1568.59 15.5083 1578.26 26.5396 1583.78C32.9877 1587.05 40.1164 1588.73 47.3423 1588.71H589.636C598.322 1588.93 606.884 1586.62 614.274 1582.05C621.664 1577.48 627.56 1570.85 631.241 1562.98C748.284 1321.23 677.336 953.682 471.608 734.706Z" fill="white"/>
<path d="M757.7 26.0999C660.669 175.414 604.12 347.388 593.602 525.149C583.083 702.91 618.956 880.352 697.7 1040.07L959.157 1562.98C963.02 1570.71 968.958 1577.21 976.306 1581.76C983.655 1586.3 992.123 1588.71 1000.76 1588.71H1542.95C1549.06 1588.73 1555.12 1587.53 1560.77 1585.2C1566.42 1582.87 1571.56 1579.44 1575.88 1575.11C1580.21 1570.79 1583.63 1565.66 1585.97 1560C1588.3 1554.35 1589.49 1548.29 1589.48 1542.18C1589.48 1534.97 1587.84 1527.85 1584.66 1521.38L836.859 25.8809C833.31 18.3872 827.706 12.055 820.7 7.62088C813.693 3.18672 805.571 0.832764 797.28 0.832764C788.988 0.832764 780.866 3.18672 773.86 7.62088C766.853 12.055 761.249 18.3872 757.7 25.8809V26.0999Z" fill="white"/>
</g>
<defs>
<clipPath id="clip0_138_22">
<rect width="1590" height="1589" fill="white"/>
</clipPath>
</defs>
</svg>
