<svg width="400" height="600" viewBox="0 0 400 600" fill="none" xmlns="http://www.w3.org/2000/svg">
<path d="M200 500C200 555.228 155.228 600 100 600C44.772 600 0 555.228 0 500C0 444.772 44.772 400 100 400C44.772 400 0 355.228 0 300C0 244.772 44.772 200 100 200C44.772 200 0 155.228 0 100C0 44.772 44.772 0 100 0H300C355.228 0 400 44.772 400 100C400 155.228 355.228 200 300 200H200V287.043C206.353 237.936 248.329 200 299.167 200C354.395 200 399.167 244.772 399.167 300C399.167 355.228 354.395 400 299.167 400C248.329 400 206.353 362.064 200 312.956V500Z" fill="white"/>
</svg>
