<svg width="206" height="206" viewBox="0 0 206 206" fill="none" xmlns="http://www.w3.org/2000/svg">
<path fill-rule="evenodd" clip-rule="evenodd" d="M83.6567 54.6345C84.5849 54.0986 85.7285 54.0986 86.6567 54.6345L149.475 90.902C150.403 91.438 150.975 92.429 150.975 93.5007V166.036L150.968 166.236C150.902 167.23 150.345 168.132 149.475 168.634L86.6567 204.902L86.48 204.997C85.5863 205.436 84.5268 205.404 83.6567 204.902L20.8384 168.634C19.9104 168.099 19.3384 167.107 19.3384 166.036V93.5007C19.3384 92.429 19.9104 91.438 20.8384 90.902L83.6567 54.6345ZM33.3384 99.8513V159.684L85.1567 189.602L136.975 159.684V99.8513L85.1567 69.9333L33.3384 99.8513ZM118.511 0.396185C119.429 -0.131993 120.561 -0.132131 121.479 0.396185L184.477 36.6481C185.395 37.1765 185.961 38.154 185.961 39.2106V108L172.112 108.001V45.4724L119.995 15.4811L66.2124 46.3767L58.9614 34.6618L118.511 0.396185Z" fill="white"/>
</svg>
