<svg width="800" height="800" viewBox="0 0 800 800" fill="none" xmlns="http://www.w3.org/2000/svg">
<path d="M700 400C699.72 331.793 676.205 265.717 633.333 212.667V587.667C676.811 534.828 700.4 468.426 700 400ZM587.667 633.333H212.667C239.638 653.645 269.684 669.512 301.667 680.333C333.093 692.415 366.344 699.066 400 700C434.221 699.289 468.058 692.634 500 680.333C531.467 669.273 561.038 653.419 587.667 633.333ZM366.667 566.667L233.333 300V566.667H366.667ZM566.667 300L433.333 566.667H566.667V300ZM400 484.333L525 233.333H275L400 484.333ZM587.667 166.667C534.693 123.544 468.474 99.9986 400.167 99.9986C331.86 99.9986 265.641 123.544 212.667 166.667H587.667ZM166.667 587.667V212.667C123.795 265.717 100.28 331.793 100 400C99.6004 468.426 123.189 534.828 166.667 587.667ZM766.667 400C767.499 448.274 758.401 496.204 739.937 540.816C721.474 585.427 694.038 625.767 659.333 659.333C625.767 694.038 585.427 721.474 540.816 739.937C496.204 758.401 448.274 767.499 400 766.667C351.731 767.46 303.813 758.344 259.207 739.882C214.602 721.421 174.257 694.006 140.667 659.333C105.962 625.767 78.5264 585.427 60.0626 540.816C41.5988 496.204 32.5008 448.274 33.3334 400C32.5405 351.731 41.6566 303.813 60.1181 259.207C78.5795 214.602 105.994 174.257 140.667 140.667C174.257 105.994 214.602 78.5795 259.207 60.1181C303.813 41.6566 351.731 32.5405 400 33.3334C448.274 32.5008 496.204 41.5988 540.816 60.0626C585.427 78.5264 625.767 105.962 659.333 140.667C694.006 174.257 721.421 214.602 739.882 259.207C758.344 303.813 767.46 351.731 766.667 400Z" fill="white"/>
</svg>
