<svg width="79" height="80" viewBox="0 0 79 80" fill="none" xmlns="http://www.w3.org/2000/svg">
<g clip-path="url(#clip0_346_833)">
<path d="M77.115 38.0411C77.98 39.9748 78.529 42.0419 78.7536 44.1507C78.9698 46.2595 78.8617 48.3932 78.4125 50.4687C77.9717 52.5441 77.2065 54.5362 76.1419 56.3699C75.4432 57.5952 74.6198 58.7454 73.6716 59.804C72.7318 60.8542 71.6838 61.8044 70.5443 62.6379C69.3965 63.4714 68.1738 64.1715 66.8763 64.7467C65.5871 65.3134 64.2397 65.7469 62.859 66.0302C62.2103 68.0473 61.2455 69.9561 59.9979 71.6731C58.7586 73.3901 57.2531 74.8988 55.5397 76.1407C53.8264 77.391 51.93 78.3578 49.9172 79.008C47.9044 79.6664 45.8001 79.9915 43.6791 79.9915C42.2735 79.9998 40.8596 79.8498 39.4789 79.5664C38.1065 79.2747 36.7591 78.8329 35.4699 78.2578C34.1807 77.6827 32.958 76.9659 31.8186 76.1324C30.6874 75.2988 29.6394 74.3403 28.7079 73.2818C26.6285 73.7319 24.4993 73.8402 22.395 73.6235C20.2907 73.3985 18.228 72.8483 16.29 71.9815C14.3604 71.123 12.5721 69.9561 11.0002 68.5308C9.42817 67.1055 8.08907 65.4385 7.03276 63.6047C6.32578 62.3795 5.74357 61.0876 5.30275 59.7456C4.86192 58.4037 4.57082 57.02 4.4211 55.6114C4.27139 54.2111 4.27971 52.7942 4.42942 51.3855C4.57913 49.9852 4.88688 48.6016 5.3277 47.2597C3.91374 45.6843 2.74931 43.8923 1.8843 41.9586C1.02761 40.0165 0.470347 37.9577 0.254095 35.849C0.0295252 33.7402 0.145969 31.6064 0.58679 29.531C1.02761 27.4555 1.79281 25.4635 2.85744 23.6297C3.5561 22.4045 4.37952 21.2459 5.31938 20.1957C6.25924 19.1455 7.31555 18.1953 8.45503 17.3618C9.59452 16.5283 10.8255 15.8198 12.1147 15.253C13.4122 14.6779 14.7596 14.2528 16.1403 13.9694C16.7891 11.944 17.7539 10.0436 18.9932 8.32656C20.2408 6.60954 21.7462 5.10089 23.4596 3.85063C25.173 2.6087 27.0693 1.64183 29.0821 0.983363C31.0949 0.333227 33.1992 -0.000175276 35.3202 0.00815979C36.7258 -0.000175276 38.1398 0.141521 39.5205 0.433248C40.9011 0.724976 42.2486 1.1584 43.5378 1.73352C44.8269 2.31697 46.0496 3.02546 47.1891 3.85896C48.3286 4.7008 49.3766 5.651 50.3081 6.70956C52.3791 6.2678 54.5084 6.15944 56.6127 6.37615C58.717 6.59287 60.7714 7.15131 62.7093 8.00983C64.639 8.87667 66.4272 10.0352 67.9992 11.4605C69.5712 12.8775 70.9103 14.5362 71.9666 16.3782C72.6735 17.5952 73.2558 18.8871 73.6966 20.2374C74.1374 21.5793 74.4368 22.9629 74.5782 24.3716C74.7279 25.7802 74.7279 27.1972 74.5699 28.6058C74.4202 30.0144 74.1125 31.398 73.6716 32.74C75.0939 34.3153 76.25 36.099 77.115 38.0411ZM49.4015 73.6235C51.2147 72.8733 52.8615 71.7648 54.2505 70.3728C55.6395 68.9809 56.7458 67.3305 57.4943 65.5051C58.2429 63.6881 58.6338 61.7377 58.6338 59.7706V41.1834C58.6283 41.1667 58.6227 41.1473 58.6172 41.1251C58.6116 41.1084 58.6033 41.0917 58.5922 41.0751C58.5811 41.0584 58.5673 41.0445 58.5506 41.0334C58.534 41.0167 58.5174 41.0056 58.5007 41L51.7886 37.1159V59.5706C51.7886 59.7956 51.7553 60.029 51.6971 60.2457C51.6389 60.4708 51.5557 60.6791 51.4393 60.8792C51.3228 61.0792 51.1897 61.2626 51.0234 61.421C50.8617 61.5825 50.68 61.7225 50.4828 61.8377L34.5883 71.0313C34.4552 71.1146 34.2306 71.2313 34.1142 71.298C34.7712 71.8565 35.4865 72.3482 36.2351 72.7817C36.992 73.2151 37.7738 73.5818 38.5889 73.8819C39.404 74.1736 40.2441 74.3987 41.0924 74.5487C41.9491 74.6987 42.8141 74.7737 43.6791 74.7737C45.642 74.7737 47.5883 74.382 49.4015 73.6235ZM11.5491 61.0042C12.5389 62.7129 13.8447 64.1965 15.4 65.3968C16.9637 66.597 18.7353 67.4722 20.6317 67.9807C22.528 68.4891 24.5076 68.6225 26.4539 68.3641C28.4001 68.1057 30.2715 67.4722 31.9766 66.4887L48.0458 57.1951L48.0874 57.1534C48.0984 57.1423 48.1068 57.1256 48.1123 57.1034C48.1234 57.0867 48.1317 57.0701 48.1373 57.0534V49.2184L28.7411 60.4624C28.5415 60.5791 28.3336 60.6625 28.1173 60.7291C27.8928 60.7875 27.6682 60.8125 27.4353 60.8125C27.2107 60.8125 26.9862 60.7875 26.7616 60.7291C26.5453 60.6625 26.3291 60.5791 26.1295 60.4624L10.235 51.2605C10.0936 51.1772 9.88562 51.0521 9.76918 50.9771C9.61947 51.8356 9.54461 52.7025 9.54461 53.5693C9.54461 54.4362 9.62778 55.303 9.7775 56.1615C9.92721 57.0117 10.1601 57.8535 10.4512 58.6704C10.7506 59.4872 11.1166 60.2707 11.5491 61.0209V61.0042ZM7.37377 26.247C6.39232 27.9557 5.7602 29.8394 5.50236 31.7898C5.24452 33.7402 5.3776 35.7156 5.88496 37.6243C6.39232 39.5247 7.26565 41.3001 8.46335 42.8671C9.66105 44.4257 11.1499 45.7344 12.8466 46.7179L28.9075 56.0198C28.9241 56.0254 28.9435 56.0309 28.9657 56.0365H29.0239C29.0461 56.0365 29.0655 56.0309 29.0821 56.0198C29.0988 56.0143 29.1154 56.0059 29.132 55.9948L35.8691 52.094L16.473 40.875C16.2817 40.7583 16.0987 40.6166 15.9324 40.4583C15.7712 40.2962 15.6314 40.1141 15.5165 39.9165C15.4084 39.7164 15.3169 39.5081 15.2587 39.283C15.2004 39.0663 15.1672 38.8413 15.1755 38.6079V19.6789C14.3604 19.979 13.5702 20.3457 12.8217 20.7792C12.0731 21.2209 11.3661 21.721 10.7007 22.2795C10.0437 22.8379 9.42817 23.4547 8.8709 24.1215C8.31364 24.78 7.82291 25.4968 7.39041 26.247H7.37377ZM62.543 39.1163C62.7426 39.233 62.9256 39.3664 63.0919 39.5331C63.25 39.6914 63.3913 39.8748 63.5078 40.0748C63.6159 40.2749 63.7074 40.4916 63.7656 40.7083C63.8155 40.9334 63.8488 41.1584 63.8405 41.3918V60.3207C66.5104 59.3372 68.8392 57.6118 70.5609 55.3447C72.2909 53.0776 73.3306 50.3687 73.5718 47.5347C73.813 44.7008 73.2474 41.8502 71.9333 39.3247C70.6192 36.7992 68.6147 34.6987 66.1527 33.2818L50.0919 23.9798C50.0752 23.9743 50.0558 23.9687 50.0336 23.9632H49.9754C49.9588 23.9687 49.9394 23.9743 49.9172 23.9798C49.9005 23.9854 49.8839 23.9937 49.8673 24.0048L43.1635 27.889L62.5596 39.1163H62.543ZM69.2385 29.0309H69.2301V29.0392L69.2385 29.0309ZM69.2301 29.0225C69.7126 26.222 69.3882 23.338 68.2903 20.7125C67.2007 18.0869 65.3792 15.8281 63.0503 14.1944C60.7215 12.5691 57.9767 11.6356 55.1405 11.5106C52.296 11.3939 49.4847 12.0857 47.0227 13.5026L30.9619 22.7962C30.9452 22.8074 30.9314 22.8212 30.9203 22.8379L30.887 22.8879C30.8815 22.9046 30.8759 22.924 30.8704 22.9463C30.8648 22.9629 30.8621 22.9824 30.8621 23.0046V30.7729L50.2582 19.5456C50.4578 19.4289 50.6741 19.3455 50.8903 19.2788C51.1149 19.2205 51.3395 19.1955 51.564 19.1955C51.7969 19.1955 52.0215 19.2205 52.2461 19.2788C52.4623 19.3455 52.6702 19.4289 52.8699 19.5456L68.7644 28.7475C68.9058 28.8308 69.1137 28.9475 69.2301 29.0225ZM27.2024 20.4207C27.2024 20.1957 27.2357 19.9707 27.2939 19.7456C27.3521 19.5289 27.4353 19.3122 27.5517 19.1121C27.6682 18.9204 27.8013 18.7371 27.9676 18.5704C28.1256 18.412 28.3086 18.2703 28.5082 18.1619L44.4028 8.96836C44.5525 8.87667 44.7604 8.75998 44.8769 8.70164C42.6977 6.87626 40.0361 5.70935 37.2165 5.35094C34.397 4.9842 31.5358 5.43429 28.9657 6.64288C26.3873 7.85146 24.2082 9.77686 22.6861 12.1774C21.164 14.5862 20.3572 17.3701 20.3572 20.2207V38.8079C20.3628 38.8301 20.3683 38.8496 20.3738 38.8663C20.3794 38.8829 20.3877 38.8996 20.3988 38.9163C20.4099 38.9329 20.4237 38.9496 20.4404 38.9663C20.4515 38.9774 20.4681 38.9885 20.4903 38.9996L27.2024 42.8838V20.4207ZM30.8454 44.9842L39.4872 49.9852L48.1289 44.9842V34.9905L39.4955 29.9894L30.8537 34.9905L30.8454 44.9842Z" fill="white"/>
</g>
<defs>
<clipPath id="clip0_346_833">
<rect width="79" height="80" fill="white"/>
</clipPath>
</defs>
</svg>
