<svg width="2500" height="1750" viewBox="0 0 2500 1750" fill="none" xmlns="http://www.w3.org/2000/svg">
<g clip-path="url(#clip0_346_785)">
<path d="M654.274 0.0722656C811.717 0.0723165 951.639 74.93 1040.35 190.921C1120.98 106.912 1233.23 54.8077 1357.37 54.8076C1522.4 54.8076 1666.38 146.829 1743.06 283.438C1809.69 253.669 1883.44 237.107 1961.04 237.107C2258.69 237.107 2500 480.521 2500 780.769C2500 1081.05 2258.69 1324.46 1961.04 1324.46C1925.39 1324.48 1889.83 1320.94 1854.88 1313.89C1787.36 1434.33 1658.69 1515.7 1511.01 1515.7C1449.18 1515.7 1390.71 1501.42 1338.64 1476.03C1270.19 1637.03 1110.72 1749.92 924.857 1749.92C731.304 1749.92 566.347 1627.45 503.028 1455.7C475.358 1461.57 446.689 1464.63 417.272 1464.63C186.825 1464.64 4.92638e-05 1275.89 0 1043.02C0 886.967 83.9387 750.71 208.653 677.812C182.978 618.734 168.696 553.526 168.696 484.97C168.696 217.165 386.111 0.0722656 654.274 0.0722656ZM1455.92 611.031C1429.7 611.031 1409.05 618.439 1394.55 633.038C1380.13 647.57 1370.34 669.685 1365.42 698.781L1363.64 708.574H1330.74C1330.74 708.574 1326.75 708.432 1325.89 712.778L1320.52 742.94C1320.12 745.791 1321.37 747.605 1325.22 747.605H1357.23L1324.75 928.944C1322.22 943.546 1319.3 955.548 1316.06 964.662C1312.89 973.639 1309.8 980.368 1305.95 985.283C1302.25 989.985 1298.75 993.473 1292.7 995.503C1287.71 997.177 1281.94 997.961 1275.64 997.961C1272.15 997.961 1267.49 997.387 1264.03 996.677C1260.61 995.999 1258.8 995.253 1256.2 994.146C1256.15 994.129 1252.45 992.749 1250.96 996.464C1249.78 999.562 1241.24 1023.03 1240.21 1025.92C1239.21 1028.8 1240.63 1031.04 1242.45 1031.72C1246.72 1033.22 1249.89 1034.21 1255.7 1035.6C1263.75 1037.49 1270.55 1037.6 1276.92 1037.6C1290.24 1037.6 1302.42 1035.71 1312.5 1032.08C1322.61 1028.41 1331.44 1022.03 1339.28 1013.42C1347.72 1004.08 1353.02 994.327 1358.08 980.974C1363.1 967.795 1367.42 951.414 1370.83 932.327L1403.49 747.605H1451.21C1451.24 747.607 1455.23 747.729 1456.05 743.368L1461.46 713.241C1461.82 710.359 1460.61 708.576 1456.73 708.576H1410.4C1410.65 707.544 1412.75 691.231 1418.05 675.886C1420.33 669.369 1424.61 664.061 1428.2 660.428C1431.77 656.867 1435.86 654.339 1440.35 652.878C1444.94 651.381 1450.18 650.671 1455.91 650.671C1460.26 650.671 1464.57 651.169 1467.81 651.845C1472.29 652.808 1474.04 653.306 1475.22 653.664C1479.95 655.088 1480.59 653.699 1481.52 651.422L1492.6 621.009C1493.73 617.726 1490.92 616.337 1489.93 615.946C1485.3 614.522 1481.09 613.558 1475.61 612.527C1470.05 611.531 1463.43 611.031 1455.92 611.031ZM447.898 703.479C400.962 703.479 368.198 731.827 368.198 772.46V773.315C368.198 816.156 404.345 830.045 438.214 839.732L443.662 841.406C468.341 848.991 489.602 855.508 489.603 872.888V873.744C489.602 889.627 475.786 901.449 453.491 901.449C444.837 901.449 417.238 901.271 387.431 882.43C383.832 880.328 381.732 878.799 378.954 877.125C377.495 876.199 373.827 874.595 372.226 879.439L362.103 907.505C360.536 911.601 362.673 912.457 363.171 913.168C367.871 916.586 372.646 919.047 377.453 921.787C402.951 935.318 427.028 939.27 452.205 939.27C503.486 939.269 535.323 911.991 535.323 868.08V867.228C535.323 826.627 499.392 811.884 465.666 801.236L461.287 799.812C435.859 791.549 413.922 784.429 413.922 767.69V766.802C413.922 752.485 426.742 741.942 446.614 741.941C468.694 741.941 494.906 749.279 511.785 758.608C511.832 758.638 516.744 761.791 518.552 757.007C519.548 754.441 528.096 731.438 528.987 728.944C529.948 726.237 528.238 724.241 526.494 723.173C507.228 711.456 480.589 703.443 453.026 703.443L447.898 703.479ZM1198.64 703.479C1151.7 703.479 1118.94 731.827 1118.94 772.46V773.315C1118.94 816.156 1155.08 830.045 1188.95 839.732L1194.4 841.406C1219.08 848.991 1240.38 855.508 1240.38 872.888V873.744C1240.38 889.627 1226.52 901.449 1204.23 901.449C1195.58 901.449 1167.98 901.271 1138.17 882.43C1134.57 880.328 1132.44 878.869 1129.73 877.125C1128.8 876.519 1124.46 874.845 1122.96 879.439L1112.85 907.505C1111.28 911.601 1113.42 912.457 1113.92 913.168C1118.62 916.586 1123.39 919.047 1128.2 921.787C1153.69 935.318 1177.77 939.27 1202.95 939.27C1254.23 939.269 1286.07 911.991 1286.07 868.08V867.228C1286.07 826.627 1250.14 811.884 1216.41 801.236L1212.03 799.812C1186.6 791.549 1164.66 784.429 1164.66 767.69V766.802C1164.66 752.485 1177.48 741.941 1197.36 741.941C1219.43 741.941 1245.65 749.279 1262.53 758.608C1262.57 758.636 1267.49 761.794 1269.29 757.007C1270.29 754.442 1278.84 731.439 1279.73 728.944C1280.69 726.237 1278.98 724.241 1277.24 723.173C1257.97 711.456 1231.33 703.443 1203.77 703.443L1198.64 703.479ZM990.644 704.124C972.588 704.124 956.134 707.152 942.815 713.418C929.462 719.687 918.244 728.236 909.447 738.884C900.651 749.494 894.027 762.137 889.825 776.489C885.624 790.771 883.451 806.334 883.451 822.748C883.451 839.452 885.659 855.015 890.041 869.009C894.458 883.113 901.51 895.541 911.052 905.831C920.561 916.196 932.811 924.317 947.483 929.975C962.05 935.603 979.748 938.524 1000.08 938.486C1041.93 938.344 1063.97 929.014 1073.05 923.991C1074.66 923.103 1076.19 921.536 1074.26 917.05L1064.83 890.516C1063.37 886.58 1059.38 888.012 1059.34 888.023C1048.98 891.87 1034.27 898.779 999.835 898.709C977.401 898.674 960.734 892.05 950.299 881.685C939.578 871.074 934.344 855.473 933.416 833.466L1078.32 833.608C1078.38 833.607 1082.14 833.512 1082.53 829.832C1082.66 828.268 1087.5 800.063 1078.18 767.407C1074.54 753.696 1065.57 739.843 1059.66 733.504C1050.33 723.461 1041.21 716.446 1032.17 712.527C1020.34 707.47 1006.17 704.124 990.644 704.124ZM2151.14 704.124C2133.05 704.124 2116.63 707.152 2103.31 713.418C2089.96 719.687 2078.74 728.236 2069.95 738.884C2061.15 749.494 2054.52 762.137 2050.32 776.489C2046.08 790.771 2043.95 806.334 2043.95 822.748C2043.95 839.452 2046.16 855.015 2050.54 869.009C2054.95 883.113 2062 895.541 2071.55 905.831C2081.05 916.196 2093.31 924.316 2107.98 929.975C2122.55 935.603 2140.25 938.524 2160.58 938.486C2202.42 938.344 2224.47 929.014 2233.55 923.991C2235.15 923.103 2236.68 921.536 2234.76 917.05L2225.29 890.516C2223.87 886.58 2219.87 888.012 2219.84 888.023C2209.47 891.87 2194.73 898.779 2160.36 898.709C2137.89 898.674 2121.22 892.05 2110.79 881.685C2100.07 871.074 2094.84 855.473 2093.91 833.466L2238.82 833.608C2238.85 833.608 2242.63 833.522 2243.02 829.832C2243.16 828.268 2248.01 800.063 2238.71 767.407C2235.08 753.696 2226.07 739.843 2220.16 733.504C2210.83 723.462 2201.71 716.446 2192.67 712.527C2180.84 707.47 2166.67 704.124 2151.14 704.124ZM658.942 703.881C648.079 703.881 630.594 705.38 620.123 707.479C620.123 707.479 588.465 713.606 575.429 723.791C575.429 723.791 572.581 725.573 574.147 729.562L584.405 757.127C585.687 760.688 589.143 759.477 589.143 759.477C589.173 759.465 590.264 759.038 591.529 758.301C619.374 743.153 654.566 743.592 654.67 743.594C670.34 743.594 682.378 746.727 690.496 752.958C698.401 759.012 702.426 768.163 702.426 787.465V793.591C690.003 791.817 678.605 790.787 678.529 790.78C672.653 790.352 665.031 790.103 655.914 790.103C643.487 790.103 631.484 791.669 620.23 794.697C608.907 797.723 598.722 802.463 589.961 808.727C581.213 814.97 574.022 823.148 568.949 832.623C563.822 842.167 561.222 853.421 561.222 866.028C561.222 878.849 563.429 889.995 567.846 899.114C572.263 908.266 578.637 915.886 586.755 921.765C594.803 927.64 604.74 931.947 616.276 934.547C627.638 937.147 640.529 938.463 654.633 938.463C669.483 938.463 684.298 937.255 698.649 934.795C712.858 932.373 730.308 928.846 735.15 927.745C738.546 926.927 741.93 926.061 745.301 925.146C748.878 924.262 748.617 920.453 748.614 920.408L748.542 787.896C748.542 758.834 740.779 737.287 725.501 723.934C710.293 710.615 687.893 703.881 658.942 703.881ZM1569.95 704.116C1552.57 704.116 1537.12 707.215 1524.05 713.304C1510.94 719.43 1499.9 727.836 1491.14 738.304C1482.45 748.774 1475.9 761.309 1471.66 775.483C1467.5 789.62 1465.39 805.075 1465.39 821.494C1465.39 837.913 1467.5 853.403 1471.66 867.505C1475.9 881.679 1482.42 894.217 1491.18 904.685C1499.9 915.155 1510.98 923.524 1524.05 929.47C1537.15 935.418 1552.57 938.443 1569.96 938.443C1587.3 938.443 1602.72 935.418 1615.82 929.47C1628.89 923.524 1639.97 915.152 1648.69 904.685C1657.42 894.249 1663.97 881.714 1668.17 867.505C1672.38 853.368 1674.48 837.875 1674.48 821.494C1674.48 805.113 1672.37 789.62 1668.17 775.483C1663.97 761.272 1657.42 748.737 1648.69 738.304C1639.97 727.833 1628.93 719.43 1615.82 713.304C1602.75 707.215 1587.3 704.116 1569.95 704.116ZM1964.85 703.896C1946.86 703.896 1930.83 706.96 1917.12 713.086C1903.45 719.174 1891.84 727.578 1882.65 738.051C1873.46 748.521 1866.48 761.053 1861.82 775.228C1857.19 789.364 1854.84 804.893 1854.84 821.312C1854.84 856.817 1864.42 885.518 1883.33 906.531C1902.27 927.615 1930.73 938.333 1967.84 938.333C1989.78 938.333 2012.29 933.884 2028.45 927.508C2028.48 927.495 2031.55 925.995 2030.2 922.417L2019.69 893.391C2018.27 889.24 2014.27 890.779 2014.24 890.791C2008.01 893.178 2001.38 895.386 1994.33 896.489C1987.18 897.59 1979.3 898.163 1970.86 898.163C1950.14 898.163 1933.69 892.002 1921.9 879.822C1910.08 867.643 1903.45 847.951 1903.52 821.312C1903.59 797.06 1909.43 778.824 1919.94 764.938C1930.38 751.121 1946.26 744.031 1967.45 744.031C1985.11 744.031 1998.57 746.061 2012.67 750.513C2012.7 750.525 2016.06 751.953 2017.66 747.558C2021.4 737.157 2024.18 729.715 2028.16 718.283C2029.3 715.043 2026.53 713.654 2025.53 713.261C2019.97 711.089 2006.87 707.565 1996.97 706.068C1987.71 704.644 1976.88 703.897 1964.85 703.896ZM1820.81 706.749C1802.61 705.645 1792.5 708.709 1783.45 712.768C1774.48 716.827 1764.51 723.378 1758.95 730.823V713.195C1758.95 710.738 1757.21 708.779 1754.78 708.778H1717.64C1715.22 708.779 1713.47 710.736 1713.47 713.195V929.327C1713.47 931.749 1715.47 933.744 1717.89 933.744H1755.96C1757.12 933.737 1758.24 933.268 1759.06 932.44C1759.88 931.613 1760.34 930.493 1760.34 929.327V821.352C1760.34 806.857 1761.94 792.4 1765.15 783.318C1768.28 774.342 1772.56 767.15 1777.83 761.984C1783.13 756.857 1789.15 753.261 1795.74 751.231C1802.47 749.165 1809.91 748.488 1815.18 748.488C1822.76 748.488 1831.08 750.439 1831.1 750.445C1833.88 750.766 1835.45 749.057 1836.37 746.529C1838.86 739.905 1845.92 720.068 1847.27 716.116C1848.37 712.838 1846.06 711.272 1845.1 710.916C1842.64 709.955 1830.32 707.355 1820.81 706.749ZM799.985 615.698C797.563 615.698 795.854 617.658 795.854 620.078V929.337C795.854 931.759 797.563 933.719 799.985 933.719H838.411C840.833 933.719 842.578 931.759 842.578 929.337V620.078C842.578 617.658 840.833 615.698 838.411 615.698H799.985ZM663.146 826.642C683.907 826.927 702.461 829.99 702.461 829.99V895.873H702.495C702.404 895.893 684.032 899.828 663.358 901.071C633.872 902.853 620.766 892.563 620.874 892.598C615.211 888.073 614.428 886.934 612.506 884.014C609.656 879.562 608.196 873.223 608.196 865.175C608.196 852.425 612.398 843.273 621.124 837.112C621.035 837.136 633.608 826.251 663.146 826.642ZM1569.95 743.396C1588.97 743.396 1602.61 749.985 1611.65 763.516C1620.74 777.189 1625.36 796.707 1625.36 821.494C1625.36 846.316 1620.73 865.866 1611.62 879.685C1602.61 893.361 1588.97 900.019 1569.95 900.02C1550.9 900.02 1537.33 893.396 1528.46 879.685C1519.49 865.903 1514.93 846.316 1514.93 821.494C1514.93 796.709 1519.49 777.192 1528.46 763.516C1537.33 749.985 1550.9 743.396 1569.95 743.396ZM987.223 742.518C1006.24 742.518 1018.81 749.995 1027.86 763.528C1033.8 772.465 1036.4 784.434 1037.44 797.715H934.09C936.154 783.934 939.931 772.465 945.807 763.528C954.673 749.96 968.206 742.518 987.223 742.518ZM2147.72 742.518C2166.74 742.518 2179.31 749.995 2188.32 763.528C2194.3 772.465 2196.9 784.434 2197.94 797.715H2094.59C2096.62 783.934 2100.43 772.465 2106.3 763.528C2115.17 749.96 2128.7 742.518 2147.72 742.518Z" fill="white"/>
</g>
<defs>
<clipPath id="clip0_346_785">
<rect width="2500" height="1750" fill="white"/>
</clipPath>
</defs>
</svg>
