<svg width="35" height="40" viewBox="0 0 35 40" fill="none" xmlns="http://www.w3.org/2000/svg">
<g clip-path="url(#clip0_164_39)">
<path fill-rule="evenodd" clip-rule="evenodd" d="M16.2354 0.106445C16.9044 0.106445 17.6794 0.466375 18.3047 1.29492C18.3671 1.29137 18.4296 1.28906 18.4902 1.28906C20.6887 1.28918 21.9384 3.16616 22.6465 5.20801C23.3697 4.98376 23.807 4.84849 23.833 4.84082C23.9434 4.80826 24.1625 4.76902 24.3682 4.80078L24.3691 4.7998C24.4057 4.80551 24.4416 4.81553 24.4766 4.82617C24.4866 4.82922 24.4961 4.83341 24.5059 4.83691C24.5294 4.84534 24.5521 4.85496 24.5742 4.86621C24.5908 4.87466 24.6075 4.8824 24.623 4.89258C24.6246 4.89362 24.6264 4.89445 24.6279 4.89551C24.6523 4.91189 24.6762 4.93004 24.6973 4.95117C24.9319 5.18654 27.0498 7.29297 27.0498 7.29297C27.0893 7.2959 30.1028 7.52025 30.2461 7.53223C30.3905 7.54447 30.5652 7.65475 30.5928 7.85449C30.6198 8.05403 34.9077 37.1047 34.9277 37.2402L22.6562 39.9014L0.00683594 35.6484C0.0161104 35.5766 2.91369 13.1241 3.02344 12.3301C3.1693 11.2812 3.20456 11.2457 4.31543 10.8965C4.49729 10.8392 5.91061 10.4007 7.89941 9.7832C8.6666 6.52296 11.1138 0.106552 16.2354 0.106445ZM15.3965 13.7324C10.0234 13.7326 7.3614 17.3287 7.36133 21.0449C7.36133 25.4604 11.7578 25.5805 11.7578 28.2676C11.7578 28.9171 11.2996 29.8066 10.1729 29.8066C8.44832 29.8066 6.4043 28.0479 6.4043 28.0479L5.36328 31.4941C5.36328 31.4941 7.35158 33.9188 11.2393 33.9189C14.4791 33.9189 16.8827 31.4748 16.8828 27.6787C16.8828 22.8536 11.5236 22.0639 11.5234 20.0039C11.5234 19.6264 11.6439 18.1279 14.0264 18.1279C15.6373 18.1281 16.954 18.8249 16.9766 18.8369L18.4902 14.3271C18.4902 14.3271 17.4669 13.7324 15.3965 13.7324ZM16.0947 1.4834C12.4163 1.48347 10.3498 6.32279 9.47949 9.29199L12.6074 8.32129C13.3504 4.42863 15.1106 2.47904 16.752 1.70508C16.5388 1.55809 16.3158 1.4834 16.0947 1.4834ZM17.6162 2.92676C16.3673 3.46382 14.9388 4.88775 14.1768 7.83496C15.5341 7.4136 16.8885 6.99329 18.1348 6.60645C18.1354 6.53398 18.1357 6.46215 18.1357 6.38379C18.1357 4.85237 17.9312 3.71755 17.6162 2.92676ZM19.0215 2.6748C19.3035 3.4848 19.4795 4.50733 19.4795 5.77637C19.4795 5.9218 19.4792 6.05524 19.4785 6.19043L21.3945 5.5957C20.909 4.10926 20.1544 2.81727 19.0215 2.6748Z" fill="white"/>
</g>
<defs>
<clipPath id="clip0_164_39">
<rect width="35" height="40" fill="white"/>
</clipPath>
</defs>
</svg>
