<svg width="515" height="660" viewBox="0 0 515 660" fill="none" xmlns="http://www.w3.org/2000/svg">
<path d="M514.706 659.313L63.7256 637.255L34.3135 34.3135L398.12 8.32715L392.157 88.2354L426.917 62.0342L455.883 88.2354V4.20117L514.706 0V659.313ZM51.4707 637.255H22.0586L0 34.3135H22.0586L51.4707 637.255ZM281.766 118.627C198.824 118.627 152.354 165.686 152.354 236.274C152.354 359.215 311.177 361.568 311.177 428.627C311.177 447.45 302.353 458.627 282.941 458.627C257.648 458.627 247.648 442.156 248.824 396.274H149.412C141.765 509.803 208.236 535.686 284.118 535.686C357.648 535.686 415.295 501.568 415.295 427.45C415.295 295.686 254.118 299.215 254.118 233.921C254.118 207.451 272.942 203.921 284.118 203.921C295.883 203.921 317.06 208.627 315.295 258.039L410.001 255.686C412.354 163.921 364.707 118.627 281.766 118.627Z" fill="white"/>
</svg>
