<svg width="80" height="80" viewBox="0 0 80 80" fill="none" xmlns="http://www.w3.org/2000/svg">
<path d="M40.084 8.00008C39.6267 8.00007 39.1837 8.15991 38.8318 8.45194L33.0418 13.2578C32.6445 13.589 32.3941 14.0639 32.3454 14.5789C32.2966 15.0939 32.4533 15.6073 32.7814 16.0072C33.1127 16.4046 33.5875 16.6549 34.1025 16.7037C34.6175 16.7525 35.1309 16.5957 35.5309 16.2676L38.1233 14.1194V22.0844L19.3558 32.0445C19.2215 32.1128 19.0956 32.1963 18.9805 32.2934C18.965 32.306 18.9497 32.3189 18.9345 32.3319C18.6285 32.6019 18.4143 32.9607 18.3219 33.3582C18.3193 33.371 18.3168 33.3839 18.3145 33.3967C18.2833 33.5324 18.2667 33.6711 18.2648 33.8103V54.8678L11.3376 58.8618L11.8966 55.5609C11.982 55.0492 11.8611 54.5245 11.5604 54.1017C11.2596 53.6789 10.8036 53.3926 10.2921 53.3055C9.77982 53.2189 9.2541 53.3393 8.83047 53.6402C8.40685 53.941 8.11996 54.3977 8.03284 54.91L6.773 62.3197C6.77003 62.3452 6.76756 62.3707 6.76559 62.3963C6.75479 62.4813 6.7496 62.5671 6.75002 62.6528C6.75082 62.7387 6.75726 62.8244 6.76929 62.9094C6.78029 62.9946 6.79687 63.079 6.81894 63.1621C6.84176 63.2442 6.8699 63.3248 6.90321 63.4033C6.9032 63.4008 6.9032 63.4058 6.90321 63.4033C6.97041 63.5608 7.05796 63.7163 7.16362 63.8511C7.21558 63.9185 7.27187 63.9825 7.33214 64.0426C7.39113 64.1014 7.4538 64.1564 7.51978 64.2072C7.52348 64.2097 7.52719 64.2122 7.5309 64.2146C7.58388 64.2544 7.63884 64.2915 7.69557 64.3257C7.71828 64.339 7.74126 64.3518 7.76449 64.3642C7.81567 64.392 7.86807 64.4176 7.92152 64.4408C7.94187 64.45 7.96238 64.4589 7.98303 64.4674C7.99948 64.4753 8.01603 64.483 8.03269 64.4904L15.0672 67.1097C15.3092 67.2009 15.5669 67.2434 15.8255 67.2346C16.084 67.2258 16.3382 67.1659 16.5735 67.0584C16.8088 66.9509 17.0205 66.7979 17.1964 66.6082C17.3723 66.4185 17.5089 66.1959 17.5984 65.9532C17.7791 65.4657 17.7588 64.9264 17.5419 64.4539C17.325 63.9814 16.9294 63.6143 16.4419 63.4335L13.2942 62.2656L20.2559 58.2371L39.1652 68.2546C39.1639 68.2534 39.1664 68.2559 39.1652 68.2546C39.3846 68.3686 39.6275 68.4439 39.8736 68.4691C39.8901 68.4706 39.9067 68.4718 39.9233 68.4729C39.9741 68.4789 40.0252 68.4828 40.0764 68.4848C40.1276 68.4828 40.1787 68.4789 40.2296 68.4729C40.2552 68.4721 40.2807 68.4708 40.3062 68.4691C40.4229 68.4565 40.5383 68.4334 40.6508 68.4002C40.6496 68.4002 40.6521 68.4002 40.6508 68.4002C40.7714 68.363 40.8919 68.3142 41.0031 68.2546L59.9009 58.2409L66.8703 62.2655L63.7264 63.4335C63.4847 63.5226 63.2629 63.6586 63.0738 63.8335C62.8846 64.0084 62.7318 64.2189 62.6241 64.4529C62.5163 64.6869 62.4557 64.9398 62.4458 65.1973C62.4358 65.4547 62.4767 65.7116 62.5661 65.9532C62.7469 66.4406 63.114 66.8363 63.5865 67.0532C64.059 67.2701 64.5983 67.2904 65.0858 67.1096L72.1356 64.4904C72.317 64.4227 72.4873 64.3285 72.6411 64.2108C72.6463 64.2057 72.6515 64.2005 72.6566 64.1953C72.7169 64.1489 72.7745 64.099 72.8289 64.046C72.8458 64.0285 72.8624 64.0107 72.8786 63.9926C72.9133 63.9556 72.9465 63.9173 72.9782 63.8777C72.9939 63.8588 73.0092 63.8395 73.0241 63.8199C73.0332 63.806 73.0421 63.7919 73.0508 63.7777C73.0561 63.7713 73.0612 63.7649 73.0664 63.7584C73.0809 63.737 73.095 63.7152 73.1086 63.6932C73.1218 63.6742 73.1347 63.6549 73.1472 63.6354C73.2797 63.4094 73.3657 63.1591 73.3999 62.8993C73.4341 62.6395 73.4159 62.3754 73.3463 62.1228L72.1355 54.9094C72.0483 54.3972 71.7615 53.9405 71.3378 53.6396C70.9142 53.3388 70.3885 53.2184 69.8762 53.3049C69.364 53.3912 68.907 53.6771 68.6055 54.1C68.304 54.5228 68.1825 55.0481 68.2678 55.5604L68.8269 58.8613L61.8996 54.8673V33.8098C61.9013 33.4107 61.781 33.0206 61.555 32.6916C61.5499 32.6839 61.5447 32.6763 61.5395 32.6686C61.4539 32.5481 61.355 32.4376 61.2446 32.3393C61.1025 32.2121 60.9425 32.1063 60.7698 32.0253L42.0446 22.0844V14.1347L44.6217 16.2676C44.8202 16.4324 45.0492 16.5565 45.2957 16.6326C45.5422 16.7087 45.8013 16.7355 46.0582 16.7113C46.315 16.6871 46.5646 16.6124 46.7925 16.4916C47.0204 16.3708 47.2223 16.2062 47.3865 16.0072C47.7146 15.6072 47.8713 15.0938 47.8225 14.5788C47.7738 14.0638 47.5234 13.589 47.1261 13.2577L41.3745 8.48641C41.3618 8.47475 41.3489 8.46327 41.3359 8.45195C41.3259 8.44419 41.3157 8.43653 41.3055 8.42897C41.2563 8.38951 41.2052 8.35245 41.1524 8.31792C41.1309 8.30473 41.1091 8.29196 41.0871 8.27961C41.0731 8.27178 41.0591 8.26412 41.0449 8.25664C41.0336 8.24886 41.0222 8.2412 41.0108 8.23366C40.9843 8.22028 40.9575 8.20751 40.9304 8.19535C40.9039 8.18197 40.8771 8.1692 40.85 8.15704C40.8171 8.14336 40.7839 8.13059 40.7504 8.11872C40.7288 8.11068 40.707 8.10302 40.6852 8.09575C40.6865 8.09575 40.6839 8.09575 40.6852 8.09575C40.6297 8.07794 40.5696 8.06261 40.5128 8.0498C40.4848 8.04408 40.4568 8.03896 40.4286 8.03446C40.3993 8.02868 40.37 8.02356 40.3405 8.01912C40.3188 8.01748 40.2971 8.01621 40.2753 8.01529C40.2677 8.01397 40.26 8.01269 40.2523 8.01146C40.223 8.00826 40.1937 8.00571 40.1643 8.00383C40.1375 8.002 40.1108 8.00081 40.084 8.00008ZM40.0766 25.4848L55.7653 33.7945L40.0766 42.1156L24.4031 33.7945L40.0766 25.4848ZM22.1859 37.057L38.1236 45.516V63.265L22.1859 54.8098V37.057ZM57.9787 37.057V54.8098L42.0448 63.2573V45.516L57.9787 37.057Z" fill="white"/>
</svg>
