<svg width="93" height="80" viewBox="0 0 93 80" fill="none" xmlns="http://www.w3.org/2000/svg">
<path d="M45.9902 28.0391C47.5397 28.0391 48.9199 28.3125 50.1309 28.8594C51.3548 29.3932 52.39 30.1484 53.2363 31.125C54.0827 32.0885 54.7272 33.2279 55.1699 34.543C55.6126 35.8451 55.834 37.2578 55.834 38.7812V39.2305C55.834 40.7539 55.6126 42.1667 55.1699 43.4688C54.7272 44.7708 54.0827 45.9102 53.2363 46.8867C52.39 47.8503 51.3613 48.6055 50.1504 49.1523C48.9395 49.6862 47.5658 49.9531 46.0293 49.9531C44.4798 49.9531 43.0931 49.6862 41.8691 49.1523C40.6582 48.6055 39.6296 47.8503 38.7832 46.8867C37.9368 45.9102 37.2923 44.7708 36.8496 43.4688C36.4069 42.1667 36.1855 40.7539 36.1855 39.2305V38.7812C36.1855 37.2578 36.4069 35.8451 36.8496 34.543C37.2923 33.2279 37.9303 32.0885 38.7637 31.125C39.61 30.1484 40.6387 29.3932 41.8496 28.8594C43.0736 28.3125 44.4538 28.0391 45.9902 28.0391ZM87.9629 28.4297H91.7324V31.8672H87.9629V43.7227C87.9629 44.3737 88.054 44.875 88.2363 45.2266C88.4316 45.5651 88.6986 45.793 89.0371 45.9102C89.3757 46.0273 89.7728 46.0859 90.2285 46.0859C90.554 46.0859 90.8665 46.0664 91.166 46.0273C91.4655 45.9883 91.7064 45.9492 91.8887 45.9102L91.9082 49.5039C91.5176 49.6211 91.0618 49.7253 90.541 49.8164C90.0332 49.9076 89.4473 49.9531 88.7832 49.9531C87.7025 49.9531 86.7454 49.7643 85.9121 49.3867C85.0788 48.9961 84.4277 48.3646 83.959 47.4922C83.4902 46.6198 83.2559 45.4609 83.2559 44.0156V31.8672H79.8184V28.4297H83.2559V23.2539H87.9629V28.4297ZM20.5215 21.125V25.0312H7.29883V33.5664H18.9004V37.4531H7.29883V49.5625H2.39648V21.125H20.5215ZM32.9629 28.0391C33.2493 28.0391 33.5553 28.0651 33.8809 28.1172C34.2194 28.1693 34.4733 28.2279 34.6426 28.293L34.6035 32.668C34.3171 32.6159 34.0046 32.5768 33.666 32.5508C33.3405 32.5247 33.015 32.5117 32.6895 32.5117C31.8822 32.5117 31.1725 32.6289 30.5605 32.8633C29.9486 33.0846 29.4342 33.4102 29.0176 33.8398C28.67 34.1987 28.3902 34.6251 28.1777 35.1191V49.5625H23.4707V28.4297H27.9629L28.0947 30.916C28.1224 30.8683 28.1493 30.8203 28.1777 30.7734C28.7116 29.9141 29.3757 29.2435 30.1699 28.7617C30.9772 28.2799 31.9082 28.0391 32.9629 28.0391ZM70.5215 28.0391C71.5371 28.0391 72.4551 28.1823 73.2754 28.4688C74.1087 28.7422 74.8184 29.1914 75.4043 29.8164C76.0033 30.4414 76.459 31.2552 76.7715 32.2578C77.084 33.2474 77.2402 34.4648 77.2402 35.9102V49.5625H72.5137V35.8906C72.5137 34.875 72.3639 34.0742 72.0645 33.4883C71.778 32.8893 71.3548 32.4661 70.7949 32.2188C70.248 31.9583 69.5645 31.8281 68.7441 31.8281C67.9368 31.8281 67.2142 31.9974 66.5762 32.3359C65.9382 32.6745 65.3978 33.1367 64.9551 33.7227C64.7668 33.9794 64.5981 34.2541 64.4473 34.5459V49.5625H59.7402V28.4297H64.1738L64.3281 30.9795C64.3615 30.9368 64.3937 30.8935 64.4277 30.8516C65.1699 29.9531 66.0553 29.263 67.084 28.7812C68.1126 28.2865 69.2585 28.0391 70.5215 28.0391ZM45.9902 31.7891C45.1048 31.7891 44.3366 31.9779 43.6855 32.3555C43.0475 32.7201 42.5202 33.2279 42.1035 33.8789C41.6868 34.5299 41.3809 35.2786 41.1855 36.125C40.9902 36.9583 40.8926 37.8438 40.8926 38.7812V39.2305C40.8926 40.181 40.9902 41.0794 41.1855 41.9258C41.3809 42.7721 41.6868 43.5143 42.1035 44.1523C42.5202 44.7904 43.054 45.2917 43.7051 45.6562C44.3561 46.0208 45.1309 46.2031 46.0293 46.2031C46.9017 46.2031 47.6569 46.0208 48.2949 45.6562C48.946 45.2917 49.4798 44.7904 49.8965 44.1523C50.3132 43.5143 50.6191 42.7721 50.8145 41.9258C51.0228 41.0794 51.127 40.181 51.127 39.2305V38.7812C51.127 37.8438 51.0228 36.9583 50.8145 36.125C50.6191 35.2786 50.3066 34.5299 49.877 33.8789C49.4603 33.2279 48.9264 32.7201 48.2754 32.3555C47.6374 31.9779 46.8757 31.7891 45.9902 31.7891Z" fill="white"/>
</svg>
