<svg width="93" height="80" viewBox="0 0 93 80" fill="none" xmlns="http://www.w3.org/2000/svg">
<path d="M44.4023 30.7578C45.7695 30.7578 46.9349 31.0052 47.8984 31.5C48.7614 31.9372 49.4967 32.5427 50.1055 33.3154L50.3008 31.1484H54.5781V51.6953C54.5781 53.5964 54.1745 55.2109 53.3672 56.5391C52.5599 57.8672 51.4336 58.8763 49.9883 59.5664C48.543 60.2695 46.8698 60.6211 44.9688 60.6211C44.1615 60.6211 43.263 60.5039 42.2734 60.2695C41.2969 60.0352 40.3464 59.6576 39.4219 59.1367C38.5104 58.6289 37.7487 57.9583 37.1367 57.125L39.3438 54.3516C40.099 55.25 40.9323 55.9076 41.8438 56.3242C42.7552 56.7409 43.7122 56.9492 44.7148 56.9492C45.7956 56.9492 46.7135 56.7474 47.4688 56.3438C48.237 55.9531 48.8294 55.3737 49.2461 54.6055C49.6628 53.8372 49.8711 52.8997 49.8711 51.793V50.2842C49.2793 50.9729 48.5844 51.5228 47.7812 51.9297C46.8177 52.4245 45.6784 52.6719 44.3633 52.6719C43.0742 52.6719 41.9089 52.4049 40.8672 51.8711C39.8385 51.3372 38.9531 50.5885 38.2109 49.625C37.4818 48.6615 36.9219 47.5286 36.5312 46.2266C36.1406 44.9115 35.9453 43.4857 35.9453 41.9492V41.5391C35.9453 39.9375 36.1406 38.4792 36.5312 37.1641C36.9219 35.8359 37.4818 34.6966 38.2109 33.7461C38.9401 32.7826 39.8255 32.0469 40.8672 31.5391C41.9089 31.0182 43.0872 30.7578 44.4023 30.7578ZM87.6055 31.1484H91.375V34.5859H87.6055V46.4414C87.6055 47.0924 87.6966 47.5938 87.8789 47.9453C88.0742 48.2839 88.3411 48.5117 88.6797 48.6289C89.0182 48.7461 89.4154 48.8047 89.8711 48.8047C90.1966 48.8047 90.5091 48.7852 90.8086 48.7461C91.1081 48.707 91.349 48.668 91.5312 48.6289L91.5508 52.2227C91.1602 52.3398 90.7044 52.444 90.1836 52.5352C89.6758 52.6263 89.0898 52.6719 88.4258 52.6719C87.3451 52.6719 86.388 52.4831 85.5547 52.1055C84.7214 51.7148 84.0703 51.0833 83.6016 50.2109C83.1328 49.3385 82.8984 48.1797 82.8984 46.7344V34.5859H79.4609V31.1484H82.8984V25.9727H87.6055V31.1484ZM11.9023 23.8438C14.0638 23.8438 15.9062 24.1693 17.4297 24.8203C18.9531 25.4714 20.1185 26.4349 20.9258 27.7109C21.7461 28.974 22.1562 30.5365 22.1562 32.3984C22.1562 33.8177 21.8958 35.0677 21.375 36.1484C20.8542 37.2292 20.1185 38.1406 19.168 38.8828C18.5022 39.3935 17.746 39.8218 16.9014 40.1729L23.3086 52.0273V52.2812H18.0742L12.334 41.3047H6.74609V52.2812H1.84375V23.8438H11.9023ZM31.6094 52.2812H26.8828V31.1484H31.6094V52.2812ZM64.1094 33.5771C64.8268 32.6878 65.6789 32.0014 66.668 31.5195C67.6836 31.0117 68.8099 30.7578 70.0469 30.7578C71.0885 30.7578 72.026 30.901 72.8594 31.1875C73.7057 31.474 74.4349 31.9362 75.0469 32.5742C75.6589 33.1992 76.1211 34.0195 76.4336 35.0352C76.7591 36.0378 76.9219 37.2617 76.9219 38.707V52.2812H72.1953V38.668C72.1953 37.6523 72.0456 36.8451 71.7461 36.2461C71.4596 35.6471 71.0365 35.2174 70.4766 34.957C69.9167 34.6836 69.2331 34.5469 68.4258 34.5469C67.5794 34.5469 66.8307 34.7161 66.1797 35.0547C65.5417 35.3932 65.0078 35.8555 64.5781 36.4414C64.4046 36.678 64.2489 36.9299 64.1094 37.1963V52.2812H59.4219V22.2812H64.1094V33.5771ZM45.5742 34.5469C44.7279 34.5469 43.9922 34.7292 43.3672 35.0938C42.7422 35.4583 42.2279 35.9596 41.8242 36.5977C41.4336 37.2357 41.1406 37.9779 40.9453 38.8242C40.75 39.6706 40.6523 40.5755 40.6523 41.5391V41.9492C40.6523 42.9128 40.7435 43.8112 40.9258 44.6445C41.1211 45.4779 41.4141 46.2135 41.8047 46.8516C42.2083 47.4766 42.7161 47.9714 43.3281 48.3359C43.9531 48.6875 44.6888 48.8633 45.5352 48.8633C46.6419 48.8633 47.5469 48.6289 48.25 48.1602C48.9548 47.6989 49.4942 47.0793 49.8711 46.3027V37.0762C49.6962 36.7398 49.4953 36.43 49.2656 36.1484C48.862 35.6406 48.3542 35.25 47.7422 34.9766C47.1302 34.6901 46.4076 34.5469 45.5742 34.5469ZM6.74609 37.418H11.9805C13.1523 37.418 14.1289 37.2096 14.9102 36.793C15.6914 36.3763 16.2773 35.8099 16.668 35.0938C17.0716 34.3646 17.2734 33.5443 17.2734 32.6328C17.2734 31.6432 17.0781 30.7839 16.6875 30.0547C16.3099 29.3125 15.724 28.7461 14.9297 28.3555C14.1354 27.9518 13.1263 27.75 11.9023 27.75H6.74609V37.418ZM29.2656 23.1016C30.099 23.1016 30.7565 23.3424 31.2383 23.8242C31.7201 24.293 31.9609 24.8854 31.9609 25.6016C31.9609 26.3047 31.7201 26.8906 31.2383 27.3594C30.7565 27.8281 30.099 28.0625 29.2656 28.0625C28.4193 28.0625 27.7552 27.8281 27.2734 27.3594C26.8047 26.8906 26.5703 26.3047 26.5703 25.6016C26.5703 24.8854 26.8047 24.293 27.2734 23.8242C27.7552 23.3424 28.4193 23.1016 29.2656 23.1016Z" fill="white"/>
</svg>
