<svg width="80" height="80" viewBox="0 0 80 80" fill="none" xmlns="http://www.w3.org/2000/svg">
<path d="M63.5957 29.2188C64.9236 29.2188 66.1023 29.4792 67.1309 30C68.1594 30.5078 69.0255 31.2371 69.7285 32.1875C70.4316 33.125 70.959 34.2579 71.3105 35.5859C71.6621 36.901 71.8379 38.366 71.8379 39.9805V40.3906C71.8379 41.9269 71.6555 43.353 71.291 44.668C70.9395 45.9699 70.412 47.1095 69.709 48.0859C69.019 49.0493 68.1658 49.7982 67.1504 50.332C66.1349 50.8658 64.9627 51.1327 63.6348 51.1328C62.3198 51.1328 61.1673 50.8918 60.1777 50.4102C59.3723 50.002 58.6701 49.4552 58.0684 48.7725V58.8672H53.3613V29.6094H57.6973L57.8984 31.8135C58.5363 31.0264 59.2955 30.408 60.1777 29.9609C61.1542 29.4663 62.2938 29.2188 63.5957 29.2188ZM39.5527 29.2188C41.102 29.2188 42.4825 29.4922 43.6934 30.0391C44.9172 30.5729 45.9525 31.3282 46.7988 32.3047C47.6451 33.2682 48.2897 34.4076 48.7324 35.7227C49.1751 37.0247 49.3965 38.4376 49.3965 39.9609V40.4102C49.3965 41.9335 49.175 43.3465 48.7324 44.6484C48.2898 45.9504 47.645 47.0899 46.7988 48.0664C45.9526 49.0298 44.9236 49.7852 43.7129 50.332C42.5021 50.8658 41.1281 51.1328 39.5918 51.1328C38.0425 51.1328 36.6555 50.8658 35.4316 50.332C34.2207 49.7852 33.192 49.0299 32.3457 48.0664C31.4993 47.0898 30.8548 45.9505 30.4121 44.6484C29.9694 43.3464 29.748 41.9336 29.748 40.4102V39.9609C29.7481 38.4376 29.9694 37.0247 30.4121 35.7227C30.8548 34.4077 31.4929 33.2681 32.3262 32.3047C33.1725 31.3283 34.2013 30.5728 35.4121 30.0391C36.6359 29.4923 38.0165 29.2188 39.5527 29.2188ZM30.0996 26.2109H21.1738V50.7422H16.3105V26.2109H7.46191V22.3047H30.0996V26.2109ZM39.5527 32.9688C38.6675 32.9688 37.899 33.1577 37.248 33.5352C36.6102 33.8997 36.0826 34.4077 35.666 35.0586C35.2494 35.7095 34.9434 36.4585 34.748 37.3047C34.5528 38.1379 34.4551 39.0235 34.4551 39.9609V40.4102C34.4551 41.3606 34.5528 42.2592 34.748 43.1055C34.9434 43.9518 35.2493 44.694 35.666 45.332C36.0827 45.97 36.6166 46.4714 37.2676 46.8359C37.9186 47.2004 38.6935 47.3828 39.5918 47.3828C40.464 47.3827 41.2195 47.2005 41.8574 46.8359C42.5082 46.4714 43.0424 45.9699 43.459 45.332C43.8755 44.6941 44.1817 43.9516 44.377 43.1055C44.5852 42.2592 44.6895 41.3605 44.6895 40.4102V39.9609C44.6894 39.0235 44.5853 38.1379 44.377 37.3047C44.1816 36.4584 43.8691 35.7096 43.4395 35.0586C43.0228 34.4076 42.4888 33.8997 41.8379 33.5352C41.2 33.1576 40.4379 32.9688 39.5527 32.9688ZM62.3262 33.0078C61.4931 33.0078 60.7766 33.1512 60.1777 33.4375C59.5789 33.7109 59.0774 34.0952 58.6738 34.5898C58.4417 34.8744 58.2402 35.1878 58.0684 35.5283V44.8242L58.2168 45.1104C58.5814 45.7597 59.0661 46.2891 59.6699 46.6992C60.373 47.1548 61.2716 47.3828 62.3652 47.3828C63.2114 47.3827 63.9344 47.2005 64.5332 46.8359C65.1319 46.4714 65.6205 45.9699 65.998 45.332C66.3886 44.6811 66.6752 43.9321 66.8574 43.0859C67.0397 42.2397 67.1309 41.341 67.1309 40.3906V39.9805C67.1308 39.004 67.0397 38.0989 66.8574 37.2656C66.6751 36.4193 66.3886 35.677 65.998 35.0391C65.6075 34.4011 65.106 33.9062 64.4941 33.5547C63.8953 33.1902 63.1723 33.0079 62.3262 33.0078Z" fill="white"/>
</svg>
