<svg width="32" height="32" viewBox="0 0 32 32" fill="none" xmlns="http://www.w3.org/2000/svg">
<path d="M19.7969 2.64648V5.52637H28.4561V9.75H26.21V24.707H31.0674V29.3535H0.932617V24.707H5.7998V9.75H3.55371V5.52637H12.2227V2.64648H19.7969ZM2.13281 25.8975V28.1436H29.8672V25.8975H2.13281ZM16.0049 12.1025C13.4322 12.4289 7.00048 13.9167 7 16.998V24.6973H25.0098V16.998C25.0093 13.9071 18.5777 12.429 16.0049 12.1025ZM16.082 13.3213C20.9669 13.3214 23.5973 16.0944 23.7041 16.2109L23.8672 16.3838V23.6611H8.13281V16.374L8.30566 16.2012C8.42428 16.0826 11.2084 13.3213 16.082 13.3213ZM16.0723 14.541C12.3667 14.541 9.96649 16.3455 9.32324 16.9023V22.4795H12.9619C12.9428 22.4412 12.9331 22.3935 12.9141 22.3457C12.8853 22.2401 12.8462 22.1437 12.8174 22.0381C12.5488 21.0398 12.9137 20.1663 13.2305 19.3984C13.3073 19.2256 13.3742 19.0429 13.4414 18.8701C13.7677 18.0063 13.7296 17.3921 13.2979 16.4229L12.7314 15.1553L14.0371 15.6162C14.8338 15.8946 15.5053 16.2789 16.0332 16.7588L16.2354 16.9404C16.4272 17.1035 16.552 17.2285 16.6768 17.3916L17.0605 16.7676L17.7236 17.4307C18.3283 18.0547 18.8942 19.053 19.1533 19.9648C19.3453 20.6176 19.2496 21.251 19.1729 21.8174C19.1441 22.0478 19.1151 22.2595 19.1055 22.4707H22.6572V16.8926C22.052 16.3451 19.7771 14.5411 16.0723 14.541ZM14.8242 17.3154C14.9106 17.9009 14.8526 18.5344 14.5742 19.2734C14.507 19.4654 14.4206 19.6576 14.3438 19.8496C14.0558 20.5216 13.8163 21.1072 13.9795 21.7119C13.9987 21.7791 14.0181 21.8557 14.0469 21.9229C14.0949 22.0765 14.1519 22.2691 14.1807 22.4707H17.8965C17.9157 22.1827 17.944 21.9133 17.9824 21.6445C18.0496 21.1646 18.1171 20.7037 18.002 20.291C17.8484 19.7631 17.5695 19.1873 17.2432 18.7266C17.2145 18.7649 17.1947 18.8125 17.166 18.8604L16.5908 19.9551L16.0908 18.8223C15.7837 18.1217 15.7356 18.0827 15.4668 17.8428L15.2363 17.6416C15.1117 17.5266 14.9776 17.4209 14.8242 17.3154ZM7 9.75V14.3301C9.61052 11.7004 15.5985 10.9411 15.9277 10.9023H16.082C16.4037 10.9414 22.3997 11.7104 25.0098 14.3301V9.75H7ZM4.75391 6.72656V8.55078H27.2559V6.72656H4.75391ZM13.4131 3.84668V5.52637H18.5869V3.84668H13.4131Z" fill="black"/>
</svg>
