<svg width="40" height="40" viewBox="0 0 40 40" fill="none" xmlns="http://www.w3.org/2000/svg">
<path d="M32 0C36.4183 0 40 3.58172 40 8V32C40 36.2801 36.6389 39.7748 32.4121 39.9893L32 40H8L7.58789 39.9893C3.49764 39.7817 0.218304 36.5024 0.0107422 32.4121L0 32V8C1.28851e-07 3.58172 3.58172 1.93281e-07 8 0H32ZM8 2C4.68629 2 2 4.68629 2 8V32C2 35.3137 4.68629 38 8 38H32C35.3137 38 38 35.3137 38 32V8C38 4.68629 35.3137 2 32 2H8ZM15.835 6.80469C16.4292 6.21061 17.8188 5.49551 20.9766 6.3291C24.1342 7.16257 27.0862 6.98242 32.5 6.98242V7.87207C29.378 7.92846 29.3779 8.68097 29.3779 9.54102C29.3779 10.1487 29.4043 24.5703 29.4043 24.5703C29.4042 32.7373 24.8267 34.0507 21.25 34.0508H12.2725C10.188 34.0507 8.70425 33.2883 8.53027 31.8867C8.42041 31.0012 8.51154 29.083 10.4766 27.4082C12.3792 25.7866 13.0761 23.3276 13.0762 21.916V25.8223C13.0762 29.0689 11.8292 28.8673 11.4873 30.7002C11.0435 33.0801 12.6085 33.1572 13.7568 33.1572H18.4004C22.7743 33.1572 23.2852 33.1572 23.2852 27.3438V10.2373C23.2709 9.4689 23.0579 8.18887 20.5693 7.53711C17.7246 6.79214 17.3073 7.53724 16.1738 8.67871C15.2514 9.60762 14.8965 10.1201 13.6689 9.85352L11.2227 9.18848C12.1714 9.3165 13.3271 9.23378 13.7998 8.83984C14.2725 8.4459 15.2408 7.39878 15.835 6.80469Z" fill="white"/>
</svg>
