<svg width="40" height="40" viewBox="0 0 40 40" fill="none" xmlns="http://www.w3.org/2000/svg">
<rect x="4.5" y="4.5" width="31" height="31" rx="3.5" stroke="white"/>
<path d="M16.0626 24.5H9.96656V24.468C10.6706 24.004 10.8466 23.604 10.8466 22.548V15.236C10.8466 14.18 10.6706 13.796 9.96656 13.332V13.3H15.8386C18.2226 13.3 19.8706 14.068 19.8706 16.1C19.8706 17.684 18.4946 18.596 16.8786 18.692C18.6226 18.772 20.5426 19.556 20.5426 21.508C20.5426 23.684 18.6866 24.5 16.0626 24.5ZM13.8546 18.564H14.7186C16.1266 18.564 17.0226 17.668 17.0226 16.148C17.0226 14.596 16.1266 13.732 14.7186 13.732H13.8546V18.564ZM13.8546 24.068H14.9586C16.6706 24.068 17.6146 23.172 17.6146 21.508C17.6146 19.876 16.6706 18.964 14.9586 18.964H13.8546V24.068ZM26.5747 17.556C25.7747 17.556 25.0867 18.42 25.0867 19.684V21.508C25.0867 22.948 25.8067 23.86 26.6227 23.86C27.6307 23.86 28.1107 22.692 28.1107 20.452C28.1107 18.596 27.5827 17.556 26.5747 17.556ZM25.0867 22.868V26.26C25.0867 27.316 25.1347 27.524 25.8227 27.972V28.004H21.4707V27.972C22.1587 27.524 22.2227 27.316 22.2227 26.26V18.356C22.2227 17.268 22.1107 17.044 21.3747 16.612V16.58H25.0867V18.564C25.4067 17.364 26.3507 16.42 27.7587 16.42C29.6147 16.42 31.1347 17.988 31.1347 20.436C31.1347 22.996 29.5347 24.66 27.5667 24.66C26.2387 24.66 25.4067 23.924 25.0867 22.868Z" fill="white"/>
</svg>
