<svg width="40" height="40" viewBox="0 0 40 40" fill="none" xmlns="http://www.w3.org/2000/svg">
<path d="M38 29.6923C38 32.0714 36.0755 34 33.7015 34H6.29851C3.92451 34 2 32.0714 2 29.6923V10.3077C2 7.92862 3.92451 6 6.29851 6H33.7015C36.0755 6 38 7.92862 38 10.3077V29.6923ZM3.61194 29.1538C3.61194 30.9382 5.05532 32.3846 6.83582 32.3846H33.1642C34.9447 32.3846 36.3881 30.9382 36.3881 29.1538V10.7883C36.3881 9.03595 34.9705 7.61538 33.2219 7.61538L23.6353 19.0719C21.9487 21.7506 18.0513 21.7506 16.3647 19.0719L6.7781 7.61538C5.02948 7.61538 3.61194 9.03595 3.61194 10.7883V29.1538ZM17.728 18.21C18.7821 19.8842 21.2179 19.8842 22.272 18.21L31.3161 7.61538H8.68389L17.728 18.21Z" fill="white"/>
</svg>
