<svg width="88" height="88" viewBox="0 0 88 88" fill="none" xmlns="http://www.w3.org/2000/svg">
<path d="M80 0C84.4183 0 88 3.58172 88 8V80C88 84.4183 84.4183 88 80 88H36.2588C37.4725 87.129 38.5943 86.1667 39.6221 85.1104C42.462 82.1914 44.5448 78.609 45.8701 74.3633C47.2901 70.029 48 65.0312 48 59.3701V0H80ZM24.9961 61.2275C24.9961 63.4389 24.6646 65.5179 24.002 67.4639C23.4339 69.4098 22.2977 71.0019 20.5938 72.2402C18.8898 73.3901 16.4285 73.9648 13.21 73.9648C9.42364 73.9648 6.58376 73.2134 4.69043 71.71C2.89176 70.1178 1.66071 68.2153 0.998047 66.0039C0.335429 63.7042 0.00390625 61.4486 0.00390625 59.2373H0V8C0 3.58172 3.58172 1.28851e-07 8 0H24.9961V61.2275ZM67 34C61.4772 34 57 38.4772 57 44C57 49.5228 61.4772 54 67 54C72.5228 54 77 49.5228 77 44C77 38.4772 72.5228 34 67 34Z" fill="#FFF8E6"/>
</svg>
