<svg width="140" height="140" viewBox="0 0 140 140" fill="none" xmlns="http://www.w3.org/2000/svg">
<rect width="140" height="140" rx="20" fill="#021615"/>
<path d="M106 10C119.255 10 130 20.7452 130 34V106C130 118.84 119.917 129.324 107.236 129.968L106 130H34L32.7637 129.968C20.4929 129.345 10.6549 119.507 10.0322 107.236L10 106V34C10 20.7452 20.7452 10 34 10H106ZM34 16C24.0589 16 16 24.0589 16 34V106C16 115.941 24.0589 124 34 124H106C115.941 124 124 115.941 124 106V34C124 24.0589 115.941 16 106 16H34ZM57.5059 30.4141C59.2885 28.6318 63.4555 26.4856 72.9287 28.9863C82.4021 31.4871 91.258 30.9463 107.5 30.9463V33.6152C98.1341 33.7844 98.1338 36.0429 98.1338 38.623C98.1338 40.4464 98.2129 83.7109 98.2129 83.7109C98.2127 108.212 84.4792 112.151 73.749 112.151H46.8184C40.5645 112.151 36.1139 109.866 35.5918 105.661C35.2621 103.005 35.5336 97.2487 41.4297 92.2236C47.1378 87.3587 49.2285 79.9818 49.2285 75.7471V87.4678C49.2284 97.2077 45.4875 96.6022 44.4619 102.102C43.1307 109.241 47.8256 109.472 51.2705 109.472H65.2012C78.3229 109.472 79.8555 109.471 79.8555 92.0312V40.7129C79.8128 38.4077 79.175 34.5659 71.708 32.6104C63.1738 30.3755 61.921 32.6108 58.5205 36.0352C55.7531 38.8221 54.6893 40.3609 51.0059 39.5605L43.6689 37.5645C46.5148 37.9484 49.9811 37.702 51.3994 36.5205C52.8177 35.3387 55.7233 32.1963 57.5059 30.4141Z" fill="#ECBC2A"/>
</svg>
