<svg width="88" height="88" viewBox="0 0 88 88" fill="none" xmlns="http://www.w3.org/2000/svg">
<path d="M80 0C84.4181 0 87.9998 3.58193 88 8V80C88 84.4183 84.4183 88 80 88H23.1562C35.8238 87.9999 52.036 83.3743 52.0361 54.6016C52.0361 54.6016 51.9434 5.79462 51.9434 3.65332C51.9434 0.997652 55.6634 0.235819 61.0742 0H80ZM25.1348 0C30.7993 1.22382 30.3644 4.80467 30.3643 5.14551V64.373C30.3642 84.8535 28.5546 84.8535 13.0635 84.8535H1.6416C0.612633 83.5074 0 81.8252 0 80V8C0.000246179 3.58204 3.58203 0.000183273 8 0H25.1348ZM67 34C61.4775 34.0002 57.0002 38.4775 57 44C57 49.5227 61.4773 53.9998 67 54C72.5228 54 77 49.5228 77 44C76.9998 38.4774 72.5227 34 67 34Z" fill="#FFFBF0"/>
</svg>
