<svg width="88" height="88" viewBox="0 0 88 88" fill="none" xmlns="http://www.w3.org/2000/svg">
<path d="M76.0001 0.0478383C82.6196 0.0214492 87.9998 5.38043 88 12V76C88 82.6274 82.6274 88 76 88H10.1562C51.5004 88 51.5004 88 51.5004 44V12.0978C51.5004 5.48902 56.8438 0.124206 63.4525 0.0978599L76.0001 0.0478383ZM21 0L24.4575 0.0537246C27.7344 0.104644 30.3643 2.75056 30.3643 6.02792C30.3643 20.8955 30.3643 59.9597 30.3643 76.373C30.3643 81.0567 26.5674 84.8535 21.8838 84.8535H8.85352C3.96385 84.8535 0 80.8897 0 76V12C0 5.37258 5.37258 0 12 0H21ZM67 34C61.4775 34.0002 57.0002 38.4775 57 44C57 49.5227 61.4773 53.9998 67 54C72.5228 54 77 49.5228 77 44C76.9998 38.4774 72.5227 34 67 34Z" fill="#FFFBF0"/>
</svg>
