<svg width="120" height="120" viewBox="0 0 120 120" fill="none" xmlns="http://www.w3.org/2000/svg">
<path d="M96 0C109.255 0 120 10.7452 120 24V96C120 108.84 109.917 119.324 97.2363 119.968L96 120H24L22.7637 119.968C10.4929 119.345 0.654911 109.507 0.0322266 97.2363L0 96V24C0 10.7452 10.7452 1.93277e-07 24 0H96ZM24 6C14.0589 6 6 14.0589 6 24V96C6 105.941 14.0589 114 24 114H96C105.941 114 114 105.941 114 96V24C114 14.0589 105.941 6 96 6H24ZM47.5059 20.4141C49.2885 18.6318 53.4555 16.4856 62.9287 18.9863C72.4021 21.4871 81.258 20.9463 97.5 20.9463V23.6152C88.1341 23.7844 88.1338 26.0429 88.1338 28.623C88.1338 30.4464 88.2129 73.7109 88.2129 73.7109C88.2127 98.2122 74.4792 102.151 63.749 102.151H36.8184C30.5645 102.151 26.1139 99.8659 25.5918 95.6611C25.2621 93.0048 25.5336 87.2487 31.4297 82.2236C37.1378 77.3587 39.2285 69.9818 39.2285 65.7471V77.4678C39.2284 87.2077 35.4875 86.6022 34.4619 92.1016C33.1307 99.2411 37.8256 99.4717 41.2705 99.4717H55.2012C68.3229 99.4717 69.8555 99.4715 69.8555 82.0312V30.7129C69.8128 28.4077 69.175 24.5659 61.708 22.6104C53.1738 20.3755 51.921 22.6108 48.5205 26.0352C45.7531 28.8221 44.6893 30.3609 41.0059 29.5605L33.6689 27.5645C36.5148 27.9484 39.9811 27.702 41.3994 26.5205C42.8177 25.3387 45.7233 22.1963 47.5059 20.4141Z" fill="#ECBC2A"/>
</svg>
