<svg width="40" height="40" viewBox="0 0 40 40" fill="none" xmlns="http://www.w3.org/2000/svg">
<path d="M32.5 2.5H8.5C6.567 2.5 5 4.2692 5 6.45161V33.5484C5 35.7308 6.567 37.5 8.5 37.5H32.5C34.433 37.5 36 35.7308 36 33.5484V6.45161C36 4.2692 34.433 2.5 32.5 2.5Z" stroke="white"/>
<path d="M13.1074 20.3184H10.8867V19.1523H13.1074C13.4941 19.1523 13.8066 19.0898 14.0449 18.9648C14.2832 18.8398 14.457 18.668 14.5664 18.4492C14.6797 18.2266 14.7363 17.9727 14.7363 17.6875C14.7363 17.418 14.6797 17.166 14.5664 16.9316C14.457 16.6934 14.2832 16.502 14.0449 16.3574C13.8066 16.2129 13.4941 16.1406 13.1074 16.1406H11.3379V23.5H9.86719V14.9688H13.1074C13.7676 14.9688 14.3281 15.0859 14.7891 15.3203C15.2539 15.5508 15.6074 15.8711 15.8496 16.2812C16.0918 16.6875 16.2129 17.1523 16.2129 17.6758C16.2129 18.2266 16.0918 18.6992 15.8496 19.0938C15.6074 19.4883 15.2539 19.791 14.7891 20.002C14.3281 20.2129 13.7676 20.3184 13.1074 20.3184ZM20.0098 23.5H18.1875L18.1992 22.334H20.0098C20.5371 22.334 20.9785 22.2188 21.334 21.9883C21.6934 21.7578 21.9629 21.4277 22.1426 20.998C22.3262 20.5684 22.418 20.0566 22.418 19.4629V19C22.418 18.5391 22.3652 18.1309 22.2598 17.7754C22.1582 17.4199 22.0059 17.1211 21.8027 16.8789C21.6035 16.6367 21.3574 16.4531 21.0645 16.3281C20.7754 16.2031 20.4414 16.1406 20.0625 16.1406H18.1523V14.9688H20.0625C20.6289 14.9688 21.1465 15.0645 21.6152 15.2559C22.084 15.4434 22.4883 15.7148 22.8281 16.0703C23.1719 16.4258 23.4355 16.8516 23.6191 17.3477C23.8027 17.8438 23.8945 18.3984 23.8945 19.0117V19.4629C23.8945 20.0762 23.8027 20.6309 23.6191 21.127C23.4355 21.623 23.1719 22.0488 22.8281 22.4043C22.4844 22.7559 22.0742 23.0273 21.5977 23.2188C21.125 23.4062 20.5957 23.5 20.0098 23.5ZM19.002 14.9688V23.5H17.5312V14.9688H19.002ZM26.8418 14.9688V23.5H25.3711V14.9688H26.8418ZM30.3223 18.7012V19.8672H26.4668V18.7012H30.3223ZM30.8086 14.9688V16.1406H26.4668V14.9688H30.8086Z" fill="white"/>
</svg>
