<svg width="40" height="40" viewBox="0 0 40 40" fill="none" xmlns="http://www.w3.org/2000/svg">
<path d="M16 13.0465C22.6274 13.0465 28 17.7475 28 23.5465C27.9999 29.3454 22.6273 34.0465 16 34.0465C14.1778 34.0465 12.4512 33.6892 10.9043 33.0534L4.5 33.5465C4.5 33.5465 7.49976 32.5464 6.5 30.0465L6.69824 30.1784C5.01225 28.3701 4.00006 26.0621 4 23.5465C4 17.7475 9.37258 13.0465 16 13.0465ZM16 14.0465C9.79526 14.0465 5 18.4211 5 23.5465C5.00014 28.6719 9.79535 33.0465 16 33.0465C22.2046 33.0465 26.9999 28.6719 27 23.5465C27 18.4211 22.2047 14.0465 16 14.0465ZM13.5 19.0465C14.3284 19.0465 15 19.7181 15 20.5465C14.9999 21.3748 14.3284 22.0465 13.5 22.0465C12.6716 22.0465 12.0001 21.3748 12 20.5465C12 19.7181 12.6716 19.0465 13.5 19.0465ZM21.5 19.0465C22.3284 19.0465 23 19.7181 23 20.5465C22.9999 21.3748 22.3284 22.0465 21.5 22.0465C20.6716 22.0465 20.0001 21.3748 20 20.5465C20 19.7181 20.6716 19.0465 21.5 19.0465ZM27.5469 4.97913C28.0302 3.6736 29.877 3.67364 30.3604 4.97913L31.6191 8.3805L35.0205 9.63929C36.3263 10.1226 36.3263 11.9695 35.0205 12.4528L31.6191 13.7116L30.3604 17.1129C29.8771 18.4188 28.0301 18.4188 27.5469 17.1129L26.2881 13.7116L22.8867 12.4528C21.5812 11.9694 21.5811 10.1226 22.8867 9.63929L26.2881 8.3805L27.5469 4.97913ZM29.4229 5.32679C29.2618 4.89151 28.6465 4.89156 28.4854 5.32679L27.1465 8.94398L27.0986 9.04066C27.0406 9.13091 26.9539 9.20088 26.8516 9.2389L23.2344 10.5778C22.7991 10.7388 22.7991 11.3542 23.2344 11.5153L26.8516 12.8532C26.9882 12.9039 27.0959 13.0123 27.1465 13.1491L28.4854 16.7662C28.6366 17.1741 29.1869 17.1996 29.3877 16.8424L29.4229 16.7662L30.7607 13.1491C30.8114 13.0122 30.9198 12.9038 31.0566 12.8532L34.6738 11.5153C35.0816 11.3641 35.1069 10.8139 34.75 10.6129L34.6738 10.5778L31.0566 9.2389C30.9541 9.20097 30.8677 9.13094 30.8096 9.04066L30.7607 8.94398L29.4229 5.32679Z" fill="white"/>
</svg>
