<svg width="40" height="40" viewBox="0 0 40 40" fill="none" xmlns="http://www.w3.org/2000/svg">
<path d="M22.2692 3.45416C24.7277 1.29369 28.5862 3.03961 28.5862 6.3126V8.08043L32.0689 9.11995C33.6809 9.60113 34.7861 11.0839 34.7861 12.7661V14.4893L36.2994 14.9269C39.1973 15.7639 40.0155 19.4795 37.7375 21.4567L34.7861 24.0179V33.693L34.7787 33.9299C34.6369 36.273 32.4076 37.9338 30.1218 37.3996L29.8933 37.3393L20.1753 34.4399L18.0601 36.2997C15.6785 38.393 11.9829 36.8202 11.7542 33.7441L11.7431 33.4422V31.9243L8.35141 30.9126C6.73929 30.4317 5.63435 28.9478 5.63419 27.2655V25.5534L3.75117 25.0099C0.944044 24.1991 0.0880103 20.6879 2.10782 18.6716L2.31219 18.4811L5.63419 15.5977V6.33861C5.63447 3.79243 8.08708 1.96454 10.5271 2.69241L19.9403 5.50068L22.2692 3.45416ZM27.7417 30.1323L27.5551 30.2837C26.6645 30.963 25.5189 31.2152 24.4253 30.973L24.1922 30.9136L24.1885 30.9117L21.0189 33.6986L30.1655 36.4279C31.9952 36.9732 33.8347 35.6023 33.8349 33.693V24.8436L27.7417 30.1323ZM12.6944 33.4422C12.6947 35.8968 15.5883 37.2058 17.4321 35.5853L19.0996 34.1185L12.6944 32.2076V33.4422ZM12.6944 31.2145L19.9431 33.3772L23.1035 30.5986L12.6944 27.5925V31.2145ZM6.58545 27.2655C6.58561 28.5272 7.41454 29.6396 8.62361 30.0004L11.7431 30.9303V27.3175L6.58545 25.8284V27.2655ZM28.5862 25.3267L28.5807 25.5311C28.5258 26.5496 28.0635 27.5071 27.2931 28.1842L25.1045 30.1072C25.8321 30.1436 26.5557 29.9016 27.1185 29.4132L33.8349 23.583V15.2047L28.5862 13.6895V25.3267ZM13.6642 12.284C13.0478 12.8258 12.6944 13.6074 12.6944 14.4281V26.6022L23.9507 29.8545L26.6651 27.4699C27.2813 26.9282 27.6348 26.1472 27.6349 25.3267V13.4146L16.1501 10.0972L13.6642 12.284ZM15.0094 9.83432C14.2606 9.77992 13.5111 10.0212 12.9322 10.5236L6.58545 16.0314V24.8381L11.7431 26.3272V14.4281C11.7431 13.4023 12.1569 12.4226 12.8858 11.709L13.0362 11.5696L15.0094 9.83432ZM2.93646 19.1992C1.22801 20.6821 1.84165 23.468 4.01499 24.0959L5.63419 24.5631V16.8573L2.93646 19.1992ZM34.7861 22.7581L37.1142 20.7376C38.8223 19.2548 38.2088 16.4689 36.0356 15.841L34.7861 15.4797V22.7581ZM10.2549 3.60466C8.42494 3.05881 6.58573 4.42905 6.58545 6.33861V14.7718L12.3088 9.80552C13.283 8.96006 14.6191 8.66544 15.8585 9.02333L15.9141 9.03913L19.0968 6.242L10.2549 3.60466ZM28.5862 12.6992L33.8349 14.2144V12.7661C33.8349 11.5045 33.0057 10.3921 31.7967 10.0313L28.5862 9.07256V12.6992ZM16.9983 9.35219L27.6349 12.4243V8.78923L20.1725 6.56249L16.9983 9.35219ZM27.6349 6.3126C27.6349 3.85792 24.7411 2.54835 22.8972 4.16854L21.0152 5.82118L27.6349 7.79617V6.3126Z" fill="white"/>
</svg>
