<svg width="40" height="40" viewBox="0 0 40 40" fill="none" xmlns="http://www.w3.org/2000/svg">
<path d="M22.3589 2.60656C24.9433 0.335406 28.9995 2.17077 28.9995 5.61145V7.46985L32.6607 8.56262C34.3552 9.06846 35.5171 10.6272 35.5171 12.3956V14.2071L37.1079 14.6671C40.1543 15.547 41.0144 19.4529 38.6197 21.5314L35.5171 24.2238V34.3946L35.5093 34.6437C35.3602 37.1068 33.0167 38.8527 30.6138 38.2911L30.3736 38.2277L20.1577 35.1798L17.9341 37.1349C15.4305 39.3354 11.5456 37.682 11.3052 34.4484L11.2935 34.131V32.5353L7.72805 31.4718C6.03333 30.9662 4.87178 29.4063 4.87161 27.6378V25.838L2.89212 25.2667C-0.0588223 24.4143 -0.958713 20.7232 1.16458 18.6036L1.37942 18.4034L4.87161 15.3722V5.63879C4.87191 2.96216 7.45017 1.04062 10.0152 1.80578L19.9107 4.75793L22.3589 2.60656ZM28.1118 30.6515L27.9156 30.8107C26.9794 31.5248 25.7751 31.7899 24.6255 31.5353L24.3804 31.4728L24.3765 31.4708L21.0445 34.4005L30.6597 37.2696C32.5832 37.8429 34.5169 36.4018 34.5171 34.3946V25.0919L28.1118 30.6515ZM12.2935 34.131C12.2939 36.7113 15.3357 38.0874 17.274 36.3839L19.0269 34.8419L12.2935 32.8331V34.131ZM12.2935 31.7892L19.9136 34.0626L23.2359 31.1417L12.2935 27.9816V31.7892ZM5.87161 27.6378C5.87178 28.9642 6.74318 30.1336 8.01419 30.5128L11.2935 31.4904V27.6925L5.87161 26.1271V27.6378ZM28.9995 25.5997L28.9937 25.8146C28.936 26.8852 28.45 27.8918 27.6402 28.6036L25.3394 30.6251C26.1043 30.6634 26.865 30.409 27.4566 29.8956L34.5171 23.7667V14.9591L28.9995 13.3663V25.5997ZM13.313 11.8888C12.665 12.4583 12.2935 13.28 12.2935 14.1427V26.9405L24.1265 30.3595L26.98 27.8527C27.6278 27.2832 27.9994 26.4622 27.9995 25.5997V13.0773L15.9263 9.58996L13.313 11.8888ZM14.7271 9.3136C13.94 9.25641 13.1521 9.51004 12.5435 10.0382L5.87161 15.8282V25.0861L11.2935 26.6515V14.1427C11.2935 13.0644 11.7285 12.0345 12.4947 11.2843L12.6529 11.1378L14.7271 9.3136ZM2.03567 19.1583C0.239688 20.7171 0.884775 23.6458 3.16946 24.3058L4.87161 24.797V16.6964L2.03567 19.1583ZM35.5171 22.8995L37.9644 20.7755C39.7601 19.2167 39.1151 16.2881 36.8306 15.628L35.5171 15.2482V22.8995ZM9.72903 2.76477C7.80534 2.19095 5.87191 3.6314 5.87161 5.63879V14.504L11.8882 9.28332C12.9123 8.39454 14.3169 8.08483 15.6197 8.46106L15.6782 8.47766L19.024 5.53723L9.72903 2.76477ZM28.9995 12.3253L34.5171 13.9181V12.3956C34.5171 11.0693 33.6455 9.9 32.3745 9.52063L28.9995 8.51281V12.3253ZM16.8179 8.80676L27.9995 12.0363V8.21496L20.1548 5.87414L16.8179 8.80676ZM27.9995 5.61145C27.9995 3.03101 24.9574 1.65434 23.0191 3.35754L21.0406 5.09485L27.9995 7.17102V5.61145Z" fill="white"/>
</svg>
