<svg width="72" height="85" viewBox="0 0 72 85" fill="none" xmlns="http://www.w3.org/2000/svg">
<path d="M38.2494 84.3028C48.9797 84.3028 62.7128 80.3636 62.7128 55.8619C62.7128 55.8619 62.6341 12.5939 62.6341 10.7742C62.6341 8.19407 62.6341 5.93617 72 5.76699V3.09817C55.758 3.09817 46.9022 3.63841 37.4287 1.13765C27.9553 -1.36312 23.7886 0.7836 22.006 2.56584C20.2234 4.34809 17.3181 7.48974 15.8998 8.67158C14.4817 9.85339 11.0149 10.0996 8.16872 9.71552L15.5059 11.712C19.1893 12.5123 20.2529 10.9734 23.0203 8.18645C26.4208 4.76202 27.6733 2.52709 36.2076 4.762C44.7418 6.99691 44.3552 11.6954 44.3552 13.7483V64.1826C44.3552 81.623 42.8228 81.623 29.7009 81.623H15.7703C12.3254 81.623 7.63075 81.3925 8.96216 74.2527C9.98774 68.7532 13.7288 69.3591 13.7288 59.6188V47.8988C13.7288 52.1336 11.6381 59.5103 5.92997 64.3752C0.0337934 69.4003 -0.23821 75.1559 0.0915282 77.8122C0.613488 82.0173 5.06455 84.3028 11.3188 84.3028H38.2494Z" fill="#ECBC2A"/>
</svg>
