<svg width="27" height="40" viewBox="0 0 27 40" fill="none" xmlns="http://www.w3.org/2000/svg">
<g clip-path="url(#clip0_355_2584)">
<path d="M13.3359 20C13.3359 16.3182 16.3207 13.3333 20.0026 13.3333C23.6844 13.3333 26.6693 16.3182 26.6693 20C26.6693 23.6819 23.6844 26.6667 20.0026 26.6667C16.3207 26.6667 13.3359 23.6819 13.3359 20Z" fill="#1ABCFE"/>
<path d="M0.00268555 33.3333C0.00268555 29.6515 2.98742 26.6667 6.66935 26.6667H13.336V33.3333C13.336 37.0153 10.3513 40 6.66935 40C2.98742 40 0.00268555 37.0153 0.00268555 33.3333Z" fill="#0ACF83"/>
<path d="M13.3359 9.15527e-05V13.3333H20.0026C23.6845 13.3333 26.6693 10.3486 26.6693 6.66667C26.6693 2.98474 23.6845 9.15527e-05 20.0026 9.15527e-05H13.3359Z" fill="#FF7262"/>
<path d="M0.00268555 6.66667C0.00268555 10.3486 2.98742 13.3333 6.66935 13.3333H13.336V0H6.66935C2.98742 0 0.00268555 2.98483 0.00268555 6.66667Z" fill="#F24E1E"/>
<path d="M0.00268555 20C0.00268555 23.6819 2.98742 26.6667 6.66935 26.6667H13.336V13.3333H6.66935C2.98742 13.3333 0.00268555 16.3182 0.00268555 20Z" fill="#A259FF"/>
</g>
<defs>
<clipPath id="clip0_355_2584">
<rect width="26.672" height="40" fill="white"/>
</clipPath>
</defs>
</svg>
