<svg width="40" height="40" viewBox="0 0 40 40" fill="none" xmlns="http://www.w3.org/2000/svg">
<path d="M21.9519 15C23.7999 15 24.9062 15.6158 25.8162 16.5117L24.4441 18.0938C23.6882 17.4078 22.9181 16.9883 21.9382 16.9883C20.2862 16.9883 19.0964 18.36 19.0964 20.04V20.0684C19.0966 21.7482 20.2584 23.1484 21.9382 23.1484C23.0581 23.1484 23.7444 22.7 24.5144 22L25.8865 23.3857C24.8785 24.4637 23.7579 25.1357 21.8679 25.1357C18.984 25.1357 16.8425 22.9097 16.8425 20.0957V20.0684C16.8425 17.2824 18.942 15.0001 21.9519 15ZM10.0222 19.3115L12.5974 15.168H14.9216V24.9678H12.78V18.5703L10.0222 22.7559H9.96558L7.23608 18.6123V24.9678H5.12183V15.168H7.44604L10.0222 19.3115ZM31.616 15.168C33.9538 15.168 35.3678 16.5538 35.3679 18.5557V18.584C35.3679 20.852 33.604 22.0283 31.406 22.0283H29.7683V24.9678H27.6121V15.168H31.616ZM29.7683 20.1104H31.4763C32.5542 20.1102 33.1843 19.4659 33.1843 18.626V18.5977C33.1842 17.632 32.512 17.1143 31.4343 17.1143H29.7683V20.1104Z" fill="white"/>
</svg>
