<svg width="40" height="40" viewBox="0 0 40 40" fill="none" xmlns="http://www.w3.org/2000/svg">
<g clip-path="url(#clip0_391_3029)">
<path d="M37.1365 16.3685C37.5837 15.0216 37.7384 13.5948 37.5902 12.1834C37.442 10.772 36.9943 9.4084 36.277 8.18382C35.2136 6.33286 33.5899 4.86742 31.64 3.99875C29.69 3.13009 27.5146 2.90309 25.4273 3.35049C24.2415 2.03143 22.7295 1.04761 21.0431 0.497843C19.3567 -0.0519223 17.5554 -0.148278 15.82 0.218454C14.0846 0.585186 12.4762 1.40209 11.1564 2.58713C9.83666 3.77216 8.85193 5.28361 8.30116 6.96966C6.9106 7.2548 5.59692 7.83347 4.44792 8.66698C3.29891 9.50049 2.34104 10.5696 1.63832 11.803C0.563382 13.6509 0.103959 15.7927 0.326476 17.9189C0.548992 20.0451 1.44192 22.0454 2.87616 23.6307C2.42727 24.9769 2.27103 26.4034 2.41791 27.8149C2.56478 29.2264 3.01138 30.5902 3.72782 31.8152C4.79256 33.6668 6.41769 35.1326 8.36901 36.0012C10.3203 36.8699 12.4971 37.0966 14.5855 36.6487C15.5276 37.7096 16.6852 38.5573 17.981 39.1352C19.2768 39.7131 20.681 40.008 22.0998 40C24.2392 40.002 26.3239 39.3241 28.0529 38.0641C29.782 36.8042 31.0659 35.0274 31.7195 32.9903C33.1099 32.7047 34.4234 32.1258 35.5723 31.2923C36.7213 30.4588 37.6792 29.3899 38.3823 28.1568C39.4446 26.3117 39.8961 24.1779 39.6723 22.0606C39.4485 19.9433 38.561 17.9508 37.1365 16.3685ZM22.0998 37.382C20.3477 37.3848 18.6505 36.7706 17.3058 35.6473L17.5423 35.5133L25.5062 30.9163C25.7044 30.8001 25.8689 30.6343 25.9837 30.4352C26.0984 30.2361 26.1594 30.0106 26.1607 29.7808V18.5527L29.5273 20.5003C29.544 20.5088 29.5584 20.521 29.5694 20.5361C29.5804 20.5511 29.5877 20.5686 29.5907 20.587V29.8913C29.5864 31.8767 28.7959 33.7795 27.392 35.1834C25.9881 36.5873 24.0852 37.3778 22.0998 37.382ZM5.99866 30.5063C5.11994 28.989 4.80444 27.2104 5.10766 25.4835L5.34432 25.6255L13.316 30.2225C13.5132 30.3382 13.7378 30.3992 13.9665 30.3992C14.1952 30.3992 14.4197 30.3382 14.617 30.2225L24.355 24.6083V28.4957C24.3541 28.5158 24.3486 28.5355 24.339 28.5532C24.3295 28.571 24.316 28.5863 24.2997 28.5982L16.2333 33.2503C14.5119 34.242 12.4672 34.51 10.5483 33.9956C8.62944 33.4811 6.99313 32.2262 5.99866 30.5063ZM3.90132 13.1593C4.78613 11.6323 6.18271 10.4675 7.84382 9.87132V19.3333C7.84083 19.5619 7.89923 19.7871 8.01295 19.9854C8.12667 20.1838 8.29153 20.3479 8.49032 20.4608L18.181 26.0513L14.8142 27.9988C14.7959 28.0085 14.7756 28.0136 14.755 28.0136C14.7344 28.0136 14.714 28.0085 14.6958 27.9988L6.64532 23.3547C4.92709 22.3587 3.67357 20.7224 3.15927 18.8041C2.64496 16.8858 2.91179 14.8419 3.90132 13.12V13.1593ZM31.5618 19.5857L21.8397 13.94L25.1987 12C25.2169 11.9903 25.2372 11.9853 25.2578 11.9853C25.2785 11.9853 25.2988 11.9903 25.317 12L33.3675 16.6522C34.5984 17.3624 35.6019 18.4082 36.2608 19.6673C36.9196 20.9265 37.2067 22.3471 37.0885 23.7633C36.9703 25.1795 36.4516 26.5329 35.5931 27.6654C34.7346 28.7979 33.5716 29.6628 32.24 30.1592V20.6972C32.233 20.4689 32.1668 20.2465 32.0479 20.0516C31.929 19.8567 31.7616 19.6962 31.5618 19.5857ZM34.913 14.5472L34.6763 14.4052L26.7205 9.76882C26.522 9.65236 26.2961 9.59096 26.066 9.59096C25.8359 9.59096 25.6099 9.65236 25.4115 9.76882L15.6817 15.3828V11.4957C15.6796 11.4759 15.6829 11.4559 15.6912 11.4379C15.6996 11.4199 15.7126 11.4044 15.729 11.3932L23.7795 6.74882C25.0133 6.03802 26.4241 5.69322 27.8467 5.75475C29.2693 5.81628 30.645 6.28161 31.8129 7.09629C32.9808 7.91098 33.8925 9.04135 34.4415 10.3552C34.9906 11.6691 35.1541 13.1121 34.9132 14.5155L34.913 14.5472ZM13.8442 21.4383L10.4775 19.4987C10.4606 19.4885 10.4462 19.4748 10.4353 19.4585C10.4244 19.4421 10.4171 19.4236 10.4142 19.4042V10.1237C10.416 8.69994 10.8231 7.30618 11.5879 6.10532C12.3527 4.90446 13.4435 3.94613 14.7329 3.34239C16.0223 2.73864 17.4568 2.51442 18.8689 2.69595C20.281 2.87748 21.6123 3.45726 22.707 4.36749L22.4703 4.50166L14.5067 9.09832C14.3084 9.21457 14.1439 9.38038 14.0291 9.57946C13.9144 9.77854 13.8534 10.004 13.8522 10.2338L13.8442 21.4383ZM15.6735 17.496L20.0102 14.9963L24.355 17.496V22.495L20.026 24.9945L15.6815 22.495L15.6735 17.496Z" fill="white"/>
</g>
<defs>
<clipPath id="clip0_391_3029">
<rect width="40" height="40" fill="white"/>
</clipPath>
</defs>
</svg>
