<svg width="32" height="40" viewBox="0 0 32 40" fill="none" xmlns="http://www.w3.org/2000/svg">
<path d="M3.12268 38.6617L1.33829 2.08179H0L1.33829 38.6617H3.12268Z" fill="#B57EE5"/>
<path d="M3.86617 38.6617L2.08179 2.08178L31.2268 0V40L3.86617 38.6617Z" fill="#F1618C"/>
<path d="M23.7917 5.35315L24.1635 0.371739L27.6579 0.0743408V5.35315L25.9006 3.76356L23.7917 5.35315Z" fill="white"/>
<path d="M19.1287 15.655L24.8744 15.5123C25.0172 9.94498 22.1265 7.19702 17.0945 7.19702C12.0625 7.19702 9.24322 10.052 9.24322 14.3346C9.24322 21.7933 18.8789 21.9361 18.8789 26.0045C18.8789 27.1465 18.3436 27.8245 17.1659 27.8245C15.6313 27.8245 15.0246 26.8253 15.096 24.0416H9.06478C8.60084 30.9294 12.6336 32.4996 17.2373 32.4996C21.6982 32.4996 25.1956 30.4297 25.1956 25.9331C25.1956 17.939 15.4172 18.1532 15.4172 14.1918C15.4172 12.5859 16.5592 12.3717 17.2373 12.3717C17.951 12.3717 19.2358 12.6572 19.1287 15.655Z" fill="white"/>
</svg>
