<svg width="220" height="148" viewBox="0 0 220 148" fill="none" xmlns="http://www.w3.org/2000/svg">
<path d="M27.9848 10.1525V8.34753H27.3598V9.60253L24.1098 6.74253L22.8548 7.84253L22.8898 7.80753L19.8048 4.96753L11.5848 11.5825V13.9925L10.3198 16.1175H11.5848V23.0375H29.6798V11.6425L27.9848 10.1525ZM19.7798 5.79253L22.4248 8.22753L18.4948 11.6825V13.7675H12.2098V11.8875L19.7798 5.79253ZM11.4198 15.4875L12.0748 14.3875H18.4898V15.4875H11.4198ZM16.7098 22.4075H13.9898V17.2575H16.7098V22.4075ZM17.3348 22.4075V16.6325H13.3648V22.4075H12.2098V16.1125H18.4898V22.4075H17.3348ZM29.0548 22.4075H19.1148V11.9625L24.1098 7.57253L29.0548 11.9225V22.4075Z" fill="#E4E4E4"/>
<path d="M20.1698 16.1125H23.4898V12.1675H20.1698V16.1125ZM20.7948 12.7925H22.8648V15.4875H20.7948V12.7925Z" fill="#E4E4E4"/>
<path d="M27.9998 12.1675H24.6798V16.1125H27.9998V12.1675ZM27.3748 15.4875H25.3048V12.7925H27.3748V15.4875Z" fill="#E4E4E4"/>
<path d="M20.1698 21.2825H23.4898V17.3375H20.1698V21.2825ZM20.7948 17.9625H22.8648V20.6575H20.7948V17.9625Z" fill="#E4E4E4"/>
<path d="M27.9998 17.3375H24.6798V21.2825H27.9998V17.3375ZM27.3748 20.6575H25.3048V17.9625H27.3748V20.6575Z" fill="#E4E4E4"/>
<path d="M56.156 22.8902V18.9932H57.263V18.4307H56.156V15.9332H57.263V15.3707H56.156V12.8732H57.263V12.3107H56.156V9.81324H57.263V9.25074H56.156V7.20324H57.083V5.54724H42.917V7.20324H43.844V9.24624H42.737V9.80874H43.844V12.3062H42.737V12.8687H43.844V15.3662H42.737V15.9287H43.844V18.4262H42.737V18.9887H43.844V22.8857H41.009V23.4482H58.991V22.8857H56.156V22.8902ZM43.4795 6.64074V6.10974H56.5205V6.64074H43.4795ZM55.589 7.20324V22.8857H52.232V19.7312H47.759V22.8857H44.402V7.20324H55.589ZM49.7165 22.8857H48.3215V20.2937H49.7165V22.8857ZM51.674 22.8857H50.279V20.2937H51.674V22.8857Z" fill="#E4E4E4"/>
<path d="M52.8395 19.0022H54.4325V17.1212H50.6885V19.0022H52.844H52.8395ZM52.8395 17.6837H53.87V18.4397H52.8395V17.6837ZM51.2465 18.4397V17.6837H52.277V18.4397H51.2465Z" fill="#E4E4E4"/>
<path d="M52.88 15.9422H54.473V14.0612H50.729V15.9422H52.8845H52.88ZM52.88 14.6237H53.9105V15.3797H52.88V14.6237ZM51.287 15.3797V14.6237H52.3175V15.3797H51.287Z" fill="#E4E4E4"/>
<path d="M52.88 12.8822H54.473V11.0012H50.729V12.8822H52.8845H52.88ZM52.88 11.5637H53.9105V12.3197H52.88V11.5637ZM51.287 12.3197V11.5637H52.3175V12.3197H51.287Z" fill="#E4E4E4"/>
<path d="M52.88 9.82225H54.473V7.94125H50.729V9.82225H52.8845H52.88ZM52.88 8.50375H53.9105V9.25975H52.88V8.50375ZM51.287 9.25975V8.50375H52.3175V9.25975H51.287Z" fill="#E4E4E4"/>
<path d="M49.2755 18.9977V17.1167H45.5315V18.9977H49.2755ZM47.12 18.4352H46.0895V17.6792H47.12V18.4352ZM47.6825 17.6792H48.713V18.4352H47.6825V17.6792Z" fill="#E4E4E4"/>
<path d="M47.723 15.9332H49.316V14.0522H45.572V15.9332H47.7275H47.723ZM47.723 14.6147H48.7535V15.3707H47.723V14.6147ZM46.13 15.3707V14.6147H47.1605V15.3707H46.13Z" fill="#E4E4E4"/>
<path d="M47.723 12.8732H49.316V10.9922H45.572V12.8732H47.7275H47.723ZM47.723 11.5547H48.7535V12.3107H47.723V11.5547ZM46.13 12.3107V11.5547H47.1605V12.3107H46.13Z" fill="#E4E4E4"/>
<path d="M47.723 9.81324H49.316V7.93224H45.572V9.81324H47.7275H47.723ZM47.723 8.49474H48.7535V9.25074H47.723V8.49474ZM46.13 9.25074V8.49474H47.1605V9.25074H46.13Z" fill="#E4E4E4"/>
<path d="M84.7295 22.8902V5.54724H75.2975V22.8902H71.009V23.4527H88.991V22.8902H84.7295ZM79.7345 22.8902H78.3395V20.0417H79.7345V22.8902ZM81.692 22.8902H80.297V20.0417H81.692V22.8902ZM84.1715 22.8902H82.2545V19.4792H77.7815V22.8902H75.8645V6.10974H84.1715V22.8902Z" fill="#E4E4E4"/>
<path d="M78.3845 16.2392H76.5305V18.1202H78.3845V16.2392ZM77.822 17.5577H77.093V16.8017H77.822V17.5577Z" fill="#E4E4E4"/>
<path d="M80.9856 16.2392H79.1316V18.1202H80.9856V16.2392ZM80.4231 17.5577H79.6941V16.8017H80.4231V17.5577Z" fill="#E4E4E4"/>
<path d="M83.5279 16.2392H81.674V18.1202H83.5279V16.2392ZM82.9654 17.5577H82.2365V16.8017H82.9654V17.5577Z" fill="#E4E4E4"/>
<path d="M78.416 13.1792H76.562V15.0602H78.416V13.1792ZM77.8535 14.4977H77.1245V13.7417H77.8535V14.4977Z" fill="#E4E4E4"/>
<path d="M81.017 13.1792H79.163V15.0602H81.017V13.1792ZM80.4545 14.4977H79.7255V13.7417H80.4545V14.4977Z" fill="#E4E4E4"/>
<path d="M83.555 13.1792H81.701V15.0602H83.555V13.1792ZM82.9925 14.4977H82.2635V13.7417H82.9925V14.4977Z" fill="#E4E4E4"/>
<path d="M78.416 10.1192H76.562V12.0002H78.416V10.1192ZM77.8535 11.4377H77.1245V10.6817H77.8535V11.4377Z" fill="#E4E4E4"/>
<path d="M81.017 10.1192H79.163V12.0002H81.017V10.1192ZM80.4545 11.4377H79.7255V10.6817H80.4545V11.4377Z" fill="#E4E4E4"/>
<path d="M83.555 10.1192H81.701V12.0002H83.555V10.1192ZM82.9925 11.4377H82.2635V10.6817H82.9925V11.4377Z" fill="#E4E4E4"/>
<path d="M78.416 7.05923H76.562V8.94023H78.416V7.05923ZM77.8535 8.37773H77.1245V7.62173H77.8535V8.37773Z" fill="#E4E4E4"/>
<path d="M81.017 7.05923H79.163V8.94023H81.017V7.05923ZM80.4545 8.37773H79.7255V7.62173H80.4545V8.37773Z" fill="#E4E4E4"/>
<path d="M83.555 7.05923H81.701V8.94023H83.555V7.05923ZM82.9925 8.37773H82.2635V7.62173H82.9925V8.37773Z" fill="#E4E4E4"/>
<path d="M104.803 13.34H101.378V13.965H104.803V13.34Z" fill="#E4E4E4"/>
<path d="M104.803 17.21H102.013V17.835H104.803V17.21Z" fill="#E4E4E4"/>
<path d="M104.798 15.275H99.8225V15.9H104.798V15.275Z" fill="#E4E4E4"/>
<path d="M104.798 19.16H103.093V19.785H104.798V19.16Z" fill="#E4E4E4"/>
<path d="M112.253 6.12L104.828 11.41V21.88H119.673V11.41L112.253 6.12ZM119.053 21.255H105.453V11.73L112.253 6.89L119.053 11.735V21.26V21.255Z" fill="#E4E4E4"/>
<path d="M130.672 17.8225V22.855H138.207V17.8225L134.44 15.0725L130.672 17.8225ZM137.52 22.1675H131.36V18.169L134.44 15.9195L137.52 18.169V22.1675Z" fill="#E4E4E4"/>
<path d="M141.232 7.93352H138.801V8.62102H141.232V7.93352Z" fill="#E4E4E4"/>
<path d="M141.502 19.6815H139.038V20.369H141.502V19.6815Z" fill="#E4E4E4"/>
<path d="M146.094 12.8505H145.407V14.891H146.094V12.8505Z" fill="#E4E4E4"/>
<path d="M134.605 12.8505H133.917V14.4345H134.605V12.8505Z" fill="#E4E4E4"/>
<path d="M134.258 12.086C136.172 12.086 137.729 10.5295 137.729 8.61553C137.729 6.70153 136.172 5.13953 134.258 5.13953C132.344 5.13953 130.782 6.69603 130.782 8.61553C130.782 10.535 132.339 12.086 134.253 12.086H134.258ZM134.258 5.82703C135.793 5.82703 137.041 7.07553 137.041 8.61553C137.041 10.1555 135.793 11.3985 134.258 11.3985C132.724 11.3985 131.47 10.15 131.47 8.61553C131.47 7.08103 132.718 5.82703 134.258 5.82703Z" fill="#E4E4E4"/>
<path d="M133.868 10.282H134.649V8.97852H135.963V8.21402H134.649V6.91052H133.868V8.21402H132.548V8.97852H133.868V10.282Z" fill="#E4E4E4"/>
<path d="M145.902 12.086C147.816 12.086 149.378 10.5295 149.378 8.61553C149.378 6.70153 147.821 5.13953 145.902 5.13953C143.982 5.13953 142.431 6.69603 142.431 8.61553C142.431 10.535 143.988 12.086 145.902 12.086ZM145.902 5.82703C147.436 5.82703 148.69 7.07553 148.69 8.61553C148.69 10.1555 147.442 11.3985 145.902 11.3985C144.362 11.3985 143.119 10.15 143.119 8.61553C143.119 7.08103 144.367 5.82703 145.902 5.82703Z" fill="#E4E4E4"/>
<path d="M145.511 10.282H146.292V8.97852H147.612V8.21402H146.292V6.91052H145.511V8.21402H144.197V8.97852H145.511V10.282Z" fill="#E4E4E4"/>
<path d="M145.902 15.6995C143.988 15.6995 142.431 17.256 142.431 19.17C142.431 21.084 143.988 22.646 145.902 22.646C147.816 22.646 149.378 21.0895 149.378 19.17C149.378 17.2505 147.821 15.6995 145.902 15.6995ZM145.902 21.9585C144.367 21.9585 143.119 20.71 143.119 19.17C143.119 17.63 144.367 16.387 145.902 16.387C147.436 16.387 148.69 17.6355 148.69 19.17C148.69 20.7045 147.442 21.9585 145.902 21.9585Z" fill="#E4E4E4"/>
<path d="M146.292 17.4705H145.511V18.774H144.197V19.5385H145.511V20.842H146.292V19.5385H147.612V18.774H146.292V17.4705Z" fill="#E4E4E4"/>
<path d="M167.139 17.2514H165.501V18.9139H167.139V17.2514ZM166.546 18.3201H166.094V17.8451H166.546V18.3201Z" fill="#E4E4E4"/>
<path d="M169.248 17.2514H167.61V18.9139H169.248V17.2514ZM168.655 18.3201H168.203V17.8451H168.655V18.3201Z" fill="#E4E4E4"/>
<path d="M171.31 17.2514H169.671V18.9139H171.31V17.2514ZM170.716 18.3201H170.265V17.8451H170.716V18.3201Z" fill="#E4E4E4"/>
<path d="M167.163 14.7672H165.524V16.4297H167.163V14.7672ZM166.569 15.8359H166.118V15.3609H166.569V15.8359Z" fill="#E4E4E4"/>
<path d="M169.272 14.7672H167.633V16.4297H169.272V14.7672ZM168.678 15.8359H168.227V15.3609H168.678V15.8359Z" fill="#E4E4E4"/>
<path d="M171.334 14.7672H169.695V16.4297H171.334V14.7672ZM170.74 15.8359H170.289V15.3609H170.74V15.8359Z" fill="#E4E4E4"/>
<path d="M167.163 12.2877H165.524V13.9502H167.163V12.2877ZM166.569 13.3564H166.118V12.8814H166.569V13.3564Z" fill="#E4E4E4"/>
<path d="M169.272 12.2877H167.633V13.9502H169.272V12.2877ZM168.678 13.3564H168.227V12.8814H168.678V13.3564Z" fill="#E4E4E4"/>
<path d="M171.334 12.2877H169.695V13.9502H171.334V12.2877ZM170.74 13.3564H170.289V12.8814H170.74V13.3564Z" fill="#E4E4E4"/>
<path d="M167.163 9.80339H165.524V11.4659H167.163V9.80339ZM166.569 10.8721H166.118V10.3971H166.569V10.8721Z" fill="#E4E4E4"/>
<path d="M169.272 9.80339H167.633V11.4659H169.272V9.80339ZM168.678 10.8721H168.227V10.3971H168.678V10.8721Z" fill="#E4E4E4"/>
<path d="M171.334 9.80339H169.695V11.4659H171.334V9.80339ZM170.74 10.8721H170.289V10.3971H170.74V10.8721Z" fill="#E4E4E4"/>
<path d="M174.407 19.6739H172.768V21.3364H174.407V19.6739ZM173.813 20.7426H173.362V20.2676H173.813V20.7426Z" fill="#E4E4E4"/>
<path d="M176.516 19.6739H174.877V21.3364H176.516V19.6739ZM175.922 20.7426H175.471V20.2676H175.922V20.7426Z" fill="#E4E4E4"/>
<path d="M174.431 17.1944H172.792V18.8569H174.431V17.1944ZM173.837 18.2631H173.386V17.7881H173.837V18.2631Z" fill="#E4E4E4"/>
<path d="M176.54 17.1944H174.901V18.8569H176.54V17.1944ZM175.946 18.2631H175.495V17.7881H175.946V18.2631Z" fill="#E4E4E4"/>
<path d="M174.431 14.7102H172.792V16.3727H174.431V14.7102ZM173.837 15.7789H173.386V15.3039H173.837V15.7789Z" fill="#E4E4E4"/>
<path d="M176.54 14.7102H174.901V16.3727H176.54V14.7102ZM175.946 15.7789H175.495V15.3039H175.946V15.7789Z" fill="#E4E4E4"/>
<path d="M174.431 12.2259H172.792V13.8884H174.431V12.2259ZM173.837 13.2946H173.386V12.8196H173.837V13.2946Z" fill="#E4E4E4"/>
<path d="M176.54 12.2259H174.901V13.8884H176.54V12.2259ZM175.946 13.2946H175.495V12.8196H175.946V13.2946Z" fill="#E4E4E4"/>
<path d="M177.675 22.8706V11.1191L172.284 8.23114V4.53564L164.494 8.69189V22.8706H162.408V20.7949C163.268 20.6239 163.924 19.7451 163.924 18.6764C163.924 17.9971 163.316 14.6579 162.109 14.6579C160.903 14.6579 160.299 17.9971 160.299 18.6764C160.299 19.7451 160.96 20.6239 161.815 20.7949V22.8706H160.86V23.4644H178.701V22.8706H177.675ZM161.815 20.1821C161.292 20.0064 160.893 19.3889 160.893 18.6764C160.893 17.3131 161.758 15.2516 162.114 15.2516C162.47 15.2516 163.335 17.3131 163.335 18.6764C163.335 19.4031 162.94 20.0111 162.413 20.1821V18.0351H161.819V20.1821H161.815ZM168.094 22.8706H167.101V20.4719H168.094V22.8706ZM169.681 22.8706H168.688V20.4719H169.681V22.8706ZM171.695 22.8706H170.274V19.8781H166.508V22.8706H165.087V9.04814L171.69 5.52364V22.8706H171.695ZM177.086 22.8706H172.288V8.90089L177.086 11.4706V22.8706Z" fill="#E4E4E4"/>
<g opacity="0.12">
<path d="M172.136 8.49707L177.508 11.4088V23.4216H172.084" fill="#E4E4E4"/>
<path d="M160.542 18.6621C160.542 17.8261 161.221 14.9381 162.057 14.9381C162.893 14.9381 163.572 17.8213 163.572 18.6621C163.572 19.6881 162.893 20.5193 162.057 20.5193C161.221 20.5193 160.542 19.6738 160.542 18.6621Z" fill="#E4E4E4"/>
</g>
<path d="M207.805 17.4325V9.14251L206.33 8.09251V6.14251H205.705V7.64751L201.575 4.70251L195.34 9.14251V17.4325H192.99V14.8825C193.835 14.7075 194.48 13.8325 194.48 12.7825C194.48 12.1125 193.875 8.80751 192.675 8.80751C191.475 8.80751 190.87 12.1125 190.87 12.7825C190.87 13.8325 191.515 14.7075 192.36 14.8825V17.4325H190.87V18.0575H209.13V17.4325H207.805ZM191.495 12.7825C191.495 11.7425 192.245 9.43251 192.675 9.43251C193.105 9.43251 193.855 11.7425 193.855 12.7825C193.855 13.4775 193.485 14.0575 192.99 14.2375V12.6925H192.365V14.2375C191.875 14.0575 191.5 13.4675 191.5 12.7875L191.495 12.7825ZM202.42 17.3175H200.87V13.4125H202.42V17.3175ZM195.965 9.46751L201.575 5.47251L207.185 9.46751V17.3175H203.05V12.7875H200.25V17.3175H195.97V9.46751H195.965Z" fill="#E4E4E4"/>
<path d="M205.875 20.0425C205.21 20.0425 204.895 19.8925 204.535 19.7125C204.16 19.5275 203.73 19.3225 202.92 19.3225C202.11 19.3225 201.685 19.5325 201.305 19.7125C200.945 19.8875 200.63 20.0425 199.965 20.0425C199.3 20.0425 198.985 19.8925 198.625 19.7125C198.25 19.5275 197.82 19.3225 197.015 19.3225C196.21 19.3225 195.78 19.5325 195.4 19.7125C195.04 19.8875 194.725 20.0425 194.06 20.0425C193.395 20.0425 193.08 19.8925 192.72 19.7125C192.345 19.5275 191.915 19.3225 191.105 19.3225V19.9475C191.77 19.9475 192.085 20.0975 192.445 20.2775C192.82 20.4625 193.25 20.6675 194.06 20.6675C194.87 20.6675 195.295 20.4575 195.675 20.2775C196.035 20.1025 196.35 19.9475 197.015 19.9475C197.68 19.9475 197.99 20.0975 198.355 20.2775C198.73 20.4625 199.16 20.6675 199.97 20.6675C200.78 20.6675 201.205 20.4575 201.585 20.2775C201.945 20.1025 202.26 19.9475 202.925 19.9475C203.59 19.9475 203.905 20.0975 204.265 20.2775C204.64 20.4625 205.07 20.6675 205.88 20.6675C206.69 20.6675 207.12 20.4575 207.495 20.2775C207.855 20.1025 208.17 19.9475 208.835 19.9475V19.3225C208.025 19.3225 207.595 19.5325 207.22 19.7125C206.86 19.8875 206.545 20.0425 205.88 20.0425H205.875Z" fill="#E4E4E4"/>
<path d="M205.875 22.1725C205.21 22.1725 204.895 22.0225 204.535 21.8425C204.16 21.6575 203.73 21.4525 202.92 21.4525C202.11 21.4525 201.685 21.6625 201.305 21.8425C200.945 22.0175 200.63 22.1725 199.965 22.1725C199.3 22.1725 198.985 22.0225 198.625 21.8425C198.25 21.6575 197.82 21.4525 197.015 21.4525C196.21 21.4525 195.78 21.6625 195.4 21.8425C195.04 22.0175 194.725 22.1725 194.06 22.1725C193.395 22.1725 193.08 22.0225 192.72 21.8425C192.345 21.6575 191.915 21.4525 191.105 21.4525V22.0775C191.77 22.0775 192.085 22.2275 192.445 22.4075C192.82 22.5925 193.245 22.7975 194.055 22.7975C194.865 22.7975 195.29 22.5875 195.67 22.4075C196.03 22.2325 196.345 22.0775 197.01 22.0775C197.675 22.0775 197.985 22.2275 198.35 22.4075C198.725 22.5925 199.155 22.7975 199.965 22.7975C200.775 22.7975 201.2 22.5875 201.58 22.4075C201.94 22.2325 202.255 22.0775 202.92 22.0775C203.585 22.0775 203.9 22.2275 204.26 22.4075C204.635 22.5925 205.065 22.7975 205.875 22.7975C206.685 22.7975 207.115 22.5875 207.49 22.4075C207.85 22.2325 208.165 22.0775 208.83 22.0775V21.4525C208.02 21.4525 207.59 21.6625 207.215 21.8425C206.855 22.0175 206.54 22.1725 205.875 22.1725Z" fill="#E4E4E4"/>
<path d="M19.0475 47.6875H18.4225V49.6875H19.0475V47.6875Z" fill="#E4E4E4"/>
<path d="M22.2175 45.7475H20.7075V46.3725H21.5925V46.8625H22.2175V45.7475Z" fill="#E4E4E4"/>
<path d="M19.0475 46.3725H19.9125V45.7475H18.4225V46.8875H19.0475V46.3725Z" fill="#E4E4E4"/>
<path d="M22.2175 47.6675H21.5925V49.6675H22.2175V47.6675Z" fill="#E4E4E4"/>
<path d="M28.3625 52.1475V50.4825H27.7375V52.1475H22.2175V50.4625H21.5925V52.1475H19.0475V50.4875H18.4225V52.1475H12.4875V50.4825H11.8625V52.1475H10.1125V52.7725H29.8875V52.1475H28.3625Z" fill="#E4E4E4"/>
<path d="M21.8066 36.4407L21.4439 36.9497L23.0524 38.0958L23.4151 37.5868L21.8066 36.4407Z" fill="#E4E4E4"/>
<path d="M28.3625 47.6325H27.7375V49.6075H28.3625V47.6325Z" fill="#E4E4E4"/>
<path d="M28.3625 41.9325H27.7375V43.9075H28.3625V41.9325Z" fill="#E4E4E4"/>
<path d="M26.4486 39.7456L26.0859 40.2546L27.6944 41.4006L28.0571 40.8916L26.4486 39.7456Z" fill="#E4E4E4"/>
<path d="M24.1336 38.0875L23.7709 38.5966L25.3794 39.7426L25.7421 39.2336L24.1336 38.0875Z" fill="#E4E4E4"/>
<path d="M28.3625 44.7825H27.7375V46.7575H28.3625V44.7825Z" fill="#E4E4E4"/>
<path d="M12.4875 44.7825H11.8625V46.7575H12.4875V44.7825Z" fill="#E4E4E4"/>
<path d="M12.4875 47.6325H11.8625V49.6075H12.4875V47.6325Z" fill="#E4E4E4"/>
<path d="M12.4875 41.9325H11.8625V43.9075H12.4875V41.9325Z" fill="#E4E4E4"/>
<path d="M20.1126 35.9975L20.7326 36.4375L21.0976 35.9275L20.1126 35.2275L19.1226 35.9325L19.4876 36.4375L20.1126 35.9975Z" fill="#E4E4E4"/>
<path d="M13.7688 39.7483L12.1608 40.8949L12.5236 41.4038L14.1317 40.2571L13.7688 39.7483Z" fill="#E4E4E4"/>
<path d="M18.4142 36.4365L16.8062 37.5831L17.169 38.092L18.7771 36.9454L18.4142 36.4365Z" fill="#E4E4E4"/>
<path d="M16.091 38.0909L14.483 39.2375L14.8458 39.7464L16.4539 38.5998L16.091 38.0909Z" fill="#E4E4E4"/>
<path d="M25.6976 36.9725H25.0726V39.2825H25.6976V36.9725Z" fill="#E4E4E4"/>
<path d="M46.6133 43.7871H44.8452V40.9542H44.0657V44.5H46.6133V43.7871Z" fill="#E4E4E4"/>
<path d="M46.8415 42.7271V42.7366C46.8415 43.7443 47.6258 44.5571 48.719 44.5571C49.8122 44.5571 50.606 43.73 50.606 42.7224V42.7129C50.606 41.7052 49.8217 40.8924 48.7285 40.8924C47.6353 40.8924 46.8415 41.7195 46.8415 42.7271ZM49.7932 42.7271V42.7366C49.7932 43.345 49.3559 43.8394 48.7285 43.8394C48.1011 43.8394 47.6543 43.3355 47.6543 42.7271V42.7176C47.6543 42.1092 48.0916 41.6149 48.719 41.6149C49.3464 41.6149 49.7932 42.1187 49.7932 42.7271Z" fill="#E4E4E4"/>
<path d="M52.7164 44.5238L53.5149 42.2043L54.3134 44.5238H54.9931L56.2052 40.9542H55.3876L54.6557 43.3546L53.8571 40.9447H53.1917L52.3979 43.3546L51.6612 40.9542H50.8246L52.0367 44.5238H52.7164Z" fill="#E4E4E4"/>
<path d="M46.6799 48.0601H45.2397V46.658H44.4602V50.2038H45.2397V48.7779H46.6799V50.2038H47.4594V46.658H46.6799V48.0601Z" fill="#E4E4E4"/>
<path d="M50.0404 46.5962C48.9472 46.5962 48.1534 47.4232 48.1534 48.4309V48.4404C48.1534 49.448 48.9376 50.2608 50.0309 50.2608C51.1241 50.2608 51.9179 49.4338 51.9179 48.4261V48.4166C51.9179 47.4089 51.1336 46.5962 50.0404 46.5962ZM51.1051 48.4404C51.1051 49.0488 50.6678 49.5431 50.0404 49.5431C49.413 49.5431 48.9662 49.0393 48.9662 48.4309V48.4214C48.9662 47.813 49.4035 47.3186 50.0309 47.3186C50.6583 47.3186 51.1051 47.8225 51.1051 48.4309V48.4404Z" fill="#E4E4E4"/>
<path d="M53.6004 46.6342L52.0794 50.2038H52.8732L53.1964 49.41H54.6936L55.0168 50.2038H55.8296L54.3134 46.6342H53.5957H53.6004ZM53.4768 48.7208L53.9474 47.5706L54.4179 48.7208H53.4768Z" fill="#E4E4E4"/>
<path d="M49.9976 34.3188L41.1045 40.6548V53.1935H58.8954V40.6548L49.9976 34.3188ZM58.2965 52.5994H41.6986V40.9637L49.9976 35.0508L58.2965 40.9637V52.5994Z" fill="#E4E4E4"/>
<path d="M76.6133 43.7871H74.8452V40.9542H74.0657V44.5H76.6133V43.7871Z" fill="#E4E4E4"/>
<path d="M76.8415 42.7271V42.7366C76.8415 43.7443 77.6258 44.5571 78.719 44.5571C79.8122 44.5571 80.606 43.73 80.606 42.7224V42.7129C80.606 41.7052 79.8217 40.8924 78.7285 40.8924C77.6353 40.8924 76.8415 41.7195 76.8415 42.7271ZM79.7932 42.7271V42.7366C79.7932 43.345 79.3559 43.8394 78.7285 43.8394C78.1011 43.8394 77.6543 43.3355 77.6543 42.7271V42.7176C77.6543 42.1092 78.0916 41.6149 78.719 41.6149C79.3464 41.6149 79.7932 42.1187 79.7932 42.7271Z" fill="#E4E4E4"/>
<path d="M82.7164 44.5238L83.5149 42.2043L84.3134 44.5238H84.9931L86.2052 40.9542H85.3876L84.6557 43.3546L83.8571 40.9447H83.1917L82.3979 43.3546L81.6612 40.9542H80.8246L82.0367 44.5238H82.7164Z" fill="#E4E4E4"/>
<path d="M77.4008 46.6599H74.4599V47.3785H75.5401V50.2099H76.3206V47.3785H77.4008V46.6599Z" fill="#E4E4E4"/>
<path d="M85.3453 46.5999H84.4554L83.7036 47.7516L82.9612 46.5999H82.0523L83.2372 48.3416L81.9999 50.1499H82.8851L83.6893 48.9317L84.484 50.1499H85.3929L84.1604 48.3321L85.3453 46.5999Z" fill="#E4E4E4"/>
<path d="M79.3209 46.6342L77.7999 50.2038H78.5937L78.9169 49.41H80.4142L80.7374 50.2038H81.5502L80.0339 46.6342H79.3162H79.3209ZM79.1974 48.7208L79.6679 47.5706L80.1385 48.7208H79.1974Z" fill="#E4E4E4"/>
<path d="M79.9976 34.3188L71.1045 40.6548V53.1935H88.8954V40.6548L79.9976 34.3188ZM88.2965 52.5994H71.6986V40.9637L79.9976 35.0508L88.2965 40.9637V52.5994Z" fill="#E4E4E4"/>
<path d="M101.575 37.6563L113.62 39.7C113.62 39.7 113.272 40.763 113.727 40.821C113.733 40.8221 113.74 40.8221 113.747 40.8221C114.105 40.8221 114.406 39.5836 114.858 39.5468C114.87 39.5457 114.882 39.5452 114.894 39.5452C115.474 39.5452 115.281 40.7668 115.311 41.2147C115.668 41.1908 116.165 40.9834 116.453 40.7289C116.508 40.6802 116.399 40.5296 116.362 40.4387C116.752 39.7179 117.314 39.8489 117.842 39.6497L118.245 38.3164C118.245 38.3164 118.42 38.2953 118.559 38.2699C118.564 38.2688 118.57 38.2682 118.576 38.2682C118.848 38.2682 119.357 39.3269 119.357 39.3269C119.357 39.3269 118.674 39.954 118.513 40.1073C118.353 40.2605 118.337 40.5031 118.454 40.6157C118.547 40.7062 118.789 40.9277 118.805 41.0354C118.253 41.7161 117.398 42.9768 117.398 42.9768C117.077 43.6353 117.271 44.0528 117.271 44.0528C117.363 44.2651 117.461 44.4427 117.461 44.4427L115.878 46.4653C115.873 46.4728 115.6 46.7983 115.696 47.205C115.696 47.205 116.38 48.5517 116.486 48.7353C116.486 48.7353 116.724 49.0814 116.602 49.6689C116.583 49.7588 116.384 49.8189 116.248 49.8227C116.239 49.8043 115.433 48.8274 115.382 48.7835C115.382 48.7835 115.372 48.7093 115.327 48.6454C115.32 48.4987 115.451 48.2458 115.291 48.1088C115.289 48.0898 114.911 47.6783 114.686 47.6783C114.644 47.6783 114.608 47.6923 114.58 47.7259C114.578 47.733 114.469 47.8218 114.392 47.8732C114.392 47.8732 114.31 47.9187 114.23 47.9187C114.212 47.9187 114.194 47.9165 114.177 47.9106L113.686 47.6431C113.686 47.6431 113.157 47.694 112.842 47.792C112.406 47.9279 111.805 48.1781 111.743 48.2025C111.702 48.2187 111.661 48.2252 111.619 48.2252C111.485 48.2252 111.349 48.157 111.208 48.1299L111.004 48.1857C110.852 48.2317 109.564 49.1003 109.564 49.1003C109.55 49.2384 109.504 49.6402 109.504 49.6402C109.541 49.7805 109.562 49.8747 109.63 50.0019L109.559 50.1357L108.82 49.8427L108.607 49.2151C108.398 48.7267 108.126 48.3243 107.871 48.1202C107.871 48.1202 107.677 48.0871 107.567 48.0785C107.562 48.0779 107.557 48.0779 107.551 48.0779C107.372 48.0779 107.357 48.347 107.182 48.4754C106.827 48.3508 106.57 48.0525 106.523 47.6555C106.369 47.5418 106.064 47.0095 105.4 46.9348C105.394 46.9954 105.392 47.0447 105.382 47.1579C103.974 47.1091 103.752 46.3873 103.27 46.2091C102.751 46.0174 102.361 45.9503 102.361 45.9503C102.361 45.9503 101.278 44.1952 101.083 43.7858C100.857 43.3087 100.817 42.8961 100.817 42.8961C100.817 42.8961 100.751 41.9067 100.644 41.7037C100.731 41.3338 101.315 39.8072 101.459 39.2917C101.603 38.7762 101.575 37.6563 101.575 37.6563ZM101.575 37C101.421 37 101.271 37.0563 101.154 37.1608C101.009 37.2892 100.928 37.4765 100.932 37.672C100.942 38.0673 100.925 38.8087 100.84 39.1136C100.776 39.3426 100.596 39.8489 100.437 40.2952C100.209 40.9369 100.067 41.3414 100.018 41.5509C99.9839 41.695 99.9988 41.8466 100.059 41.9804C100.095 42.1076 100.148 42.5473 100.175 42.9416C100.182 43.0158 100.235 43.5069 100.504 44.0728C100.708 44.5028 101.704 46.1181 101.817 46.3012C101.914 46.4593 102.073 46.5671 102.253 46.5979C102.255 46.5985 102.6 46.6602 103.051 46.827C103.093 46.8422 103.192 46.9288 103.272 46.9981C103.629 47.3068 104.167 47.773 105.36 47.8142C105.367 47.8142 105.375 47.8147 105.382 47.8147C105.491 47.8147 105.594 47.7871 105.684 47.7378C105.774 47.8072 105.849 47.8905 105.919 47.9691C105.924 47.9745 105.929 47.9799 105.934 47.9848C106.076 48.5008 106.458 48.9156 106.973 49.0965C107.041 49.1203 107.112 49.1323 107.182 49.1323C107.315 49.1323 107.446 49.09 107.557 49.0088C107.61 48.9703 107.655 48.9286 107.695 48.8869C107.795 49.0272 107.905 49.2173 108.009 49.4561L108.214 50.0593C108.276 50.2413 108.413 50.3864 108.588 50.4557L109.327 50.7487C109.403 50.779 109.482 50.7931 109.559 50.7931C109.789 50.7931 110.009 50.6669 110.124 50.4498L110.195 50.316C110.299 50.1205 110.299 49.885 110.195 49.69C110.18 49.6608 110.171 49.6397 110.158 49.5915C110.161 49.5579 110.165 49.52 110.17 49.481C110.605 49.1907 111.056 48.8989 111.213 48.8117C111.319 48.8442 111.458 48.8826 111.62 48.8826C111.744 48.8826 111.864 48.8599 111.977 48.8149L112.023 48.7965C112.452 48.6216 112.791 48.4949 113.031 48.4202C113.17 48.3768 113.394 48.3411 113.561 48.3189L113.876 48.49C113.909 48.5079 113.943 48.523 113.979 48.535C114.059 48.5615 114.144 48.575 114.231 48.575C114.452 48.575 114.634 48.4873 114.702 48.4494L114.703 48.4489C114.692 48.5149 114.684 48.5902 114.687 48.6741C114.692 48.7754 114.719 48.8739 114.766 48.9622C114.797 49.0721 114.855 49.1723 114.935 49.2525C115.038 49.3662 115.65 50.1059 115.736 50.2158C115.856 50.3799 116.046 50.479 116.25 50.479C116.257 50.479 116.263 50.479 116.269 50.479C116.682 50.4671 117.139 50.2537 117.232 49.8054C117.389 49.0483 117.131 48.5442 117.035 48.3915C116.954 48.2463 116.578 47.5131 116.321 47.0079C116.329 46.957 116.362 46.8996 116.38 46.8763C116.381 46.8747 116.382 46.8736 116.383 46.8719L117.964 44.8526C118.127 44.6436 118.15 44.3539 118.021 44.121C118.021 44.121 117.941 43.9743 117.866 43.8021C117.857 43.7679 117.826 43.5957 117.956 43.3087C118.107 43.0872 118.828 42.0372 119.301 41.454C119.418 41.3094 119.469 41.121 119.441 40.9358C119.41 40.7316 119.304 40.5648 119.154 40.3986C119.411 40.1603 119.787 39.8148 119.787 39.8148C120.001 39.6188 120.061 39.3015 119.935 39.0383C119.249 37.6125 118.796 37.6125 118.577 37.6125C118.539 37.6125 118.483 37.6173 118.445 37.6244C118.326 37.646 118.175 37.6644 118.17 37.665C117.918 37.6953 117.707 37.8751 117.632 38.1231L117.334 39.1092C117.316 39.113 117.298 39.1168 117.279 39.1206C116.898 39.1975 116.341 39.3096 115.922 39.9226C115.876 39.6448 115.78 39.3854 115.591 39.1867C115.408 38.995 115.161 38.8894 114.894 38.8894C114.866 38.8894 114.837 38.8905 114.807 38.8932C114.513 38.917 114.29 39.0708 114.109 39.2738C114.012 39.1574 113.877 39.0784 113.727 39.0529L101.681 37.0092C101.645 37.0032 101.61 37 101.575 37Z" fill="#E4E4E4"/>
<path d="M138.083 51.8636L130 45.0016L133.152 41.8466L137.607 45.6277L146.462 35.5L150 38.4389L138.083 51.8636ZM131.155 44.9565L138.002 50.7688L148.876 38.5194L146.554 36.5916L137.694 46.7258L133.199 42.9108L131.155 44.9565Z" fill="#E4E4E4"/>
<path d="M175.382 38.5489H161.733V39.2438H175.382V38.5489Z" fill="#E4E4E4"/>
<path d="M176.998 50.1628H160.5L161.445 38.7506L162.088 38.8018L161.2 49.53H176.998C178.299 49.53 178.855 48.9949 178.855 47.7402H179.5C179.5 49.3476 178.659 50.1628 176.998 50.1628Z" fill="#E4E4E4"/>
<path d="M178.857 47.9628C178.842 47.8432 178.669 46.7782 177.27 46.7594C177.259 46.7594 177.247 46.7594 177.235 46.7594C175.978 46.7594 175.772 47.6801 175.753 47.7862L175.112 47.7324L175.114 38.8217C175.183 38.1914 175.723 37 177.275 37C178.818 37 179.403 38.1836 179.497 38.8096L179.5 47.9294L178.857 47.9628ZM177.236 46.1266C177.25 46.1266 177.264 46.1266 177.279 46.1266C178.001 46.1365 178.508 46.3732 178.855 46.6857V38.8551C178.851 38.8509 178.64 37.6323 177.275 37.6323C175.987 37.6323 175.783 38.69 175.758 38.875V46.6131C176.091 46.3345 176.57 46.1266 177.236 46.1266Z" fill="#E4E4E4"/>
<path d="M199.957 48.334C196.909 48.334 193.168 47.568 191.917 46.1049L191.841 46.0157V45.9005C191.841 42.0259 194.857 39.0556 199.178 38.677L199.238 39.3173C195.32 39.6607 192.57 42.3108 192.508 45.7815C193.698 47.0225 197.198 47.6909 199.957 47.6909C202.652 47.6909 205.964 47.0952 207.406 45.7682C207.345 42.3257 204.884 39.8348 200.951 39.2529L201.053 38.6175C205.319 39.249 208.074 42.1074 208.074 45.9005V46.03L207.981 46.1231C206.458 47.6507 202.853 48.334 199.957 48.334Z" fill="#E4E4E4"/>
<path d="M200.173 51.317L199.827 51.3148C193.436 51.2388 190.551 49.0675 190.175 48.5231C189.855 48.0624 190.033 47.3608 190.239 46.8533C190.309 46.6808 190.439 46.5326 190.605 46.4367L192.254 45.4789L192.436 45.7016C192.451 45.7197 194.19 47.7014 200.121 47.7014C205.748 47.7014 207.553 45.7148 207.57 45.6944L207.754 45.485L209.393 46.435C209.56 46.532 209.691 46.6808 209.762 46.855C209.967 47.3619 210.144 48.0624 209.826 48.5231C209.449 49.0681 206.562 51.2388 200.173 51.3148L200.173 51.317ZM192.119 46.3077L190.949 46.9878C190.907 47.0115 190.877 47.0467 190.859 47.0886C190.663 47.5736 190.611 47.9973 190.729 48.1676C190.996 48.5539 193.83 50.6359 200 50.6745C206.168 50.6364 209.004 48.5539 209.272 48.1676C209.389 47.9984 209.337 47.5752 209.141 47.0903C209.125 47.0484 209.092 47.0115 209.05 46.9872L207.878 46.3072C207.249 46.8605 205.096 48.3462 200.121 48.3462C194.899 48.3451 192.747 46.8671 192.119 46.3077Z" fill="#E4E4E4"/>
<path d="M200.683 39.1079C200.51 39.1845 200.502 39.2033 200.045 39.2033C199.738 39.2033 199.618 39.1234 199.54 39.0771V38.0912C199.43 38.0829 199.268 38.0725 199.169 38.0614V39.2154L199.216 39.2595C199.243 39.2843 199.491 39.503 200.045 39.503C200.57 39.503 200.661 39.4727 200.897 39.3675L201.05 39.3003V38.0554C200.952 38.0669 200.791 38.0774 200.682 38.0868V39.1079H200.683Z" fill="#E4E4E4"/>
<path d="M200.895 36.6661C200.475 36.5564 199.708 36.5564 199.287 36.6661C198.746 36.8072 198.494 36.9802 198.494 37.2106C198.494 37.415 198.499 37.5611 198.503 37.6503C198.632 37.6779 198.869 37.7225 199.17 37.7583C199.267 37.7699 199.372 37.7804 199.481 37.7892C199.668 37.8041 199.868 37.8146 200.08 37.8146C200.801 37.8146 201.432 37.7005 201.68 37.6492C201.683 37.5594 201.687 37.4134 201.687 37.21C201.688 36.9312 201.257 36.7603 200.895 36.6661Z" fill="#E4E4E4"/>
<path d="M26.3451 74.9175C26.5201 74.6475 26.6601 74.4125 26.7501 74.2225L28.6601 70.2325L24.6551 72.1475C24.3551 72.2925 24.0651 72.4625 23.7851 72.6425C24.0701 72.0675 24.2651 71.4475 24.3501 70.8175L24.7851 67.5825L22.7051 70.1075C22.2851 70.6175 21.9551 71.2075 21.7251 71.8325C21.6551 71.4925 21.5701 71.1575 21.4551 70.8325L19.9801 66.6625L18.5051 70.8475C18.3751 71.2125 18.2801 71.5875 18.2101 71.9675C17.9701 71.3075 17.6401 70.6775 17.2101 70.1375L15.1051 67.4925L15.6751 70.8175C15.7901 71.4775 16.0251 72.1275 16.3401 72.7275C16.0251 72.5125 15.6951 72.3175 15.3451 72.1475L11.3401 70.2325L13.2501 74.2225C13.3651 74.4575 13.4951 74.6875 13.6301 74.9175L10.6951 74.5575L13.3801 77.6675C14.4501 78.9075 15.8701 79.6925 17.3801 79.8775L19.0251 80.0775L18.7901 80.3475L20.0001 80.1975L21.2101 80.3475L20.9751 80.0775L22.6201 79.8775C24.1301 79.6925 25.5501 78.9075 26.6201 77.6675L29.3051 74.5575L26.3451 74.9225V74.9175ZM24.9251 72.7125L27.3301 71.5625L26.1851 73.9525C26.0651 74.2075 25.8351 74.5775 25.5251 75.0175L25.4601 75.0275C23.9601 75.2125 22.5501 75.9925 21.4851 77.2225L20.6601 78.1775L20.8451 77.6525L21.6351 76.0025C22.3201 74.5675 23.4901 73.4025 24.9251 72.7125ZM22.0401 73.1375C22.1701 72.1875 22.5751 71.2525 23.1851 70.5125L23.8751 69.6775L23.7351 70.7375C23.6051 71.6975 23.1951 72.6375 22.5801 73.3825L21.9001 74.2075L22.0451 73.1375H22.0401ZM19.0951 71.0575L19.9801 68.5425L20.8601 71.0425C21.3901 72.5525 21.3901 74.2125 20.8601 75.7225L20.2651 77.4125L20.0001 77.9675L19.6001 77.1275L19.1001 75.7025C18.5701 74.2025 18.5701 72.5525 19.1001 71.0525L19.0951 71.0575ZM16.1351 69.7925L16.7201 70.5275C17.3151 71.2775 17.7351 72.2125 17.8951 73.1575L18.0551 74.0825L17.4751 73.3525C16.8751 72.5975 16.4551 71.6575 16.2901 70.7025L16.1351 69.7875V69.7925ZM13.8151 73.9475L12.6701 71.5575L15.0751 72.7075C16.5101 73.3925 17.6751 74.5625 18.3651 75.9975L19.0201 77.3625L19.2801 78.1025L18.5151 77.2175C17.4501 75.9875 16.0401 75.2075 14.5401 75.0225L14.4451 75.0125C14.2051 74.6775 13.9901 74.3175 13.8151 73.9475ZM13.8551 77.2475L12.2301 75.3675L14.4651 75.6425C15.8101 75.8075 17.0801 76.5125 18.0401 77.6225L19.4051 79.2025L19.2801 79.4675L17.4551 79.2425C16.1001 79.0775 14.8201 78.3675 13.8551 77.2475ZM26.1451 77.2475C25.1751 78.3675 23.8951 79.0775 22.5451 79.2425L20.7201 79.4675L20.5951 79.2025L21.9601 77.6225C22.9251 76.5075 24.1951 75.8025 25.5351 75.6375L27.7701 75.3625L26.1451 77.2425V77.2475Z" fill="#E4E4E4"/>
<path d="M57.5976 75.595C57.7826 74.875 57.8776 74.135 57.8776 73.385C57.8776 68.67 54.1426 64.825 49.4826 64.62V64.6C49.4376 64.6 49.3976 64.61 49.3576 64.615C49.2676 64.615 49.1826 64.6 49.0926 64.6C44.2476 64.6 40.3076 68.54 40.3076 73.385C40.3076 78.23 44.2476 82.17 49.0926 82.17C49.1826 82.17 49.2776 82.16 49.3676 82.16C49.4076 82.16 49.4426 82.17 49.4826 82.17V82.155C50.3826 82.115 51.2626 81.95 52.1026 81.64C52.8626 82.705 54.1026 83.4 55.5076 83.4C57.8126 83.4 59.6926 81.525 59.6926 79.215C59.6926 77.67 58.8476 76.32 57.5976 75.595ZM55.8976 75.05C55.7276 74.755 55.5926 74.435 55.4776 74.105C56.1326 73.825 56.7276 73.515 57.2426 73.185C57.2426 73.25 57.2526 73.315 57.2526 73.385C57.2526 74.04 57.1726 74.69 57.0176 75.32C56.6626 75.18 56.2876 75.09 55.8976 75.055V75.05ZM55.1476 72.16C55.1476 71.03 55.4526 69.95 56.0076 69.08C56.6376 70.085 57.0576 71.235 57.1926 72.465C56.6576 72.84 56.0226 73.19 55.3026 73.505C55.2076 73.07 55.1476 72.625 55.1476 72.16ZM55.6276 68.525C54.9126 69.53 54.5226 70.815 54.5226 72.16C54.5226 72.705 54.5926 73.235 54.7176 73.745C53.2776 74.31 51.5726 74.745 49.7726 74.995C49.7676 74.93 49.7676 74.865 49.7576 74.8C49.5026 72.545 47.9826 70.825 46.2626 70.705C46.5176 69.025 46.9976 67.585 47.6126 66.6C47.9326 66.675 48.2576 66.735 48.5926 66.775C48.9076 66.81 49.2176 66.825 49.5226 66.825C50.7526 66.825 51.8626 66.545 52.6076 66.035C53.8076 66.61 54.8426 67.47 55.6276 68.525ZM46.0576 73.385C46.0576 72.675 46.1026 71.985 46.1776 71.32C47.6226 71.395 48.9126 72.895 49.1326 74.87C49.1426 74.94 49.1426 75.005 49.1476 75.075C48.1176 75.195 47.1126 75.25 46.1526 75.24C46.0926 74.64 46.0576 74.02 46.0576 73.385ZM45.5176 75.225C44.7576 75.195 44.0376 75.13 43.3676 75.02C43.3676 73.2 44.2476 71.705 45.5376 71.375C45.4726 72.02 45.4326 72.685 45.4326 73.38C45.4326 74.015 45.4626 74.63 45.5176 75.22V75.225ZM45.5926 75.85C45.7476 77.05 46.0126 78.135 46.3676 79.055C45.8826 79 45.4376 78.725 45.1276 78.475C44.1826 77.705 43.5326 76.475 43.4076 75.655C44.0926 75.76 44.8226 75.825 45.5876 75.85H45.5926ZM46.2276 75.86C46.2676 75.86 46.3026 75.86 46.3426 75.86C47.2526 75.86 48.1976 75.8 49.1576 75.69C49.0826 77.32 48.2276 78.66 47.0226 78.99C46.6676 78.105 46.3876 77.035 46.2276 75.855V75.86ZM49.3676 65.24C50.2476 65.27 51.0926 65.44 51.8826 65.73C51.0676 66.125 49.8826 66.285 48.6576 66.15C48.4376 66.125 48.2276 66.09 48.0176 66.045C48.4326 65.565 48.8876 65.275 49.3676 65.24ZM47.3526 65.885C47.0926 65.81 46.8376 65.72 46.6026 65.615C47.0026 65.485 47.4176 65.395 47.8376 65.33C47.6676 65.49 47.5076 65.675 47.3526 65.88V65.885ZM45.8176 65.915C46.1726 66.115 46.5576 66.29 46.9826 66.43C46.3426 67.505 45.8576 68.995 45.6126 70.735C43.9576 71.01 42.7826 72.755 42.7426 74.91C42.0976 74.775 41.5126 74.605 40.9976 74.395C40.9576 74.065 40.9276 73.73 40.9276 73.39C40.9326 70.05 42.9476 67.18 45.8226 65.915H45.8176ZM41.1176 75.105C41.6176 75.285 42.1676 75.43 42.7626 75.545C42.7626 75.56 42.7626 75.57 42.7626 75.585C42.8626 76.675 43.7076 78.13 44.7326 78.96C45.3276 79.445 45.9476 79.695 46.5376 79.695C46.5726 79.695 46.6026 79.695 46.6376 79.69C46.9826 80.42 47.3876 81.015 47.8376 81.44C44.4976 80.925 41.8226 78.38 41.1126 75.105H41.1176ZM49.3776 81.53C48.5876 81.47 47.8526 80.74 47.2776 79.57C48.7176 79.12 49.7276 77.525 49.7876 75.625C51.6376 75.37 53.3976 74.925 54.8976 74.34C54.9826 74.585 55.0826 74.815 55.1926 75.045C53.0326 75.205 51.3176 77.01 51.3176 79.215C51.3176 79.89 51.4826 80.525 51.7676 81.09C50.9976 81.36 50.1976 81.505 49.3776 81.535V81.53ZM55.5026 82.77C53.5426 82.77 51.9426 81.175 51.9426 79.21C51.9426 77.245 53.5376 75.65 55.5026 75.65C57.4676 75.65 59.0626 77.245 59.0626 79.21C59.0626 81.175 57.4676 82.77 55.5026 82.77Z" fill="#E4E4E4"/>
<path d="M88.8525 81.5749L88.7525 80.5999C88.7075 80.2249 88.5225 80.0399 88.3725 79.9449C88.0175 79.7249 87.5575 79.8399 87.2925 79.9349L85.1975 80.8649C85.0075 80.9349 84.8475 81.0499 84.7325 81.1949L80.3375 70.8999L82.8375 65.0499L82.2625 64.8049L80.0025 70.1049L77.7375 64.8049L77.1625 65.0499L79.6575 70.8999L75.2675 81.1899C75.1525 81.0499 75.0025 80.9349 74.8225 80.8699L72.6875 79.9249C72.4425 79.8349 71.9875 79.7199 71.6275 79.9399C71.4775 80.0299 71.2925 80.2199 71.2475 80.5949L71.1475 81.5549C71.1075 81.8399 71.1775 82.1099 71.3425 82.3249C71.6725 82.7549 72.2625 82.8549 72.4375 82.8749L74.3275 83.0999C74.3725 83.0999 74.4125 83.1049 74.4575 83.1049C74.8625 83.1049 75.2175 82.8749 75.3625 82.5349L79.9925 71.6849L84.5925 82.4649L84.6225 82.5349C84.7675 82.8699 85.1225 83.0999 85.5275 83.0999C85.5675 83.0999 85.6125 83.0999 85.6575 83.0949L87.5475 82.8699C87.7225 82.8499 88.3125 82.7499 88.6425 82.3199C88.8125 82.0999 88.8775 81.8349 88.8425 81.5599L88.8525 81.5749ZM74.4075 82.4899L72.5175 82.2649C72.2775 82.2349 71.9775 82.1299 71.8425 81.9549C71.7775 81.8699 71.7525 81.7699 71.7725 81.6399L71.8725 80.6699C71.8825 80.5699 71.9125 80.5049 71.9575 80.4749C71.9925 80.4499 72.0525 80.4399 72.1175 80.4399C72.2125 80.4399 72.3325 80.4649 72.4525 80.5049L74.5875 81.4499C74.7675 81.5149 74.8825 81.6699 74.8625 81.8249L74.8125 82.2299C74.7925 82.3899 74.6025 82.5099 74.4025 82.4799L74.4075 82.4899ZM88.1625 81.9549C88.0275 82.1299 87.7275 82.2349 87.4875 82.2649L85.5975 82.4899C85.3975 82.5199 85.2075 82.3999 85.1875 82.2399L85.1375 81.8349C85.1175 81.6799 85.2325 81.5249 85.4325 81.4499L87.5275 80.5199C87.6575 80.4749 87.7825 80.4499 87.8825 80.4499C87.9475 80.4499 88.0025 80.4599 88.0425 80.4849C88.0875 80.5149 88.1175 80.5799 88.1275 80.6749L88.2325 81.6599C88.2475 81.7799 88.2275 81.8799 88.1625 81.9649V81.9549Z" fill="#E4E4E4"/>
<path d="M81.9224 79.3549C81.9224 78.2899 81.0574 77.4249 79.9974 77.4249C78.9374 77.4249 78.0724 78.2899 78.0724 79.3549C78.0724 80.3099 78.7724 81.0999 79.6874 81.2499V83.1899H80.3124V81.2499C81.2274 81.0999 81.9274 80.3099 81.9274 79.3549H81.9224ZM79.9974 80.6549C79.2774 80.6549 78.6974 80.0699 78.6974 79.3549C78.6974 78.6399 79.2824 78.0499 79.9974 78.0499C80.7124 78.0499 81.2974 78.6349 81.2974 79.3549C81.2974 80.0749 80.7124 80.6549 79.9974 80.6549Z" fill="#E4E4E4"/>
<path d="M115.9 77.655C114.345 77.915 113.295 79.395 113.555 80.95C113.79 82.345 115.005 83.335 116.375 83.335C116.53 83.335 116.69 83.32 116.85 83.295C117.605 83.17 118.26 82.755 118.705 82.135C119.15 81.515 119.32 80.755 119.195 80.005C118.935 78.45 117.46 77.395 115.905 77.66L115.9 77.655ZM118.19 81.77C117.845 82.255 117.33 82.58 116.74 82.675C115.525 82.88 114.37 82.055 114.165 80.84C113.96 79.625 114.785 78.47 116 78.265C116.125 78.245 116.25 78.235 116.37 78.235C117.44 78.235 118.39 79.01 118.57 80.1C118.67 80.69 118.53 81.28 118.185 81.765L118.19 81.77Z" fill="#E4E4E4"/>
<path d="M118.075 74.055C118.275 73.855 118.45 73.635 118.6 73.405C118.62 73.38 118.635 73.35 118.65 73.32C118.7 73.24 118.75 73.155 118.795 73.07C118.8 73.055 118.81 73.04 118.815 73.025C119.085 72.485 119.23 71.89 119.23 71.265C119.23 70.215 118.82 69.225 118.075 68.48L115.27 65.675C114.65 65.05 113.865 64.685 113.055 64.565C111.865 64.385 110.62 64.725 109.74 65.6L105.285 70.055C104.56 70.78 104.17 71.765 104.19 72.825C104.2 73.395 104.335 73.95 104.57 74.45L104.6 74.545C104.79 75.155 104.985 75.785 104.91 76.39C104.845 76.9 104.56 77.195 104.155 77.615C103.43 78.365 102.675 79.115 101.94 79.835C101.565 80.205 101.195 80.57 100.815 80.955C100.585 81.185 100.35 81.42 100.29 81.75C100.205 82.23 100.555 82.645 100.825 82.915C101.065 83.155 101.425 83.465 101.845 83.465C101.895 83.465 101.94 83.465 101.99 83.45C102.32 83.395 102.555 83.155 102.795 82.915L104.79 80.92C104.95 80.76 105.105 80.595 105.26 80.425C106.005 79.625 106.705 78.87 107.795 78.93C108.27 78.955 108.735 79.08 109.225 79.21C109.405 79.26 109.585 79.305 109.77 79.345C110.16 79.465 110.565 79.525 110.965 79.525C111.855 79.525 112.735 79.23 113.435 78.64C113.55 78.55 113.66 78.455 113.76 78.35L118.065 74.045L118.075 74.055ZM102.295 80.385L103.38 81.465L102.86 81.985L101.775 80.9C101.95 80.73 102.12 80.555 102.295 80.385ZM101.89 82.845C101.715 82.875 101.46 82.665 101.275 82.485C101.095 82.3 100.88 82.05 100.915 81.87C100.94 81.735 101.095 81.575 101.275 81.4C101.295 81.38 101.315 81.365 101.33 81.345L102.415 82.43L102.345 82.5C102.18 82.665 102.02 82.825 101.885 82.85L101.89 82.845ZM107.84 78.315C106.465 78.23 105.59 79.18 104.815 80.01C104.665 80.17 104.515 80.335 104.36 80.49L103.825 81.025L102.745 79.945C103.37 79.325 104.005 78.695 104.625 78.05C105.05 77.61 105.45 77.195 105.54 76.475C105.57 76.235 105.565 75.995 105.54 75.765L108.12 78.345C108.03 78.335 107.94 78.32 107.845 78.315H107.84ZM113.235 78.005C111.995 79.245 109.87 79.215 108.59 77.935L105.81 75.155C105.2 74.545 104.845 73.7 104.825 72.825C104.805 71.935 105.13 71.11 105.735 70.505L110.185 66.05C110.79 65.445 111.61 65.14 112.44 65.14C113.27 65.14 114.18 65.47 114.83 66.12L117.61 68.9C118.89 70.18 118.92 72.305 117.68 73.545L113.225 78L113.235 78.005Z" fill="#E4E4E4"/>
<path d="M105.63 73.19L110.52 78.08L110.96 77.64L106.07 72.75L105.63 73.19Z" fill="#E4E4E4"/>
<path d="M105.84 71.295L112.28 77.735L112.505 77.515L112.725 77.295L106.28 70.85L105.84 71.295Z" fill="#E4E4E4"/>
<path opacity="0.12" d="M118.075 68.4851L115.27 65.6801C113.735 64.1451 111.235 64.1451 109.695 65.6801C106.34 69.0351 105.58 69.7951 105.395 69.9901H105.39C104.435 70.9401 104.05 72.3301 104.36 73.7051C104.4 73.8751 104.445 74.0501 104.5 74.2301L104.6 74.5551C104.79 75.1651 104.985 75.7951 104.91 76.4001C104.845 76.9101 104.56 77.2051 104.155 77.6251C103.43 78.3751 102.675 79.1251 101.94 79.8451C101.565 80.2151 101.195 80.5801 100.825 80.9501L100.775 81.0001C100.53 81.2551 100.27 81.5101 100.27 81.9001C100.27 82.2151 100.445 82.5451 100.83 82.9251C101.23 83.3251 101.56 83.4651 101.845 83.4651C102.26 83.4651 102.565 83.1601 102.8 82.9251L104.795 80.9301C104.955 80.7701 105.11 80.6051 105.265 80.4351C106.01 79.6351 106.71 78.8801 107.8 78.9401C108.275 78.9651 108.74 79.0901 109.23 79.2201C109.785 79.3651 110.36 79.5201 110.965 79.5201C111.99 79.5401 113.03 79.1051 113.77 78.3651L118.075 74.0601C118.82 73.3151 119.23 72.3251 119.23 71.2751C119.23 70.2251 118.82 69.2351 118.075 68.4901V68.4851ZM117.64 73.5451L113.185 78.0001C111.945 79.2401 109.82 79.2101 108.54 77.9301L105.76 75.1501C105.15 74.5401 104.795 73.6951 104.775 72.8201C104.755 71.9301 105.08 71.1051 105.685 70.5001L110.14 66.0451C110.745 65.4401 111.565 65.1351 112.395 65.1351C113.225 65.1351 114.135 65.4651 114.785 66.1151L117.565 68.8951C118.845 70.1751 118.875 72.3001 117.635 73.5401L117.64 73.5451Z" fill="#E4E4E4"/>
<path d="M141.563 72.645C141.048 72.905 140.603 73.265 140.173 73.61C139.753 73.95 139.353 74.27 138.898 74.5C138.848 74.525 138.798 74.55 138.748 74.57C137.863 74.965 136.828 75.015 135.828 75.065C135.628 75.075 135.433 75.085 135.238 75.095C133.403 75.215 131.048 75.78 130.268 77.83C129.513 79.81 130.868 81.695 132.528 82.46C133.878 83.085 135.488 83.415 137.093 83.415C137.793 83.415 138.493 83.355 139.168 83.225C140.488 82.975 142.313 82.355 143.508 80.845C143.703 80.595 143.878 80.33 144.043 80.075C144.318 79.655 144.578 79.255 144.923 78.945C145.503 78.425 146.233 78.2 147.013 77.96C147.583 77.785 148.168 77.605 148.708 77.295C149.428 76.88 149.898 76.265 149.998 75.605C150.103 74.92 149.808 74.175 149.218 73.605C148.348 72.77 147.063 72.29 145.283 72.13C144.978 72.105 144.693 72.09 144.413 72.085V68.45L147.578 67.065L143.788 65.125V72.09C142.928 72.14 142.203 72.32 141.568 72.645H141.563ZM144.408 66.15L146.113 67.02L144.408 67.765V66.15ZM145.223 72.745C146.858 72.89 148.018 73.32 148.783 74.05C149.223 74.47 149.448 75.03 149.378 75.505C149.308 75.98 148.948 76.43 148.393 76.75C147.918 77.02 147.388 77.185 146.828 77.36C146.023 77.61 145.183 77.865 144.503 78.48C144.098 78.845 143.803 79.3 143.518 79.735C143.353 79.99 143.193 80.235 143.018 80.46C141.943 81.82 140.268 82.385 139.053 82.615C136.958 83.015 134.618 82.745 132.793 81.9C131.393 81.25 130.238 79.685 130.858 78.06C131.518 76.325 133.628 75.835 135.283 75.73C135.473 75.72 135.668 75.71 135.868 75.7C136.928 75.645 138.018 75.59 139.008 75.15C139.068 75.125 139.128 75.095 139.188 75.065C139.698 74.805 140.143 74.45 140.573 74.105C140.998 73.765 141.393 73.445 141.853 73.215C142.403 72.935 143.038 72.785 143.793 72.735V74.94C143.368 75.015 143.103 75.225 143.103 75.51C143.103 75.87 143.528 76.11 144.153 76.11C144.778 76.11 145.203 75.87 145.203 75.51C145.203 75.205 144.893 74.985 144.413 74.925V72.715C144.673 72.715 144.943 72.73 145.228 72.755L145.223 72.745Z" fill="#E4E4E4"/>
<path d="M133.813 70.07C135.213 70.07 136.348 68.93 136.348 67.535C136.348 66.14 135.213 64.995 133.813 64.995C132.413 64.995 131.278 66.135 131.278 67.53C131.278 68.925 132.418 70.065 133.813 70.065V70.07ZM133.813 65.62C134.868 65.62 135.723 66.48 135.723 67.53C135.723 68.58 134.863 69.44 133.813 69.44C132.763 69.44 131.903 68.58 131.903 67.53C131.903 66.48 132.763 65.62 133.813 65.62Z" fill="#E4E4E4"/>
<path d="M170.57 68.165C170.38 66.74 169.065 65.74 167.64 65.925C166.215 66.115 165.21 67.43 165.4 68.855C165.49 69.545 165.85 70.16 166.4 70.58C166.86 70.93 167.41 71.115 167.98 71.115C168.095 71.115 168.215 71.105 168.33 71.09C169.755 70.9 170.76 69.585 170.57 68.16V68.165ZM166.56 69.88C166.27 69.58 166.075 69.2 166.02 68.775C165.965 68.345 166.055 67.93 166.245 67.575C166.535 67.875 166.725 68.255 166.78 68.675C166.835 69.095 166.755 69.515 166.555 69.88H166.56ZM168.25 70.475C167.835 70.53 167.425 70.45 167.065 70.26C167.36 69.76 167.485 69.175 167.405 68.59C167.325 68.005 167.05 67.48 166.63 67.075C166.92 66.8 167.295 66.605 167.725 66.545C167.815 66.535 167.9 66.525 167.99 66.525C168.34 66.525 168.675 66.62 168.965 66.79C168.68 67.285 168.56 67.85 168.635 68.425C168.71 68.995 168.98 69.51 169.38 69.91C169.085 70.205 168.695 70.415 168.25 70.475ZM169.755 69.405C169.485 69.11 169.31 68.745 169.255 68.34C169.2 67.94 169.27 67.54 169.45 67.185C169.71 67.47 169.895 67.835 169.95 68.245C170.005 68.655 169.925 69.055 169.75 69.4L169.755 69.405Z" fill="#E4E4E4"/>
<path d="M179.4 71.605C178.37 69.3 175.66 68.265 173.355 69.295C172.585 69.64 171.96 70.17 171.505 70.815C170.595 72.095 170.36 73.805 171.045 75.34C171.545 76.455 172.445 77.31 173.59 77.75C174.12 77.955 174.675 78.055 175.225 78.055C175.86 78.055 176.495 77.92 177.09 77.655C178.205 77.155 179.06 76.255 179.5 75.11C179.935 73.97 179.905 72.725 179.405 71.61L179.4 71.605ZM178.91 74.885C178.535 75.87 177.795 76.65 176.83 77.08C176.44 77.255 176.03 77.36 175.615 77.4C175.35 77.22 175.155 76.975 175.01 76.705C175.875 76.355 178.31 75.145 179.065 72.555C179.25 73.325 179.2 74.13 178.915 74.88L178.91 74.885ZM178.635 71.505C178.335 74.45 175.64 75.78 174.78 76.125C174.635 75.62 174.605 75.135 174.605 74.885C177.14 73.515 177.74 71.555 177.875 70.555C178.17 70.825 178.425 71.145 178.635 71.505ZM173.285 76.915C172.63 75.88 172.75 74.58 172.865 73.95C173.305 74.2 173.715 74.495 173.975 74.815C173.97 75.215 174.015 76.485 174.705 77.395C174.4 77.355 174.1 77.285 173.81 77.17C173.625 77.1 173.455 77.015 173.285 76.92V76.915ZM177.285 70.115C177.275 70.345 177.23 70.805 177.025 71.37C176.345 70.365 175.26 69.855 174.435 69.605C174.695 69.55 174.955 69.525 175.215 69.525C175.95 69.525 176.665 69.735 177.285 70.115ZM173.35 70C173.8 70.055 175.89 70.415 176.705 72.065C176.51 72.42 176.245 72.795 175.89 73.16C174.875 71.63 173.295 71.055 172.625 70.88C172.525 70.855 172.42 70.83 172.31 70.805C172.6 70.485 172.95 70.215 173.35 70ZM171.88 71.37C172.435 71.395 174.365 71.9 175.435 73.58C175.13 73.835 174.78 74.075 174.37 74.305C173.58 73.45 172.01 72.805 171.385 72.57C171.485 72.145 171.65 71.74 171.885 71.37H171.88ZM171.28 73.205C171.535 73.305 171.9 73.455 172.285 73.64C172.185 74.095 172.03 75.09 172.28 76.11C172.01 75.81 171.78 75.465 171.61 75.08C171.335 74.47 171.235 73.825 171.28 73.2V73.205Z" fill="#E4E4E4"/>
<path d="M169.575 74.16C168.72 73.055 167.485 72.345 166.1 72.17C164.715 71.995 163.34 72.365 162.235 73.22C161.125 74.075 160.42 75.31 160.245 76.7C160.07 78.085 160.44 79.46 161.295 80.565C162.15 81.67 163.385 82.38 164.77 82.555C164.995 82.585 165.22 82.6 165.445 82.6C166.595 82.6 167.71 82.22 168.635 81.505C169.74 80.65 170.45 79.415 170.625 78.03C170.8 76.645 170.43 75.27 169.575 74.165V74.16ZM170.04 77.525C168.885 77.265 167.675 77.445 166.645 78.05C166.58 78.09 166.525 78.135 166.46 78.175L165.875 77.415L169.26 74.795C169.805 75.605 170.075 76.55 170.04 77.52V77.525ZM168.88 74.305L165.495 76.925L164.94 76.205C165.905 75.38 166.505 74.185 166.575 72.9C167.47 73.125 168.27 73.61 168.885 74.305H168.88ZM165.95 72.785C165.91 73.92 165.4 74.975 164.555 75.71L162.875 73.535C163.635 73.025 164.52 72.755 165.43 72.755C165.605 72.755 165.78 72.77 165.955 72.79L165.95 72.785ZM162.38 73.92L164.055 76.085C164.02 76.105 163.99 76.13 163.955 76.15C163.03 76.69 161.935 76.84 160.905 76.575C161.085 75.54 161.6 74.615 162.385 73.92H162.38ZM160.83 77.205C161.185 77.29 161.545 77.33 161.905 77.33C162.725 77.33 163.545 77.115 164.27 76.69C164.33 76.655 164.38 76.615 164.435 76.58L165 77.31L161.615 79.93C161.07 79.125 160.8 78.18 160.835 77.21L160.83 77.205ZM161.99 80.42L165.375 77.8L165.955 78.55C165 79.375 164.41 80.56 164.34 81.835C163.425 81.615 162.615 81.125 161.99 80.415V80.42ZM164.96 81.945C165 80.825 165.51 79.78 166.34 79.05L167.995 81.19C167.1 81.79 166.04 82.055 164.96 81.945ZM168.49 80.81L166.84 78.675C166.88 78.65 166.915 78.62 166.955 78.595C167.865 78.06 168.945 77.91 169.965 78.16C169.785 79.195 169.27 80.115 168.485 80.81H168.49Z" fill="#E4E4E4"/>
<g opacity="0.12">
<path d="M197.12 74.755C197.425 74.875 198.2 75.155 199.05 75.305C199.14 75.22 199.38 74.94 199.83 74.105C199.635 73.81 199.145 73.125 198.495 72.66C198.22 72.69 197.475 72.785 196.825 73.02C196.825 73.295 196.87 73.88 197.115 74.755H197.12Z" fill="#E4E4E4"/>
<path d="M193.555 79.68C193.77 79.625 194.285 79.45 195.04 78.91C195.02 78.635 194.95 77.98 194.655 76.89C194.325 76.805 193.59 76.625 193.015 76.57L192.25 78.15C192.39 78.395 192.775 78.99 193.545 79.68H193.555Z" fill="#E4E4E4"/>
<path d="M198.145 79.995L198.485 81.2C198.89 81.235 199.83 81.27 200.48 80.87C200.54 80.62 200.675 79.945 200.725 79.015L199.685 78.61L198.145 79.995Z" fill="#E4E4E4"/>
<path d="M193.965 71.8V72.08C193.215 72.57 192.62 73.26 192.365 73.59L191.95 73.46C192.16 73.19 192.475 72.81 192.78 72.52C192.915 72.41 193.055 72.3 193.2 72.2C193.46 72.04 193.74 71.9 193.965 71.805V71.8Z" fill="#E4E4E4"/>
</g>
<path d="M197.485 69.875C197.64 69.875 197.8 69.86 197.96 69.835C198.715 69.71 199.37 69.295 199.815 68.675C200.26 68.055 200.43 67.295 200.305 66.545C200.045 64.985 198.57 63.935 197.015 64.195C195.46 64.455 194.41 65.935 194.67 67.49C194.905 68.885 196.12 69.875 197.49 69.875H197.485ZM199.055 65.435C199.375 65.755 199.61 66.165 199.69 66.645C199.77 67.11 199.69 67.58 199.49 67.995C199.16 67.67 198.935 67.25 198.855 66.785C198.775 66.32 198.855 65.85 199.055 65.435ZM197.12 64.81C197.245 64.79 197.37 64.78 197.49 64.78C197.87 64.78 198.23 64.88 198.55 65.055C198.245 65.615 198.135 66.25 198.24 66.89C198.345 67.525 198.665 68.085 199.135 68.515C198.8 68.885 198.36 69.135 197.86 69.22C197.37 69.3 196.895 69.21 196.485 69C196.8 68.435 196.925 67.775 196.815 67.13C196.705 66.48 196.375 65.91 195.885 65.475C196.205 65.14 196.63 64.895 197.12 64.81ZM195.52 65.98C195.875 66.315 196.115 66.745 196.195 67.23C196.275 67.715 196.195 68.21 195.965 68.635C195.62 68.31 195.365 67.885 195.285 67.38C195.2 66.88 195.3 66.395 195.515 65.98H195.52Z" fill="#E4E4E4"/>
<path d="M209.935 72.085C209.855 70.85 209.485 69.75 208.825 68.815C206.655 65.74 202.46 66.035 202.28 66.045L202.075 66.06L202.01 66.255C201.94 66.465 200.36 71.365 203.345 73.995C205.495 75.885 208.07 76.035 208.835 76.035C208.96 76.035 209.035 76.035 209.055 76.035L209.245 76.025L209.32 75.85C209.35 75.78 210.06 74.11 209.935 72.085ZM202.54 66.665C203.005 66.66 204.155 66.69 205.39 67.1C205.005 67.755 204.49 68.265 204.085 68.59C203.565 69.01 202.89 69.215 202.17 69.375C202.17 68.155 202.425 67.095 202.54 66.665ZM203.755 73.53C202.675 72.58 202.28 71.255 202.19 70.01C203.005 69.835 203.825 69.595 204.47 69.075C204.935 68.7 205.535 68.1 205.975 67.32C206.83 67.695 207.675 68.275 208.31 69.175C208.85 69.94 209.165 70.835 209.27 71.83C208.395 71.965 207.64 72.33 207.145 72.63C206.38 73.09 205.815 73.855 205.36 74.59C204.82 74.33 204.27 73.985 203.755 73.53ZM208.815 75.415C208.37 75.415 207.22 75.345 205.94 74.845C206.345 74.2 206.84 73.545 207.47 73.165C208.07 72.805 208.715 72.565 209.32 72.465C209.34 73.82 208.98 74.975 208.82 75.415L208.815 75.415Z" fill="#E4E4E4"/>
<path d="M207.005 72.31L206.55 71.655L207.01 71.31L206.635 70.81L206.195 71.14L205.76 70.515L206.195 70.185L205.815 69.685L205.4 70L204.92 69.305L204.41 69.66L204.905 70.375L204.475 70.7L204.855 71.2L205.26 70.89L205.695 71.52L205.295 71.825L205.67 72.32L206.055 72.03L206.495 72.665L207.005 72.31Z" fill="#E4E4E4"/>
<path d="M196.435 70.575C195.65 70.575 194.88 70.715 194.155 70.995C193.73 71.155 193.335 71.365 192.965 71.605C192.935 71.625 192.9 71.645 192.87 71.665C192.87 71.665 192.87 71.665 192.865 71.665C192.7 71.77 192.54 71.885 192.4 72.01C192.385 72.025 192.365 72.045 192.35 72.06C190.925 73.26 190.05 75.045 190.05 76.96C190.05 79.79 191.9 82.19 194.45 83.025C194.45 83.025 194.455 83.025 194.46 83.03C195.015 83.21 195.61 83.315 196.22 83.335C196.29 83.335 196.36 83.345 196.43 83.345C199.95 83.345 202.815 80.48 202.815 76.96C202.815 73.44 199.95 70.575 196.43 70.575H196.435ZM199.05 75.31C198.2 75.155 197.425 74.875 197.12 74.76C196.87 73.89 196.83 73.3 196.83 73.025C197.48 72.79 198.225 72.695 198.5 72.665C199.15 73.13 199.64 73.815 199.835 74.11C199.385 74.945 199.145 75.225 199.055 75.31H199.05ZM199.275 78.135L197.705 79.55C196.965 79.35 196.045 79.005 195.66 78.855C195.64 78.535 195.555 77.85 195.26 76.75L196.915 75.35C197.24 75.475 197.98 75.74 198.825 75.9L199.27 78.13L199.275 78.135ZM196.435 71.2C197.115 71.2 197.765 71.325 198.37 71.54L198.3 72.055C197.92 72.1 197.185 72.215 196.53 72.47C195.845 72.165 195.015 72.025 194.59 71.97L194.58 71.505C195.175 71.3 195.795 71.195 196.435 71.195V71.2ZM196.205 73.01C196.205 73.325 196.25 73.955 196.51 74.885L194.835 76.295C194.5 76.21 193.72 76.015 193.085 75.95C192.955 75.335 192.84 74.375 192.805 74.04C192.995 73.79 193.6 73.05 194.365 72.575C194.655 72.605 195.515 72.72 196.205 73.005L196.205 73.01ZM195.04 78.915C194.28 79.45 193.77 79.625 193.555 79.685C192.78 78.995 192.395 78.4 192.26 78.155L193.025 76.575C193.595 76.63 194.335 76.81 194.665 76.895C194.955 77.985 195.03 78.645 195.05 78.915H195.04ZM193.195 72.2C193.455 72.04 193.735 71.9 193.96 71.805V72.085C193.21 72.575 192.615 73.265 192.36 73.595L191.945 73.465C192.155 73.195 192.47 72.815 192.775 72.525C192.91 72.415 193.05 72.305 193.195 72.205V72.2ZM190.675 76.96C190.675 75.89 190.98 74.86 191.515 73.98L192.19 74.19C192.24 74.615 192.36 75.605 192.5 76.205L191.705 77.845C191.34 77.85 190.955 77.855 190.745 77.845C190.7 77.555 190.67 77.255 190.67 76.955L190.675 76.96ZM190.885 78.475C190.97 78.475 191.07 78.475 191.19 78.475C191.335 78.475 191.52 78.475 191.725 78.47C191.9 78.775 192.335 79.425 193.17 80.165C193.21 80.485 193.33 81.285 193.62 81.975C192.295 81.23 191.295 79.97 190.885 78.47V78.475ZM196.145 82.705C195.65 82.68 195.17 82.6 194.715 82.455C194.24 82.22 193.93 81.08 193.81 80.255C194.125 80.16 194.665 79.935 195.4 79.415C195.775 79.56 196.74 79.925 197.54 80.145L197.905 81.445C197.76 81.695 197.26 82.4 196.14 82.705H196.145ZM197.75 82.565C198.085 82.285 198.295 82.005 198.41 81.82C198.54 81.835 198.72 81.845 198.93 81.845C199.115 81.845 199.325 81.835 199.545 81.805C199 82.155 198.4 82.415 197.75 82.565ZM200.48 80.865C199.83 81.265 198.89 81.235 198.485 81.195L198.145 79.99L199.685 78.605L200.725 79.01C200.675 79.945 200.535 80.615 200.48 80.865ZM201.25 80.12C201.295 79.79 201.335 79.385 201.36 78.925C201.5 78.765 201.805 78.405 202.105 77.99C201.965 78.765 201.67 79.485 201.25 80.12ZM202.185 76.605C202.025 77.115 201.345 77.98 200.965 78.425L199.9 78.01L199.46 75.785C199.665 75.6 199.95 75.205 200.35 74.47L201.845 74.96C202.035 75.48 202.155 76.03 202.19 76.605H202.185ZM200.4 73.83C200.225 73.555 199.685 72.765 198.92 72.2L198.975 71.79C200.04 72.315 200.92 73.15 201.49 74.19L200.4 73.83Z" fill="#E4E4E4"/>
<path d="M27.5726 110.285C27.1076 110.155 26.6076 110.04 26.1026 110C26.2676 109.705 26.4176 109.405 26.5426 109.085C27.1926 107.38 27.1426 105.525 26.3976 103.86C25.6526 102.195 24.3026 100.915 22.6026 100.265C20.8976 99.61 19.0426 99.665 17.3776 100.41C15.7126 101.155 14.4326 102.5 13.7826 104.205C13.1326 105.91 13.1826 107.765 13.9276 109.43C14.0326 109.67 14.1576 109.895 14.2826 110.115C13.4126 110.05 12.5226 110.21 11.7176 110.355C11.2576 110.44 10.8226 110.52 10.4226 110.55L10.4726 111.175C10.9026 111.14 11.3526 111.055 11.8276 110.97C12.7976 110.795 13.7976 110.615 14.7226 110.8C14.7276 110.8 14.7376 110.8 14.7426 110.805C16.0476 112.505 18.0726 113.48 20.1726 113.48C21.1026 113.48 22.0476 113.29 22.9476 112.885C24.0776 112.38 25.0226 111.595 25.7176 110.61C26.2826 110.61 26.8676 110.74 27.4026 110.89C28.2026 111.11 29.2676 111.365 30.4526 111.37V110.745C29.5926 110.745 28.7026 110.6 27.5726 110.285ZM14.6426 109.465C14.4626 108.3 14.6976 106.83 14.7926 106.315C15.1276 106.455 15.5026 106.625 15.8926 106.82C15.8076 107.525 15.6326 109.71 16.3726 111.555C15.6626 111.01 15.0726 110.305 14.6426 109.465ZM20.1476 112.325C19.8526 111.99 19.6376 111.595 19.4776 111.185C20.1476 110.895 25.2226 108.57 25.8776 104.235C26.1126 104.795 26.2626 105.375 26.3326 105.96C25.0226 110.235 21.0376 111.98 20.1476 112.325ZM17.4126 112.205C16.3126 110.59 16.3976 108.135 16.4876 107.14C17.2476 107.565 17.9826 108.075 18.4226 108.63C18.4076 109.18 18.4426 111.445 19.7576 112.835C18.9376 112.78 18.1426 112.565 17.4076 112.205H17.4126ZM14.0926 105.37C14.1576 105.05 14.2476 104.735 14.3626 104.425C14.5076 104.05 14.6876 103.69 14.8926 103.36C15.7126 103.625 18.4776 104.65 20.6876 106.97C20.1676 107.355 19.5476 107.745 18.8126 108.13C17.6026 106.725 14.9376 105.675 14.0876 105.37H14.0926ZM24.0976 103.23C24.4126 103.3 24.8876 103.415 25.3176 103.57C25.1226 107.785 20.0926 110.225 19.2876 110.59C19.0776 109.79 19.0526 109.045 19.0526 108.72C23.2726 106.505 23.9876 104.16 24.0976 103.23ZM24.0026 102.57C23.6426 101.925 22.9576 101.31 22.3126 100.825C22.3326 100.835 22.3576 100.84 22.3776 100.845C23.4476 101.255 24.3626 101.94 25.0476 102.825C24.6126 102.7 24.2076 102.61 23.9976 102.57H24.0026ZM20.6226 100.455C21.0776 100.715 22.9276 101.835 23.4926 102.93C23.4926 103.11 23.4426 103.755 22.9226 104.635C21.3376 102.435 19.1776 101.295 18.0476 100.82C18.7326 100.57 19.4476 100.435 20.1676 100.435C20.3226 100.435 20.4726 100.445 20.6276 100.455H20.6226ZM17.2376 101.175C17.8476 101.385 20.7126 102.5 22.5526 105.19C22.2276 105.62 21.7826 106.095 21.1926 106.58C19.0026 104.255 16.3326 103.175 15.2776 102.82C15.8026 102.145 16.4726 101.59 17.2426 101.175H17.2376ZM14.2076 106.075C14.1676 106.27 14.0726 106.79 14.0126 107.44C13.9476 106.96 13.9476 106.475 13.9976 105.995C14.0626 106.02 14.1326 106.045 14.2076 106.075ZM20.7226 112.815C20.7226 112.815 20.6926 112.795 20.6826 112.785C21.8476 112.3 24.6776 110.85 26.2726 107.77C26.2026 108.135 26.1076 108.5 25.9676 108.855C25.3776 110.405 24.2176 111.63 22.7026 112.305C22.0576 112.59 21.3926 112.755 20.7276 112.815H20.7226Z" fill="#E4E4E4"/>
<path d="M12.5026 111.755H11.7326V112.38H12.5026V111.755Z" fill="#E4E4E4"/>
<path d="M13.7276 113.1H12.9576V113.725H13.7276V113.1Z" fill="#E4E4E4"/>
<path d="M14.7276 111.6H13.9576V112.225H14.7276V111.6Z" fill="#E4E4E4"/>
<path d="M27.4476 113.18H26.6776V113.805H27.4476V113.18Z" fill="#E4E4E4"/>
<path d="M24.4476 113.18H23.6776V113.805H24.4476V113.18Z" fill="#E4E4E4"/>
<path d="M29.6776 112.135H28.9076V112.76H29.6776V112.135Z" fill="#E4E4E4"/>
<path d="M27.1776 111.635H26.4076V112.26H27.1776V111.635Z" fill="#E4E4E4"/>
<path opacity="0.12" d="M25.5925 110.21C26.2175 110.195 26.8625 110.335 27.4675 110.505C28.4375 110.775 29.4325 111.115 30.4325 110.975V114.195H10.4625L10.4275 110.775C11.7325 110.585 13.3175 110.115 14.7675 110.41C14.7675 110.41 16.8325 113.18 20.0125 113.18C23.1925 113.18 25.5975 110.215 25.5975 110.215L25.5925 110.21Z" fill="#E4E4E4"/>
<path d="M50.4199 99.795C51.5949 99.795 52.5499 98.84 52.5499 97.665C52.5499 96.49 51.5949 95.535 50.4199 95.535C49.2449 95.535 48.2899 96.49 48.2899 97.665C48.2899 98.84 49.2449 99.795 50.4199 99.795ZM50.4199 96.165C51.2499 96.165 51.9249 96.84 51.9249 97.67C51.9249 98.5 51.2499 99.175 50.4199 99.175C49.5899 99.175 48.9149 98.5 48.9149 97.67C48.9149 96.84 49.5899 96.165 50.4199 96.165Z" fill="#E4E4E4"/>
<path d="M55.8149 100.785L56.4749 100.125C57.0049 100.475 57.6149 100.655 58.2249 100.655C59.0199 100.655 59.8149 100.36 60.4299 99.76L59.9949 99.31C58.9899 100.285 57.3799 100.265 56.4049 99.26C55.4299 98.255 55.4499 96.645 56.4549 95.67L56.0199 95.22C54.9299 96.28 54.7699 97.94 55.5499 99.175L54.8799 99.845L55.1299 100.095L50.4749 104.805L45.7549 100.1L46.0049 99.85L45.3249 99.17C46.0999 97.935 45.9349 96.28 44.8499 95.225L44.4149 95.675C45.4199 96.65 45.4399 98.26 44.4649 99.265C43.4899 100.27 41.8799 100.29 40.8749 99.315L40.4399 99.765C41.0549 100.36 41.8499 100.66 42.6449 100.66C43.2599 100.66 43.8799 100.48 44.4099 100.125L45.0749 100.79L45.3149 100.55L50.0349 105.26L43.0399 112.335L43.4849 112.775L50.4799 105.7L57.5749 112.775L58.0149 112.335L50.9149 105.255L55.5699 100.545L55.8149 100.79V100.785Z" fill="#E4E4E4"/>
<path d="M80.4375 94.0024C79.2075 94.0024 78.0025 94.2224 76.8675 94.6574C76.8625 94.6574 76.8575 94.6574 76.8525 94.6624C76.8075 94.6774 76.6525 94.7424 76.4225 94.8474C76.2425 94.9274 76.0675 95.0124 75.8925 95.1024C75.7775 95.1624 75.6575 95.2224 75.5375 95.2874C75.5175 95.2974 75.4975 95.3074 75.4775 95.3224C75.0075 95.5824 74.5125 95.8974 74.1325 96.2474C74.0975 96.2774 74.0625 96.3124 74.0275 96.3474C73.2775 96.9824 72.6275 97.7174 72.0925 98.5324C72.0375 98.6074 71.9975 98.6524 71.9875 98.6624V98.7024C71.0025 100.262 70.4475 102.087 70.4475 103.992C70.4475 108.427 73.3525 112.187 77.3525 113.492C77.3575 113.492 77.3625 113.502 77.3725 113.502C78.2225 113.772 79.1225 113.932 80.0525 113.967V113.977C80.0525 113.977 80.0775 113.972 80.0875 113.967C80.2075 113.967 80.3275 113.987 80.4475 113.987C85.9625 113.987 90.4475 109.502 90.4475 103.987C90.4475 98.4724 85.9475 94.0024 80.4375 94.0024ZM80.0025 113.352C79.1725 113.312 78.3675 113.177 77.6025 112.932C76.6675 112.462 76.1875 110.242 76.0425 109.122C76.4975 109.007 77.4325 108.667 78.7625 107.712C79.2875 107.917 80.9925 108.572 82.3475 108.927L82.9775 111.177C82.7775 111.542 81.9475 112.822 80.0025 113.347V113.352ZM74.4525 96.8024C74.8625 96.4624 75.2975 96.1524 75.7625 95.8824C75.8025 95.8574 75.8475 95.8374 75.8875 95.8124C75.9325 95.7874 75.9775 95.7674 76.0225 95.7424C76.2675 95.6174 76.4925 95.5074 76.6725 95.4274L76.6925 96.3274C75.3575 97.1574 74.3325 98.4224 73.9925 98.8674L72.7975 98.6524C73.1875 98.1724 73.8675 97.3674 74.4525 96.8074V96.8024ZM80.7625 100.752L77.9325 103.142C77.4575 103.017 76.0275 102.652 74.9425 102.562C74.7125 101.537 74.5075 99.7674 74.4525 99.2924C74.7225 98.9374 75.7625 97.6224 77.0825 96.8174C77.4925 96.8574 79.0575 97.0474 80.2475 97.5774C80.2375 98.0174 80.2825 99.0924 80.7575 100.752L80.7625 100.752ZM83.7725 96.9624C84.9375 97.7724 85.7925 99.0224 86.0625 99.4474C85.1825 101.092 84.7725 101.482 84.6575 101.567C83.1625 101.307 81.7975 100.797 81.3725 100.627C80.9075 99.0224 80.8675 97.9874 80.8775 97.5974C82.0175 97.1624 83.3825 96.9974 83.7725 96.9624ZM86.5725 99.8174L89.1875 100.677C89.5225 101.557 89.7275 102.497 89.7825 103.482C89.4875 104.457 88.1375 106.067 87.7025 106.572L85.7825 105.827L85.0375 102.067C85.3375 101.832 85.8125 101.232 86.5725 99.8174ZM82.5125 108.337C81.2325 108.002 79.5725 107.367 79.0225 107.152C78.9975 106.702 78.8875 105.562 78.3575 103.597L81.1725 101.222C81.6375 101.407 82.9375 101.887 84.4175 102.157L85.1675 105.937L82.5175 108.327L82.5125 108.337ZM74.8775 103.187C75.8875 103.267 77.2725 103.617 77.7525 103.747C78.2825 105.712 78.3825 106.832 78.4025 107.217C77.0075 108.217 76.0975 108.487 75.7875 108.552C74.3875 107.322 73.7525 106.267 73.5625 105.912L74.8775 103.187ZM83.5575 110.937L82.9525 108.782L85.5775 106.417L87.4725 107.152C87.3875 108.822 87.1325 110.002 87.0475 110.352C85.8925 111.112 84.1425 110.997 83.5575 110.937ZM88.0975 107.067C88.3425 106.787 89.1575 105.842 89.7625 104.892C89.5875 106.727 88.8825 108.407 87.8025 109.782C87.9125 109.162 88.0475 108.232 88.0975 107.067ZM88.8525 99.9074L86.6275 99.1774C86.3875 98.7874 85.4825 97.4224 84.1875 96.4974L84.3225 95.4874C86.2975 96.3924 87.8975 97.9574 88.8475 99.9074H88.8525ZM83.7275 95.2374L83.5775 96.3524C83.0325 96.4124 81.7175 96.5924 80.5825 97.0424C79.4125 96.5024 77.9275 96.2874 77.3125 96.2174L77.2925 95.1824C78.2975 94.8224 79.3525 94.6324 80.4375 94.6324C81.5975 94.6324 82.7025 94.8524 83.7275 95.2424V95.2374ZM72.4175 99.1724L73.8425 99.4574C73.9125 100.077 74.1225 101.822 74.3575 102.817L73.0175 105.597C72.3075 105.612 71.5425 105.612 71.2125 105.597C71.1225 105.077 71.0675 104.547 71.0675 104.002C71.0675 102.272 71.5575 100.607 72.4225 99.1774L72.4175 99.1724ZM71.3425 106.222C71.5375 106.232 71.7775 106.237 72.0725 106.237C72.3475 106.237 72.6675 106.232 73.0275 106.222C73.2575 106.647 73.9425 107.747 75.4025 109.027C75.4625 109.547 75.7025 111.232 76.3425 112.417C73.8725 111.207 72.0075 108.952 71.3425 106.222ZM83.4875 111.552C83.6925 111.577 84.0175 111.602 84.4175 111.602C84.9375 111.602 85.5725 111.552 86.1925 111.382C84.9325 112.362 83.4225 113.027 81.7725 113.267C82.7575 112.657 83.2825 111.912 83.4875 111.552Z" fill="#E4E4E4"/>
<path d="M118.945 100.09C117.9 97.75 116.005 95.96 113.615 95.045C112.785 94.73 111.935 94.54 111.075 94.455L111.06 94.445C109.445 94.3 107.805 94.565 106.285 95.245C103.935 96.285 102.145 98.18 101.23 100.57C100.315 102.965 100.385 105.57 101.43 107.91C103.02 111.47 106.53 113.59 110.2 113.59C111.505 113.59 112.83 113.32 114.095 112.755C118.925 110.6 121.1 104.915 118.94 100.085L118.945 100.09ZM110.875 95.06C111.47 95.4 114.235 97.05 115.055 98.68C115.055 98.915 115.015 99.955 114.125 101.38C111.73 97.95 108.315 96.3 106.815 95.705C107.9 95.265 109.04 95.03 110.185 95.03C110.415 95.03 110.645 95.045 110.875 95.06ZM117.505 98.82C116.705 98.555 115.89 98.385 115.565 98.325C114.95 97.175 113.57 96.075 112.495 95.34C112.795 95.42 113.095 95.515 113.39 95.625C115.075 96.27 116.49 97.375 117.505 98.82ZM106.18 112.015C104.5 109.565 104.715 105.77 104.85 104.49C106.03 105.13 107.185 105.915 107.85 106.78C107.83 107.48 107.84 111.005 109.955 112.955C108.64 112.92 107.35 112.6 106.18 112.02V112.015ZM101.395 102.27C101.495 101.775 101.625 101.28 101.81 100.795C102.03 100.22 102.31 99.675 102.63 99.165C103.7 99.5 107.87 100.98 111.14 104.48C110.345 105.075 109.39 105.68 108.245 106.28C106.535 104.2 102.47 102.655 101.39 102.27H101.395ZM115.67 98.98C116.13 99.075 116.95 99.27 117.66 99.535C117.435 106.045 109.25 109.63 108.85 109.8C108.49 108.515 108.47 107.305 108.475 106.87C114.75 103.6 115.58 100.15 115.67 98.98ZM110.125 112.245C109.545 111.61 109.17 110.82 108.925 110.04L109.07 110.385C109.16 110.345 111.345 109.435 113.59 107.645C116.38 105.42 117.98 102.82 118.25 100.095C118.29 100.18 118.335 100.255 118.375 100.34C118.77 101.225 119.005 102.14 119.1 103.055C117.18 109.335 111.24 111.825 110.125 112.24V112.245ZM106.01 96.075C106.8 96.345 111.06 97.94 113.75 101.935C113.255 102.605 112.575 103.335 111.64 104.095C108.4 100.6 104.38 99.07 103.01 98.63C103.8 97.57 104.82 96.705 106.01 96.08V96.075ZM101.295 102.9C101.445 102.955 101.635 103.025 101.855 103.115C101.83 103.225 101.545 104.605 101.49 106.165C101.22 105.095 101.16 103.995 101.295 102.905V102.9ZM102.205 108.06C101.92 106.23 102.345 103.88 102.445 103.355C102.98 103.575 103.605 103.855 104.255 104.185C104.135 105.11 103.805 108.61 105.095 111.37C103.905 110.55 102.9 109.43 102.205 108.065V108.06ZM110.94 112.925C110.835 112.86 110.73 112.79 110.635 112.715C112.175 112.085 116.87 109.815 119.11 104.8C118.825 107.93 116.91 110.82 113.84 112.19C112.895 112.61 111.915 112.845 110.94 112.93V112.925Z" fill="#E4E4E4"/>
<path d="M148.395 95.8099C146.305 93.6599 142.53 93.9299 139.98 96.4049C138.63 97.7199 137.9 99.3899 137.815 100.995H137.805C137.805 101.05 137.805 101.1 137.805 101.15C137.805 101.255 137.805 101.355 137.805 101.455C137.77 104.245 136.82 105.525 135.5 106.99L130.615 111.75L131.97 113.145L136.82 108.425C138.31 106.975 139.995 106.355 142.75 106.255C142.75 106.255 142.75 106.255 142.755 106.255C142.775 106.255 142.8 106.255 142.82 106.255C142.92 106.255 143.02 106.25 143.12 106.245C143.15 106.245 143.18 106.245 143.21 106.24C144.79 106.12 146.335 105.4 147.56 104.205C148.785 103.01 149.55 101.485 149.715 99.9099C149.88 98.3149 149.41 96.8549 148.39 95.8099H148.395ZM131.985 112.26L131.5 111.76L135.68 107.695L136.165 108.195L131.985 112.26ZM136.615 107.765L136.11 107.25C137.075 106.16 137.865 105.09 138.225 103.415C138.445 103.92 138.755 104.39 139.155 104.8C139.59 105.245 140.1 105.59 140.665 105.835C138.995 106.125 137.75 106.735 136.615 107.765ZM149.1 99.8449C148.95 101.275 148.255 102.665 147.13 103.755C146.01 104.845 144.6 105.51 143.17 105.615C141.76 105.72 140.49 105.275 139.6 104.365C138.85 103.595 138.47 102.585 138.43 101.505C138.43 101.37 138.43 101.225 138.43 101.085C138.495 99.6199 139.165 98.0699 140.415 96.8549C141.69 95.6149 143.29 94.9799 144.78 94.9799C145.985 94.9799 147.115 95.3949 147.945 96.2449C148.835 97.1599 149.245 98.4399 149.1 99.8449Z" fill="#E4E4E4"/>
<path d="M144.48 109.235C144.39 108.545 144.03 107.93 143.48 107.51C142.93 107.09 142.24 106.905 141.55 107C140.86 107.09 140.245 107.445 139.825 108C139.4 108.555 139.22 109.24 139.31 109.93C139.4 110.62 139.76 111.235 140.31 111.655C140.77 112.005 141.32 112.19 141.885 112.19C142 112.19 142.12 112.18 142.235 112.165C142.925 112.075 143.54 111.715 143.96 111.165C144.38 110.615 144.565 109.925 144.475 109.235H144.48ZM140.97 111.33C141.265 110.83 141.39 110.245 141.31 109.66C141.23 109.075 140.955 108.55 140.535 108.145C140.835 107.86 141.21 107.675 141.63 107.62C141.72 107.61 141.81 107.6 141.895 107.6C142.24 107.6 142.57 107.69 142.87 107.86C142.585 108.355 142.465 108.92 142.54 109.495C142.615 110.065 142.885 110.58 143.285 110.98C142.98 111.285 142.59 111.49 142.155 111.545C141.74 111.6 141.33 111.52 140.97 111.33ZM139.93 109.845C139.875 109.425 139.955 109.01 140.155 108.64C140.445 108.94 140.635 109.32 140.69 109.74C140.745 110.16 140.665 110.58 140.465 110.945C140.175 110.645 139.985 110.265 139.925 109.84L139.93 109.845ZM143.86 109.32C143.915 109.725 143.845 110.12 143.66 110.475C143.39 110.18 143.215 109.815 143.16 109.41C143.105 109.005 143.175 108.605 143.36 108.25C143.63 108.545 143.805 108.915 143.86 109.315V109.32Z" fill="#E4E4E4"/>
<path d="M178.215 96.055C178.215 96.055 178.065 95.905 178.035 95.875C177.975 95.815 177.905 95.755 177.835 95.705C177.705 95.595 177.565 95.495 177.415 95.395C177.125 95.205 176.825 95.055 176.505 94.935C175.855 94.695 175.155 94.585 174.465 94.605C173.725 94.625 172.995 94.775 172.315 95.035C171.575 95.315 170.895 95.725 170.285 96.225C169.575 96.805 169.055 97.595 168.585 98.375C168.185 99.055 167.415 101.025 167.285 102.235C166.825 106.405 166.645 105.775 165.325 107.235L160.435 111.995L161.785 113.395L166.635 108.675C168.125 107.225 168.795 106.995 171.555 106.835C173.665 106.715 176.305 105.615 177.375 104.455C178.535 103.205 179.365 101.735 179.525 100.155C179.695 98.565 179.215 97.105 178.205 96.055H178.215ZM161.805 112.505L161.315 112.005L165.495 107.935L165.985 108.435L161.805 112.505ZM166.435 108.015L165.925 107.495C166.885 106.405 167.255 105.745 167.255 105.745C167.255 105.745 167.305 106.245 167.535 106.485C167.925 106.895 168.755 106.745 168.755 106.745C167.755 106.745 166.255 108.245 166.435 108.015ZM178.915 100.095C178.765 101.525 178.075 102.915 176.945 104.005C175.825 105.095 173.975 105.995 171.525 106.295C168.035 106.555 168.085 106.405 167.845 106.105C167.665 105.875 167.575 105.465 167.655 104.045C167.665 103.825 167.775 102.105 168.565 100.015C169.445 97.685 170.675 96.825 170.845 96.685C171.185 96.405 171.555 96.155 171.945 95.945C172.665 95.555 173.465 95.295 174.285 95.235H174.595C175.795 95.235 176.925 95.645 177.755 96.495C178.645 97.405 179.055 98.685 178.915 100.095Z" fill="#E4E4E4"/>
<path d="M171.575 107.405C170.015 107.665 168.965 109.145 169.225 110.695C169.455 112.085 170.675 113.075 172.045 113.075C172.195 113.075 172.365 113.065 172.525 113.035C173.275 112.915 173.935 112.495 174.375 111.875C174.825 111.255 174.995 110.495 174.865 109.745C174.605 108.195 173.125 107.135 171.575 107.405ZM173.865 111.515C173.515 111.995 173.005 112.325 172.415 112.415C171.205 112.615 170.045 111.795 169.835 110.575C169.625 109.365 170.455 108.205 171.675 108.005C171.795 107.985 171.925 107.975 172.045 107.975C173.115 107.975 174.065 108.745 174.245 109.835C174.345 110.425 174.205 111.015 173.855 111.495V111.515H173.865Z" fill="#E4E4E4"/>
<path d="M199.565 94.385C194.265 94.385 189.95 98.7 189.95 104C189.95 109.3 194.265 113.615 199.565 113.615C204.865 113.615 209.18 109.3 209.18 104C209.18 98.7 204.865 94.385 199.565 94.385ZM208.85 103.685H199.875V94.715C204.76 94.88 208.685 98.8 208.85 103.69V103.685ZM199.25 94.715V103.69H190.28C190.44 98.8 194.365 94.875 199.25 94.715ZM190.28 104.31H199.255V113.285C194.365 113.12 190.44 109.2 190.28 104.31ZM199.88 113.285V104.31H208.855C208.69 109.195 204.77 113.12 199.88 113.285Z" fill="#E4E4E4"/>
<path d="M190.59 103.685C190.675 101.29 191.695 99.125 193.3 97.56C195.205 99.04 196.325 101.305 196.375 103.685H197C196.955 101.15 195.78 98.735 193.77 97.135C195.26 95.875 197.165 95.095 199.25 95.025V94.71C194.365 94.875 190.44 98.8 190.28 103.685H190.59Z" fill="#E4E4E4"/>
<path d="M208.54 104.31C208.46 106.68 207.465 108.82 205.885 110.38C204 108.905 202.89 106.665 202.83 104.31H202.205C202.265 106.82 203.43 109.215 205.42 110.805C203.92 112.095 201.99 112.895 199.88 112.97V113.28C204.765 113.115 208.69 109.195 208.855 104.305H208.545L208.54 104.31Z" fill="#E4E4E4"/>
<path d="M199.25 113.285V112.975C197.07 112.9 195.09 112.045 193.57 110.68C195.415 109.295 196.64 107.23 196.935 104.935C196.96 104.73 196.98 104.52 196.99 104.315H196.365C196.355 104.495 196.34 104.675 196.315 104.855C196.035 107.02 194.87 108.965 193.11 110.245C191.61 108.695 190.67 106.615 190.59 104.315H190.28C190.445 109.2 194.365 113.125 199.255 113.29L199.25 113.285Z" fill="#E4E4E4"/>
<path d="M199.875 94.715L199.875 95.03C202.06 95.105 204.045 95.96 205.565 97.33C203.755 98.715 202.56 100.755 202.265 103.03C202.235 103.25 202.22 103.47 202.21 103.69H202.835C202.845 103.495 202.86 103.305 202.885 103.11C203.16 100.97 204.3 99.05 206.02 97.77C207.515 99.315 208.455 101.395 208.53 103.69H208.84C208.685 98.8 204.765 94.875 199.875 94.715Z" fill="#E4E4E4"/>
<path d="M16.1525 136.633C14.7775 136.618 13.5975 137.728 13.5725 139.123C13.5475 140.523 14.6675 141.678 16.0625 141.703C16.0775 141.703 16.0925 141.703 16.1075 141.703C17.4825 141.703 18.6175 140.593 18.6425 139.213C18.6675 137.813 17.5475 136.658 16.1525 136.633ZM16.0725 141.078C15.0175 141.058 14.1775 140.188 14.1975 139.133C14.2175 138.093 15.0675 137.258 16.1075 137.258C16.1175 137.258 16.1325 137.258 16.1425 137.258C17.1975 137.278 18.0375 138.148 18.0175 139.203C17.9975 140.258 17.1325 141.118 16.0725 141.078Z" fill="#E4E4E4"/>
<path d="M29.6675 139.928L24.8675 131.523L24.8775 131.508L28.4275 126.678L27.9225 126.308L24.5375 130.913L24.5275 130.928L24.3675 131.148L24.1375 131.463L24.1275 131.478L20.7725 136.043L20.5675 135.893L20.0175 135.493L23.4925 130.363L23.5025 130.348L23.7275 130.018L23.8825 129.788L23.8925 129.773L26.7075 125.613L26.1875 125.263L23.5425 129.168L23.5325 129.183L21.8375 126.218C21.4875 125.518 20.7825 125.078 19.9975 125.078C19.2125 125.078 18.5075 125.513 18.1625 126.203L10.3325 139.928L10.3225 139.943C10.0025 140.588 10.0325 141.333 10.4125 141.948C10.7925 142.563 11.4475 142.923 12.1625 142.923H27.8275C28.5475 142.923 29.2025 142.558 29.5775 141.948C29.9525 141.338 29.9875 140.588 29.6575 139.928H29.6675ZM20.4025 136.548L20.1575 136.883C20.1075 136.953 20.0325 136.998 19.9475 137.013C19.8625 137.028 19.7775 137.003 19.7075 136.953L19.4875 136.793C19.3425 136.688 19.3125 136.483 19.4175 136.338L19.6625 136.003L19.9175 136.188L20.4075 136.548H20.4025ZM29.0525 141.618C28.7875 142.043 28.3325 142.298 27.8325 142.298H12.1675C11.6675 142.298 11.2125 142.043 10.9475 141.618C10.8175 141.403 10.7425 141.168 10.7325 140.928C10.7125 140.678 10.7575 140.423 10.8725 140.183L18.7125 126.448C18.9625 125.953 19.4375 125.658 19.9925 125.658C20.5475 125.658 21.0275 125.953 21.2825 126.468L23.1525 129.748L23.1425 129.763L19.3325 135.393L18.9075 135.978C18.5975 136.398 18.6925 136.993 19.1125 137.303L19.3325 137.463C19.4975 137.583 19.6925 137.648 19.8925 137.648C19.9425 137.648 19.9925 137.648 20.0425 137.638C20.2925 137.598 20.5125 137.463 20.6625 137.258L21.0575 136.713L24.4625 132.078L24.4725 132.063L29.1075 140.183C29.1675 140.308 29.2075 140.433 29.2325 140.568C29.3125 140.928 29.2525 141.303 29.0525 141.628V141.618Z" fill="#E4E4E4"/>
<path d="M58.895 124.93C58.365 124.405 57.735 124.13 57.11 124.145C56.395 124.16 55.665 124.54 55.05 125.21C54.51 125.795 53.99 126.415 53.485 127.015C53.03 127.555 52.565 128.11 52.09 128.635L41.97 139.85C41.605 139.49 41.015 139.49 40.65 139.855C40.475 140.03 40.375 140.265 40.375 140.52C40.375 140.775 40.47 141.005 40.65 141.185L42.55 143.085C42.735 143.27 42.975 143.36 43.215 143.36C43.455 143.36 43.695 143.27 43.88 143.085C44.225 142.735 44.24 142.185 43.925 141.815L56.145 130.65C56.37 130.445 56.665 130.21 56.975 129.965C58.12 129.055 59.55 127.915 59.625 126.605C59.66 126.015 59.415 125.45 58.895 124.935V124.93ZM42.41 140.29L42.725 139.945L43.83 141.05L43.485 141.365L42.41 140.29ZM43.435 142.64C43.315 142.76 43.115 142.76 42.995 142.64L41.095 140.74C40.975 140.62 40.975 140.42 41.095 140.3C41.155 140.24 41.235 140.21 41.315 140.21C41.395 140.21 41.475 140.24 41.535 140.3L43.435 142.2C43.555 142.32 43.555 142.52 43.435 142.64ZM56.585 129.475C56.265 129.73 55.965 129.97 55.725 130.19L44.295 140.625L43.145 139.475L52.55 129.055C53.035 128.52 53.505 127.96 53.96 127.415C54.46 126.82 54.98 126.205 55.51 125.63C56.01 125.085 56.58 124.78 57.125 124.77C57.61 124.77 58.045 124.965 58.455 125.375C58.845 125.765 59.025 126.155 59 126.57C58.94 127.605 57.635 128.645 56.585 129.48V129.475Z" fill="#E4E4E4"/>
<path d="M53.3 136.125C51.745 136.385 50.695 137.865 50.955 139.42C51.19 140.815 52.405 141.805 53.775 141.805C53.93 141.805 54.09 141.79 54.25 141.765C55.805 141.505 56.855 140.025 56.595 138.475C56.335 136.92 54.86 135.865 53.3 136.13V136.125ZM52.765 140.93C53.08 140.365 53.205 139.705 53.095 139.06C52.985 138.41 52.655 137.84 52.165 137.405C52.485 137.07 52.91 136.825 53.4 136.74C53.525 136.72 53.65 136.71 53.77 136.71C54.15 136.71 54.51 136.81 54.83 136.985C54.525 137.545 54.415 138.18 54.52 138.82C54.625 139.455 54.945 140.015 55.415 140.445C55.09 140.805 54.655 141.065 54.14 141.15C53.65 141.23 53.175 141.14 52.765 140.93ZM51.57 139.315C51.485 138.815 51.585 138.33 51.8 137.915C52.155 138.25 52.395 138.68 52.475 139.165C52.555 139.65 52.475 140.14 52.245 140.57C51.9 140.245 51.645 139.82 51.565 139.315H51.57ZM55.975 138.575C56.055 139.055 55.975 139.52 55.775 139.925C55.445 139.6 55.22 139.18 55.14 138.715C55.06 138.25 55.14 137.78 55.34 137.365C55.66 137.685 55.895 138.095 55.975 138.575Z" fill="#E4E4E4"/>
<path d="M86.595 143.41V133.42H88.405V134.395H87.79V135.02H88.405V136.395H87.79V137.02H88.405V138.395H87.79V139.02H88.405V140.395H87.79V141.02H88.405V142.395H87.79V143.02H89.675V142.395H89.03V141.02H89.675V140.395H89.03V139.02H89.675V138.395H89.03V137.02H89.675V136.395H89.03V135.02H89.675V134.395H89.03V133.42H89.675V132.795H76.225V131.85H77.83L74.015 127.465L70.045 131.85H71.575V143.415H70V144.04H89.995V143.415H86.595V143.41ZM75.6 131.85V134.6H72.195V131.85H75.6ZM75.6 135.225V137.1H72.195V135.225H75.6ZM75.6 137.725V139.6H72.195V137.725H75.6ZM75.6 140.225V142.1H72.195V140.225H75.6ZM72.195 142.725H75.6V143.415H72.195V142.725ZM76.225 133.42H78.89V137.45C78.37 137.59 77.985 138.06 77.985 138.62C77.985 139.29 78.53 139.835 79.2 139.835C79.87 139.835 80.415 139.29 80.415 138.62C80.415 138.055 80.03 137.585 79.51 137.45V133.42H82.77V136.75C82.25 136.89 81.865 137.36 81.865 137.92C81.865 138.59 82.41 139.135 83.08 139.135C83.75 139.135 84.295 138.59 84.295 137.92C84.295 137.36 83.91 136.89 83.39 136.75V133.42H85.96V143.415H76.225V133.42ZM83.09 137.33C83.415 137.33 83.68 137.595 83.68 137.92C83.68 138.245 83.415 138.51 83.09 138.51C82.765 138.51 82.5 138.245 82.5 137.92C82.5 137.595 82.765 137.33 83.09 137.33ZM79.205 138.03C79.53 138.03 79.795 138.295 79.795 138.62C79.795 138.945 79.53 139.21 79.205 139.21C78.88 139.21 78.615 138.945 78.615 138.62C78.615 138.295 78.88 138.03 79.205 138.03ZM74.005 128.405L76.455 131.22H71.455L74.005 128.405Z" fill="#E4E4E4"/>
<path d="M116.36 127.97L115.665 126.61L113.61 127.67L114.12 128.57C114.375 129.045 114.53 129.545 114.59 129.855C114.625 130.04 114.645 130.225 114.645 130.405C114.645 131.44 114.02 132.11 113.055 132.11C112.09 132.11 111.465 131.44 111.465 130.405C111.465 130.225 111.485 130.04 111.52 129.855C111.58 129.545 111.735 129.045 111.985 128.58L112.5 127.675L110.44 126.61L109.745 127.97L110.245 128.235C109.94 128.945 109.775 129.705 109.775 130.4C109.775 132.365 111.155 133.79 113.05 133.79C114.945 133.79 116.325 132.365 116.325 130.4C116.325 129.7 116.16 128.94 115.855 128.235L116.355 127.97H116.36ZM113.055 133.165C111.495 133.165 110.405 132.03 110.405 130.4C110.405 129.715 110.6 128.925 110.94 128.235L111.075 127.965L110.59 127.71L110.72 127.455L111.64 127.93L111.445 128.275C111.155 128.81 110.98 129.38 110.91 129.735C110.865 129.96 110.845 130.185 110.845 130.405C110.845 131.8 111.735 132.735 113.06 132.735C114.385 132.735 115.275 131.8 115.275 130.405C115.275 130.185 115.255 129.96 115.21 129.735C115.14 129.38 114.965 128.81 114.675 128.265L114.48 127.925L115.4 127.45L115.53 127.705L115.045 127.96L115.18 128.23C115.52 128.92 115.715 129.71 115.715 130.395C115.715 132.02 114.625 133.16 113.065 133.16L113.055 133.165Z" fill="#E4E4E4"/>
<path d="M109.6 135.16L110.01 134.77L108.98 133.64L107.28 135.205L108.015 135.935C108.385 136.325 108.67 136.765 108.81 137.05C108.895 137.22 108.96 137.395 109.01 137.57C109.145 138.055 109.115 138.505 108.93 138.87C108.74 139.24 108.395 139.505 107.93 139.635C106.995 139.89 106.22 139.41 105.945 138.415C105.895 138.24 105.865 138.055 105.85 137.87C105.825 137.555 105.84 137.035 105.96 136.515L106.215 135.505L103.95 135.03L103.64 136.525L104.19 136.65C104.085 137.415 104.125 138.19 104.31 138.865C104.575 139.82 105.12 140.555 105.89 140.99C106.36 141.255 106.89 141.39 107.44 141.39C107.745 141.39 108.06 141.35 108.37 141.265C109.235 141.025 109.94 140.495 110.36 139.765C110.8 138.995 110.895 138.085 110.63 137.13C110.445 136.455 110.085 135.77 109.6 135.165V135.16ZM109.815 139.45C109.48 140.035 108.905 140.465 108.205 140.66C107.5 140.855 106.79 140.78 106.2 140.445C105.575 140.095 105.135 139.49 104.915 138.695C104.735 138.035 104.71 137.22 104.855 136.465L104.91 136.17L104.375 136.05L104.435 135.77L105.445 135.98L105.345 136.365C105.21 136.96 105.19 137.555 105.22 137.915C105.24 138.145 105.275 138.365 105.335 138.58C105.705 139.925 106.81 140.59 108.09 140.24C108.73 140.065 109.21 139.69 109.48 139.16C109.74 138.65 109.785 138.045 109.61 137.41C109.55 137.2 109.47 136.985 109.37 136.78C109.21 136.455 108.89 135.95 108.465 135.505L108.19 135.23L108.95 134.53L109.14 134.74L108.74 135.115L108.94 135.34C109.45 135.915 109.845 136.625 110.03 137.29C110.25 138.08 110.175 138.83 109.82 139.45H109.815Z" fill="#E4E4E4"/>
<g opacity="0.12">
<path fill-rule="evenodd" clip-rule="evenodd" d="M115.45 128.1C115.805 128.825 116.015 129.655 116.015 130.405C116.015 132.295 114.69 133.48 113.05 133.48C111.415 133.48 110.085 132.295 110.085 130.405C110.085 129.655 110.295 128.825 110.65 128.1L110.16 127.84L110.57 127.03L112.055 127.795L111.7 128.42C111.445 128.9 111.27 129.43 111.2 129.795C111.16 129.995 111.14 130.2 111.14 130.405C111.14 131.57 111.855 132.42 113.045 132.42C114.235 132.42 114.95 131.565 114.95 130.405C114.95 130.2 114.93 129.995 114.89 129.795C114.82 129.43 114.645 128.9 114.39 128.42L114.035 127.795L115.52 127.03L115.93 127.84L115.44 128.1H115.45Z" fill="#E4E4E4"/>
<path fill-rule="evenodd" clip-rule="evenodd" d="M109.175 135.135C109.71 135.74 110.13 136.48 110.33 137.21C110.83 139.035 109.865 140.53 108.29 140.96C106.71 141.395 105.12 140.605 104.615 138.78C104.415 138.055 104.4 137.2 104.55 136.41L104.01 136.29L104.195 135.4L105.83 135.745L105.655 136.44C105.535 136.97 105.505 137.525 105.535 137.895C105.55 138.1 105.585 138.305 105.64 138.5C105.95 139.62 106.865 140.255 108.01 139.94C109.155 139.625 109.62 138.61 109.31 137.49C109.255 137.29 109.18 137.1 109.09 136.915C108.925 136.58 108.615 136.115 108.24 135.725L107.735 135.22L108.965 134.085L109.575 134.755L109.17 135.135H109.175Z" fill="#E4E4E4"/>
</g>
<path d="M140.072 143.49V134.88H144.817L147.412 131.475L144.832 127.38H133.647V134.88H139.447V143.49H130.002V144.115H149.997V143.49H140.067H140.072ZM134.272 134.255V128.005H144.487L146.647 131.44L144.502 134.255H134.272Z" fill="#E4E4E4"/>
<path d="M142.442 129.125C141.852 129.125 141.357 129.545 141.212 130.125H138.312C138.177 129.53 137.672 129.085 137.072 129.085C136.367 129.085 135.797 129.69 135.797 130.435C135.797 130.705 135.872 130.96 136.007 131.175C135.872 131.395 135.797 131.65 135.797 131.915C135.797 132.66 136.367 133.265 137.072 133.265C137.642 133.265 138.132 132.86 138.292 132.305H141.212C141.357 132.885 141.852 133.305 142.442 133.305C143.142 133.305 143.717 132.7 143.717 131.955C143.717 131.685 143.642 131.43 143.507 131.215C143.642 130.995 143.717 130.74 143.717 130.475C143.717 129.73 143.147 129.125 142.442 129.125ZM142.887 131.435C143.017 131.575 143.092 131.76 143.092 131.96C143.092 132.36 142.802 132.685 142.442 132.685C142.082 132.685 141.807 132.38 141.797 131.985L141.787 131.685H137.742L137.722 131.975C137.697 132.35 137.412 132.645 137.077 132.645C136.717 132.645 136.427 132.32 136.427 131.92C136.427 131.72 136.497 131.53 136.632 131.395L136.837 131.18L136.632 130.965C136.502 130.825 136.427 130.64 136.427 130.44C136.427 130.04 136.717 129.715 137.077 129.715C137.437 129.715 137.727 130.04 137.727 130.44V130.75H141.792L141.802 130.45C141.817 130.06 142.097 129.75 142.447 129.75C142.797 129.75 143.097 130.075 143.097 130.475C143.097 130.675 143.027 130.865 142.892 131L142.687 131.215L142.892 131.43L142.887 131.435Z" fill="#E4E4E4"/>
<path d="M166.558 134.493H163.738V135.118H166.558V134.493Z" fill="#E4E4E4"/>
<path d="M176.258 134.493H173.438V135.118H176.258V134.493Z" fill="#E4E4E4"/>
<path d="M164.445 131.57L164.159 132.125L166.665 133.418L166.951 132.863L164.445 131.57Z" fill="#E4E4E4"/>
<path d="M175.348 131.57L172.842 132.863L173.129 133.419L175.635 132.126L175.348 131.57Z" fill="#E4E4E4"/>
<path d="M166.719 129.656L166.242 130.061L168.066 132.212L168.543 131.807L166.719 129.656Z" fill="#E4E4E4"/>
<path d="M173.201 129.662L171.372 131.808L171.848 132.213L173.677 130.067L173.201 129.662Z" fill="#E4E4E4"/>
<path d="M170.318 128.823H169.693V131.643H170.318V128.823Z" fill="#E4E4E4"/>
<path d="M172.703 136.043C172.788 135.768 172.838 135.483 172.838 135.198C172.838 133.613 171.548 132.318 169.958 132.318C168.368 132.318 167.078 133.608 167.078 135.198C167.078 135.493 167.133 135.783 167.218 136.058C162.998 136.528 159.918 137.878 159.883 137.898L160.138 138.468C160.183 138.448 164.568 136.518 170.038 136.518C175.508 136.518 179.818 138.448 179.863 138.468L180.123 137.898C180.088 137.883 176.988 136.498 172.708 136.043H172.703ZM167.823 135.998L167.848 135.988C167.753 135.738 167.703 135.468 167.703 135.198C167.703 133.953 168.713 132.943 169.958 132.943C171.203 132.943 172.213 133.953 172.213 135.198C172.213 135.453 172.173 135.703 172.088 135.943L172.248 135.998C171.538 135.933 170.803 135.898 170.038 135.898C169.273 135.898 168.538 135.938 167.823 136.003V135.998Z" fill="#E4E4E4"/>
<path d="M201.422 128.498C202.349 128.498 203.101 127.743 203.101 126.812C203.101 125.881 202.349 125.126 201.422 125.126C200.496 125.126 199.743 125.881 199.743 126.812C199.743 127.743 200.496 128.498 201.422 128.498ZM201.422 125.751C202.005 125.751 202.478 126.227 202.478 126.812C202.478 127.398 202.005 127.873 201.422 127.873C200.839 127.873 200.366 127.398 200.366 126.812C200.366 126.227 200.839 125.751 201.422 125.751Z" fill="#E4E4E4"/>
<path d="M190 144H190.782L191.609 142.929H208.281L209.118 143.995H209.91L207.44 140.843V135.569C208.879 135.379 210.005 133.907 210.005 132.126C210.005 131.401 209.716 129.784 209.238 128.333C208.615 126.447 207.903 125.491 207.131 125.491C206.359 125.491 205.646 126.447 205.024 128.333C204.73 129.214 204.516 130.155 204.386 130.92C202.09 131.015 200.152 131.06 198.105 130.72C197.915 129.414 197.268 126.867 196.167 126.867C195.176 126.867 194.548 128.944 194.294 130.31C194.035 130.31 193.791 130.315 193.567 130.33C192.072 130.415 191.121 130.63 190 131.155V131.851C191.166 131.26 192.067 131.04 193.597 130.955C193.781 130.945 193.98 130.94 194.189 130.94C194.169 131.115 194.159 131.255 194.159 131.346C194.159 132.536 194.892 133.517 195.848 133.697V136.419L193.91 138.881C193.88 137.73 193.656 136.609 193.253 135.664C193.407 135.424 193.427 135.113 193.278 134.848L192.63 133.742C192.416 133.377 191.943 133.252 191.579 133.467C191.405 133.572 191.275 133.737 191.225 133.937C191.176 134.138 191.205 134.343 191.305 134.523L191.953 135.629C192.057 135.804 192.222 135.934 192.421 135.984C192.486 135.999 192.55 136.009 192.615 136.009C192.65 136.009 192.685 135.999 192.72 135.994C193.113 136.96 193.318 138.121 193.293 139.306C193.223 138.906 193.098 138.441 192.894 137.975C193.009 137.755 193.009 137.48 192.874 137.25L192.521 136.644C192.421 136.469 192.257 136.349 192.062 136.299C191.868 136.249 191.669 136.279 191.494 136.379C191.32 136.479 191.2 136.644 191.151 136.84C191.101 137.035 191.131 137.235 191.23 137.41L191.584 138.021C191.724 138.261 191.973 138.391 192.232 138.391C192.286 138.391 192.336 138.381 192.391 138.371C192.506 138.656 192.585 138.951 192.645 139.236C192.351 139.016 191.988 138.866 191.549 138.896L191.589 139.522C192.237 139.482 192.605 140.002 192.76 140.352L190.005 143.85V144.005L190 144ZM192.755 135.273C192.755 135.273 192.735 135.339 192.685 135.364C192.64 135.389 192.595 135.384 192.575 135.379C192.555 135.374 192.516 135.359 192.486 135.313L191.838 134.208C191.813 134.163 191.818 134.118 191.823 134.098C191.828 134.078 191.843 134.038 191.888 134.008C191.913 133.993 191.938 133.988 191.963 133.988C192.012 133.988 192.062 134.013 192.087 134.058L192.735 135.163C192.76 135.208 192.755 135.253 192.75 135.273H192.755ZM192.291 137.745C192.232 137.78 192.152 137.76 192.117 137.7L191.763 137.09C191.738 137.05 191.743 137.015 191.748 136.995C191.753 136.975 191.768 136.94 191.808 136.915C191.833 136.9 191.853 136.895 191.873 136.895C191.888 136.895 191.898 136.895 191.903 136.895C191.923 136.895 191.958 136.915 191.983 136.955L192.336 137.56C192.371 137.62 192.351 137.7 192.291 137.735V137.745ZM207.126 126.117C207.763 126.117 209.377 129.389 209.377 132.126C209.377 133.557 208.531 134.743 207.435 134.938V132.471H206.812V134.938C206.184 134.823 205.641 134.363 205.288 133.727L204.989 132.972C204.919 132.702 204.874 132.421 204.874 132.131C204.874 129.394 206.488 126.122 207.126 126.122V126.117ZM202.423 135.459L203.081 136.299H196.745L197.397 135.459H202.423ZM199.469 134.833L200.77 134.453H203.435L202.553 134.833H199.469ZM203.081 135.283L205.004 134.458C205.462 135.063 206.1 135.474 206.812 135.569V140.047L203.076 135.283H203.081ZM204.446 133.382C204.496 133.537 204.56 133.687 204.625 133.827H202.912L204.446 133.382ZM198.159 131.361C199.36 131.551 200.521 131.616 201.731 131.616C202.548 131.616 203.395 131.586 204.291 131.551C204.267 131.771 204.252 131.971 204.252 132.126C204.252 132.346 204.271 132.566 204.301 132.777L197.054 134.888L196.471 135.629V133.697C197.422 133.517 198.149 132.546 198.159 131.361ZM194.782 131.346C194.782 130.23 195.614 127.498 196.157 127.498C196.7 127.498 197.532 130.23 197.532 131.346C197.532 132.181 197.073 132.877 196.466 133.062V131.556H195.843V133.062C195.24 132.877 194.777 132.171 194.777 131.351L194.782 131.346ZM196.262 136.925H203.574L204.262 137.8H195.584L196.262 136.925ZM195.096 138.426H204.75L205.437 139.301H194.418L195.096 138.426ZM205.925 139.927L206.613 140.803H193.258L193.935 139.927H205.925ZM207.788 142.304H192.092L192.77 141.428H207.101L207.788 142.304Z" fill="#E4E4E4"/>
</svg>
