<svg width="209" height="209" viewBox="0 0 209 209" fill="none" xmlns="http://www.w3.org/2000/svg">
<path d="M105 104H209V105H105V209H104V105H0V104H104V0H105V104ZM58.9912 183.265C61.4391 183.265 62.6396 185.264 62.6396 187.824C62.6396 187.952 62.639 188.225 62.623 188.561H57.5039C57.6959 189.696 58.3995 190.288 59.3594 190.288C60.0634 190.288 60.6074 189.968 61.1514 189.44L62.3193 190.816C61.5354 191.68 60.5436 192.192 59.2637 192.192C56.9917 192.192 55.2471 190.481 55.2471 187.809V187.664C55.2472 185.12 56.8315 183.265 58.9912 183.265ZM31.124 183.328C32.2919 183.328 33.1724 183.648 33.7324 184.208C34.3244 184.8 34.6123 185.697 34.6123 186.801V192.001H32.3887V191.072C31.8767 191.744 31.1721 192.16 30.1641 192.16C28.7562 192.16 27.6202 191.217 27.6201 189.553V189.456C27.6203 187.568 28.8524 186.721 30.6123 186.721C31.3323 186.721 31.8763 186.864 32.4043 187.072V186.816C32.4043 185.824 31.8121 185.312 30.7881 185.312C29.9882 185.313 29.3483 185.569 28.8203 185.793L28.1963 184.017C29.0282 183.601 29.8921 183.328 31.124 183.328ZM43.2393 183.425H44.9355V185.345H43.2393V189.393C43.2393 189.889 43.4634 190.129 43.9434 190.129C44.2952 190.129 44.6311 190.033 44.9189 189.889V191.696C44.471 191.952 43.9272 192.145 43.2393 192.145C41.9273 192.145 40.9668 191.632 40.9668 189.856V185.345H40.1035V183.425H40.9668V181.232H43.2393V183.425ZM52.6299 183.425H54.3262V185.345H52.6299V189.393C52.6299 189.889 52.854 190.129 53.334 190.129C53.6858 190.129 54.0217 190.033 54.3096 189.889V191.696C53.8616 191.952 53.3178 192.145 52.6299 192.145C51.3179 192.145 50.3574 191.632 50.3574 189.856V185.345H49.4941V183.425H50.3574V181.232H52.6299V183.425ZM74.5674 183.425H76.2637V185.345H74.5674V189.393C74.5674 189.889 74.7915 190.129 75.2715 190.129C75.6233 190.129 75.9592 190.033 76.2471 189.889V191.696C75.7991 191.952 75.2553 192.145 74.5674 192.145C73.2554 192.145 72.2949 191.632 72.2949 189.856V185.345H71.4316V183.425H72.2949V181.232H74.5674V183.425ZM38.7012 192.001H36.4297V180.448H38.7012V192.001ZM66.9873 185.937L68.3477 183.425H70.6992L68.2197 187.601L70.7949 192.001H68.3789L66.9551 189.328L65.5156 192.001H63.1475L65.707 187.633L63.2432 183.425H65.6436L66.9873 185.937ZM25.9971 184.288L21.2764 186.353L25.9971 188.416V190.704L19.0371 187.408V185.328L25.9971 182.032V184.288ZM84.9561 185.328V187.408L77.9961 190.704V188.448L82.7158 186.385L77.9961 184.32V182.032L84.9561 185.328ZM31.1719 188.192C30.3401 188.193 29.8125 188.609 29.8125 189.393V189.425C29.8126 190.129 30.2602 190.48 30.916 190.496C31.796 190.512 32.4365 189.969 32.4365 189.185V188.465C32.1005 188.305 31.6359 188.192 31.1719 188.192ZM171.888 124.5C172.461 124.5 172.937 124.97 172.937 125.549V133.475C172.936 135.208 171.525 136.619 169.791 136.619H159.097C158.518 136.619 158.049 137.089 158.049 137.668V148.577H186.354C188.088 148.577 189.5 149.989 189.5 151.723V186.354C189.5 188.088 188.088 189.5 186.354 189.5H127.646C125.912 189.5 124.5 188.088 124.5 186.354V151.723C124.5 149.989 125.912 148.577 127.646 148.577H155.951V137.668C155.951 135.934 157.363 134.523 159.097 134.522H169.791C170.364 134.522 170.84 134.053 170.84 133.475V125.549C170.84 124.97 171.314 124.5 171.888 124.5ZM58.9912 185.137C58.1594 185.137 57.6153 185.841 57.4873 187.057H60.4473C60.3513 185.873 59.8392 185.137 58.9912 185.137ZM131.391 176.27C130.432 176.27 129.644 177.053 129.644 178.017V182.713C129.644 183.677 130.432 184.46 131.391 184.46H136.095C137.058 184.46 137.842 183.677 137.842 182.713V178.017C137.842 177.053 137.058 176.27 136.095 176.27H131.391ZM144.083 174.746C143.119 174.746 142.336 175.529 142.336 176.493V182.713C142.336 183.676 143.119 184.46 144.083 184.46H169.916C170.88 184.46 171.663 183.676 171.663 182.713V176.493C171.663 175.529 170.88 174.746 169.916 174.746H144.083ZM177.905 176.27C176.942 176.27 176.157 177.053 176.157 178.017V182.713C176.157 183.677 176.942 184.46 177.905 184.46H182.609C183.567 184.46 184.356 183.676 184.356 182.713V178.017C184.356 177.053 183.567 176.27 182.609 176.27H177.905ZM143.21 164.639C142.246 164.639 141.462 165.422 141.462 166.386V171.09C141.462 172.054 142.246 172.838 143.21 172.838H147.914C148.878 172.838 149.661 172.053 149.661 171.09V166.386C149.661 165.422 148.878 164.639 147.914 164.639H143.21ZM166.086 164.639C165.122 164.639 164.338 165.422 164.338 166.386V171.09C164.338 172.054 165.122 172.838 166.086 172.838H170.79C171.754 172.838 172.537 172.054 172.537 171.09V166.386C172.537 165.422 171.754 164.639 170.79 164.639H166.086ZM177.905 164.639C176.942 164.639 176.157 165.422 176.157 166.386V171.09C176.157 172.054 176.942 172.838 177.905 172.838H182.609C183.567 172.838 184.356 172.053 184.356 171.09V166.386C184.356 165.422 183.567 164.639 182.609 164.639H177.905ZM131.391 164.639C130.432 164.639 129.644 165.422 129.644 166.386V171.09C129.644 172.054 130.432 172.837 131.391 172.837H136.095C137.058 172.837 137.842 172.054 137.842 171.09V166.386C137.842 165.422 137.058 164.639 136.095 164.639H131.391ZM154.777 164.639C153.814 164.639 153.03 165.422 153.03 166.386V171.09C153.03 172.054 153.814 172.837 154.777 172.837H159.481C160.44 172.837 161.229 172.054 161.229 171.09V166.386C161.228 165.422 160.44 164.639 159.481 164.639H154.777ZM42.6162 159.328C43.7841 159.328 44.6646 159.648 45.2246 160.208C45.8166 160.8 46.1045 161.697 46.1045 162.801V168.001H43.8809V167.072C43.3689 167.744 42.6643 168.16 41.6562 168.16C40.2484 168.16 39.1124 167.217 39.1123 165.553V165.456C39.1125 163.568 40.3446 162.721 42.1045 162.721C42.8244 162.721 43.3685 162.864 43.8965 163.072V162.816C43.8965 161.824 43.3042 161.312 42.2803 161.312C41.4803 161.313 40.8405 161.569 40.3125 161.793L39.6885 160.017C40.5204 159.601 41.3843 159.328 42.6162 159.328ZM61.0381 159.328C62.206 159.328 63.0865 159.648 63.6465 160.208C64.2385 160.8 64.5264 161.697 64.5264 162.801V168.001H62.3027V167.072C61.7907 167.744 61.0861 168.16 60.0781 168.16C58.6703 168.16 57.5343 167.217 57.5342 165.553V165.456C57.5344 163.568 58.7665 162.721 60.5264 162.721C61.2463 162.721 61.7904 162.864 62.3184 163.072V162.816C62.3183 161.824 61.7261 161.312 60.7021 161.312C59.9022 161.313 59.2623 161.569 58.7344 161.793L58.1104 160.017C58.9423 159.601 59.8062 159.328 61.0381 159.328ZM52.4336 159.28V161.744H52.3379C50.9459 161.744 50.1133 162.608 50.1133 164.4V168.001H47.8418V159.425H50.1133V160.944C50.5293 159.904 51.2177 159.216 52.4336 159.28ZM56.0684 168.001H53.7969V159.425H56.0684V168.001ZM37.4893 160.288L32.7686 162.353L37.4893 164.416V166.704L30.5293 163.408V161.328L37.4893 158.032V160.288ZM73.4639 161.328V163.408L66.5039 166.704V164.448L71.2236 162.385L66.5039 160.32V158.032L73.4639 161.328ZM42.6641 164.192C41.8323 164.193 41.3047 164.609 41.3047 165.393V165.425C41.3048 166.129 41.7524 166.48 42.4082 166.496C43.2882 166.512 43.9287 165.969 43.9287 165.185V164.465C43.5927 164.305 43.1281 164.192 42.6641 164.192ZM61.0859 164.192C60.2542 164.193 59.7266 164.609 59.7266 165.393V165.425C59.7267 166.129 60.1743 166.48 60.8301 166.496C61.71 166.512 62.3505 165.969 62.3506 165.185V164.465C62.0146 164.305 61.5499 164.192 61.0859 164.192ZM177.904 153.205C176.941 153.205 176.157 153.989 176.157 154.952V159.656C176.157 160.614 176.941 161.404 177.904 161.404H182.608C183.567 161.404 184.355 160.615 184.355 159.656V154.952C184.355 153.989 183.567 153.205 182.608 153.205H177.904ZM131.391 153.204C130.432 153.204 129.644 153.988 129.644 154.952V159.656C129.644 160.614 130.432 161.403 131.391 161.403H136.095C137.058 161.403 137.842 160.614 137.842 159.656V154.952C137.842 153.988 137.058 153.204 136.095 153.204H131.391ZM143.21 153.205C142.246 153.205 141.462 153.988 141.462 154.952V159.656C141.462 160.614 142.246 161.403 143.21 161.403H147.914C148.878 161.403 149.661 160.614 149.661 159.656V154.952C149.661 153.989 148.878 153.205 147.914 153.205H143.21ZM154.777 153.205C153.814 153.205 153.03 153.988 153.03 154.952V159.656C153.03 160.614 153.814 161.403 154.777 161.403H159.481C160.44 161.403 161.228 160.614 161.229 159.656V154.952C161.229 153.988 160.44 153.205 159.481 153.205H154.777ZM166.086 153.205C165.122 153.205 164.338 153.988 164.338 154.952V159.656C164.338 160.614 165.122 161.403 166.086 161.403H170.79C171.754 161.403 172.537 160.614 172.537 159.656V154.952C172.537 153.988 171.754 153.205 170.79 153.205H166.086ZM56.1162 158.513H53.749V156.448H56.1162V158.513ZM42.1963 116.001C42.7789 116.001 43.196 116.268 43.1963 116.533V141.468C43.1956 141.778 42.7786 142.001 42.1963 142.001C41.6138 142.001 41.197 141.778 41.1963 141.468V116.533C41.1965 116.223 41.6135 116.001 42.1963 116.001ZM61.0029 116.001C61.5878 116.001 62.0046 116.268 62.0049 116.533L62.001 141.468C62.0003 141.778 61.5843 142.001 61.0029 142.001C60.4213 142.001 60.0056 141.778 60.0049 141.468V116.533C60.0051 116.223 60.421 116.001 61.0029 116.001ZM39.4961 121.001C40.0788 121.001 40.4961 121.227 40.4961 121.543V137.458C40.4957 137.774 40.0785 138 39.4961 138C38.9133 138 38.4965 137.774 38.4961 137.458V121.543C38.4961 121.227 38.913 121.001 39.4961 121.001ZM44.8955 121.001C45.3937 121.001 45.8955 121.227 45.8955 121.543V137.458C45.8951 137.774 45.478 138 44.8955 138C44.313 138 43.8969 137.774 43.8965 137.458V121.543C43.8965 121.227 44.3127 121.001 44.8955 121.001ZM58.3027 121.001C58.8878 121.001 59.3047 121.227 59.3047 121.543L59.3018 137.458C59.3013 137.774 58.8843 138 58.3027 138C57.7211 138 57.3051 137.774 57.3047 137.458V121.543C57.3047 121.227 57.7208 121.001 58.3027 121.001ZM63.7031 121.001C64.2037 121.001 64.7041 121.227 64.7041 121.543L64.7012 137.458C64.7007 137.774 64.2846 138 63.7031 138C63.1213 138 62.7055 137.774 62.7051 137.458V121.543C62.7051 121.227 63.121 121.001 63.7031 121.001ZM36.8398 125.001C37.3412 125.001 37.8398 125.253 37.8398 125.505V132.498C37.8394 132.791 37.4222 133 36.8398 133C36.2571 133 35.8403 132.791 35.8398 132.498V125.503C35.8398 125.21 36.2568 125.001 36.8398 125.001ZM47.5498 125.001C48.1326 125.001 48.5498 125.253 48.5498 125.505V132.498C48.5493 132.791 48.1323 133 47.5498 133C46.9672 133 46.5503 132.791 46.5498 132.498V125.503C46.5498 125.21 46.9669 125.001 47.5498 125.001ZM55.6494 125.001C56.1508 125.001 56.568 125.253 56.6494 125.505V132.498C56.649 132.791 56.2319 133 55.6494 133C55.0669 133 54.6509 132.791 54.6504 132.498V125.503C54.6504 125.21 55.0666 125.001 55.6494 125.001ZM66.3613 125.001C66.9439 125.001 67.3604 125.253 67.3604 125.505V132.498C67.3599 132.791 66.9436 133 66.3613 133C65.7786 133 65.3618 132.791 65.3613 132.498V125.503C65.3613 125.21 65.7783 125.001 66.3613 125.001ZM34.6543 127.001C35.2366 127.001 35.653 127.251 35.6533 127.5V130.501C35.6526 130.792 35.2363 131.001 34.6543 131.001C34.0718 131.001 33.655 130.792 33.6543 130.501V127.5C33.6546 127.209 34.0714 127.001 34.6543 127.001ZM50.25 127.001C50.8326 127.001 51.2497 127.251 51.25 127.5V130.501C51.2493 130.792 50.8323 131.001 50.25 131.001C49.6675 131.001 49.2507 130.792 49.25 130.501V127.5C49.2503 127.209 49.6671 127.001 50.25 127.001ZM52.9502 127.001C53.4514 127.001 53.9498 127.251 53.9502 127.5V130.501C53.9495 130.792 53.5324 131.001 52.9502 131.001C52.3677 131.001 51.9509 130.792 51.9502 130.501V127.5C51.9505 127.209 52.3673 127.001 52.9502 127.001ZM69.3477 127.001C69.9302 127.001 70.3473 127.251 70.3477 127.5V130.501C70.3469 130.792 69.9299 131.001 69.3477 131.001C68.7651 131.001 68.3484 130.792 68.3477 130.501V127.5C68.3479 127.209 68.7648 127.001 69.3477 127.001ZM51.7197 77.7998C54.0876 77.7998 55.656 79.1438 55.6562 81.3516V81.3838C55.6562 83.7517 53.8641 85.0318 51.5762 85.0479H49.5596V89H48.3438V77.7998H51.7197ZM181 20C185.418 20 189 23.5817 189 28V76C189 80.4183 185.418 84 181 84H133C128.582 84 125 80.4183 125 76V28C125 23.5817 128.582 20 133 20H181ZM49.5596 83.96H51.6084C53.3522 83.9598 54.456 82.9519 54.4561 81.416V81.3838C54.456 79.7839 53.3516 78.9043 51.6396 78.9043H49.5596V83.96ZM146.272 71H148.608L149.424 68.5684H153.28L154.112 71H156.512L152.496 59.7363H150.288L146.272 71ZM156.788 71H159.124L159.939 68.5684H163.796L164.628 71H167.027L163.012 59.7363H160.804L156.788 71ZM152.576 66.5195H150.128L151.36 62.8721L152.576 66.5195ZM163.092 66.5195H160.644L161.876 62.8721L163.092 66.5195ZM37.5039 23.4961C35.392 24.8881 34.8643 26.0401 34.8643 29.208V38.9043H48.7363V29.208C48.7363 26.04 48.2557 24.8881 46.0957 23.4961V23.4004H60.4482V23.4961C58.2882 24.8881 57.8076 26.04 57.8076 29.208V51.1436C57.8076 54.3116 58.2882 55.5123 60.4482 56.9043V57H46.0957V56.9043C48.2557 55.5123 48.7363 54.3116 48.7363 51.1436V40.3438H34.8643V51.1436C34.8643 54.3116 35.3919 55.5123 37.5039 56.9043V57H23.2002V56.9043C25.3122 55.5123 25.8398 54.3116 25.8398 51.1436V29.208C25.8398 26.0401 25.312 24.888 23.2002 23.4961V23.4004H37.5039V23.4961ZM76.9199 52.8242C76.92 55.272 77.9284 55.3678 81.5283 56.7598V57H63.1924V56.7598C66.8881 55.3679 67.8486 55.272 67.8486 52.8242V27.624C67.8486 25.176 66.8399 25.1276 63.0479 23.6396V23.4004H76.9199V52.8242ZM141.272 45H143.608L144.424 42.5684H148.28L149.112 45H151.512L147.496 33.7363H145.288L141.272 45ZM151.788 45H154.124L154.939 42.5684H158.796L159.628 45H162.027L158.012 33.7363H155.804L151.788 45ZM162.304 45H164.64L165.455 42.5684H169.312L170.144 45H172.543L168.527 33.7363H166.319L162.304 45ZM147.576 40.5195H145.128L146.36 36.8721L147.576 40.5195ZM158.092 40.5195H155.644L156.876 36.8721L158.092 40.5195ZM168.607 40.5195H166.159L167.392 36.8721L168.607 40.5195Z" fill="#E4E4E4"/>
</svg>
