<svg width="32" height="32" viewBox="0 0 32 32" fill="none" xmlns="http://www.w3.org/2000/svg">
<path d="M28.6162 24.6357H31.4004V25.6357H0.599609V24.6357H3.38379V5.56445H28.6162V24.6357ZM4.38379 24.6357H12.2881V6.56445H4.38379V24.6357ZM13.2881 7.33984H17.9844V23.5479H13.2881V24.6357H18.6875V6.56445H13.2881V7.33984ZM19.6875 7.33984H22.9121V23.5557H19.6875V24.6357H23.6162V6.56445H19.6875V7.33984ZM24.6162 7.33984H26.9121V23.5557H24.6162V24.6357H27.6162V6.56445H24.6162V7.33984ZM11.584 23.5479H5.08789V18.7324H6.08789V22.5479H10.584V8.33984H6.08789V12.4922H5.08789V7.33984H11.584V23.5479ZM13.2881 22.5479H16.9844V8.33984H13.2881V22.5479ZM19.6875 22.5479H21.9121V8.33984H19.6875V22.5479ZM24.6162 22.5479H25.9121V8.33984H24.6162V22.5479ZM6.08789 14.3398V16.5479H5.08789V14.3398H6.08789Z" fill="black"/>
</svg>
