<svg width="32" height="32" viewBox="0 0 32 32" fill="none" xmlns="http://www.w3.org/2000/svg">
<path d="M17.3877 12.6162V15.2803H21.252C21.244 15.1843 21.2197 15.0957 21.1797 15.0557C20.9396 14.816 20.5238 14.7998 20.084 14.7998V13.7998C20.5479 13.7998 21.3316 13.792 21.8916 14.3516C22.1636 14.6316 22.2358 14.9843 22.2598 15.2803H23.5957L23.5645 12.3916C23.6126 11.8316 23.9883 10.8565 25.0439 10.8564C26.0999 10.8564 26.4919 11.8161 26.5479 12.3281L26.0518 12.3838L25.5557 12.4404C25.5477 12.3364 25.4519 11.8477 25.0439 11.8477C24.6363 11.8478 24.5725 12.3274 24.5645 12.4238L24.5957 15.2725H26.0205C26.0445 14.9765 26.1077 14.6237 26.3877 14.3438C26.9477 13.7837 27.7325 13.792 28.1885 13.792V14.792C27.7645 14.784 27.3476 14.7999 27.0996 15.0479C27.0598 15.0879 27.0443 15.168 27.0283 15.2637H31.9561L31.9482 15.2881V18.0244H30.7637V31.1758H1.27637V18.0244H0.0439453V15.2881H3.01172V12.6562L3.50781 7.12793H16.9639L17.3877 12.6162ZM2.27637 30.1523H29.7637V18H2.27637V30.1523ZM17.1318 18.8164V29.2803H3.26855V18.8164H17.1318ZM28.6436 29.2803H18.9004V18.8164H28.6436V29.2803ZM4.26855 19.8164V28.2803H9.7002V19.8164H4.26855ZM10.7002 19.8164V28.2803H16.1318V19.8164H10.7002ZM19.9004 28.2803H27.6436V19.8164H19.9004V28.2803ZM1.04395 17H30.9561V16.2637H1.04395V17ZM4.01172 15.2637H16.3877V13.1357H4.01172V15.2637ZM4.06055 12.1357H16.3564L16.0439 8.10449H4.41992L4.06055 12.1357Z" fill="black"/>
</svg>
