<svg width="29" height="29" viewBox="0 0 29 29" fill="none" xmlns="http://www.w3.org/2000/svg">
<path fill-rule="evenodd" clip-rule="evenodd" d="M22.0922 16.2937H27.8522V15.3469H22.0922V16.2937ZM27.7726 27.8531H27.7147L24.6164 17.28H26.4454L27.7726 27.8531ZM21.1054 18.2268H20.1586V13.4137H20.632C20.8935 13.4137 21.1054 13.6292 21.1054 13.895V18.2268ZM18.7186 8.65581H18.2386V7.69712C18.2386 5.57927 16.5194 3.86238 14.3986 3.86238C12.2778 3.86238 10.5586 5.57927 10.5586 7.69712V8.65581H10.0786C9.28431 8.6582 8.64099 9.30064 8.63859 10.0938V10.5732H6.23859C5.97351 10.5732 5.75859 10.3586 5.75859 10.0938V1.46567C5.75859 1.20095 5.97351 0.986328 6.23859 0.986328H22.5586C22.8237 0.986328 23.0386 1.20095 23.0386 1.46567V10.0938C23.0386 10.3586 22.8237 10.5732 22.5586 10.5732H20.1586V10.0938C20.1562 9.30064 19.5129 8.6582 18.7186 8.65581V8.65581ZM11.5172 8.64003V7.68332C11.5172 6.09817 12.8066 4.81318 14.3972 4.81318C15.9878 4.81318 17.2772 6.09817 17.2772 7.68332V8.64003H11.5172ZM19.1704 19.6865H9.58359V10.1053C9.58359 9.84077 9.79822 9.62627 10.0629 9.62627H18.6911C18.9558 9.62627 19.1704 9.84077 19.1704 10.1053V19.6865ZM13.9289 23.5135H14.8758V20.6335H13.9289V23.5135ZM14.4023 27.8136C14.1409 27.8136 13.9289 27.6017 13.9289 27.3402C13.9289 27.0788 14.1409 26.8668 14.4023 26.8668C14.6638 26.8668 14.8758 27.0788 14.8758 27.3402C14.8758 27.6017 14.6638 27.8136 14.4023 27.8136V27.8136ZM19.2117 26.8668C19.4732 26.8668 19.6851 27.0788 19.6851 27.3402C19.6851 27.6017 19.4732 27.8136 19.2117 27.8136C18.9503 27.8136 18.7383 27.6017 18.7383 27.3402C18.7383 27.0788 18.9503 26.8668 19.2117 26.8668V26.8668ZM9.58592 27.8136C9.32448 27.8136 9.1125 27.6017 9.1125 27.3402C9.1125 27.0788 9.32448 26.8668 9.58592 26.8668C9.84737 26.8668 10.0593 27.0788 10.0593 27.3402C10.0593 27.6017 9.84737 27.8136 9.58592 27.8136V27.8136ZM8.63904 18.2268H7.69219V13.895C7.69219 13.6292 7.90416 13.4137 8.16561 13.4137H8.63904V18.2268ZM0.949219 16.2937H6.70922V15.3469H0.949219V16.2937ZM1.08447 27.8531H1.02656L2.3537 17.28H4.18273L1.08447 27.8531ZM28.8 16.7974V14.8777C28.8 14.6127 28.5851 14.3978 28.32 14.3978H22.08V13.9179C22.0776 13.1237 21.4343 12.4805 20.64 12.4781H20.16V11.5182H22.56C23.3543 11.5159 23.9976 10.8726 24 10.0784V1.43978C23.9976 0.64562 23.3543 0.00239963 22.56 0H6.24C5.44572 0.00239963 4.8024 0.64562 4.8 1.43978V10.0784C4.8024 10.8726 5.44572 11.5159 6.24 11.5182H8.64V12.4781H8.16C7.36572 12.4805 6.7224 13.1237 6.72 13.9179V14.3978H0.48C0.21492 14.3978 0 14.6127 0 14.8777V16.7974C0 17.0625 0.21492 17.2773 0.48 17.2773H1.3776L0.0048 28.258C-0.01386 28.3937 0.02832 28.5307 0.12 28.6324C0.21024 28.7369 0.34188 28.7966 0.48 28.7956H1.44C1.65336 28.7956 1.84104 28.6548 1.9008 28.45L5.16 17.2773H6.72V18.7171C6.72 18.9822 6.93492 19.197 7.2 19.197H8.64V20.1569C8.64 20.4219 8.85492 20.6368 9.12 20.6368H12.96V23.5164H9.6C9.33492 23.5164 9.12 23.7313 9.12 23.9963V26.0024C8.37018 26.2674 7.97724 27.0901 8.24238 27.8397C8.50746 28.5894 9.33018 28.9823 10.08 28.7173C10.8298 28.4522 11.2228 27.6296 10.9576 26.8799C10.8127 26.4699 10.4901 26.1473 10.08 26.0024V24.4762H13.92V26.0024C13.1702 26.2674 12.7772 27.0901 13.0424 27.8397C13.3075 28.5894 14.1302 28.9823 14.88 28.7173C15.6298 28.4522 16.0228 27.6296 15.7576 26.8799C15.6127 26.4699 15.2901 26.1473 14.88 26.0024V24.4762H18.72V26.0024C17.9702 26.2674 17.5772 27.0901 17.8424 27.8397C18.1075 28.5894 18.9302 28.9823 19.68 28.7173C20.4298 28.4522 20.8228 27.6296 20.5576 26.8799C20.4127 26.4699 20.0901 26.1473 19.68 26.0024V23.9963C19.68 23.7313 19.4651 23.5164 19.2 23.5164H15.84V20.6368H19.68C19.9451 20.6368 20.16 20.4219 20.16 20.1569V19.197H21.6C21.8651 19.197 22.08 18.9822 22.08 18.7171V17.2773H23.64L26.8992 28.45C26.959 28.6548 27.1466 28.7956 27.36 28.7956H28.32C28.4581 28.7966 28.5898 28.7369 28.68 28.6324C28.7717 28.5307 28.8139 28.3937 28.7952 28.258L27.4224 17.2773H28.32C28.5851 17.2773 28.8 17.0625 28.8 16.7974V16.7974Z" fill="black"/>
</svg>
