<svg width="32" height="32" viewBox="0 0 32 32" fill="none" xmlns="http://www.w3.org/2000/svg">
<g clip-path="url(#clip0_5_876)">
<path d="M26.9723 1.59961C27.2052 1.59961 27.394 1.78862 27.3942 2.02148V29.9785C27.394 30.2114 27.2052 30.4004 26.9723 30.4004H5.02795C4.79496 30.4004 4.60629 30.2114 4.60608 29.9785V2.02148C4.60629 1.78862 4.79496 1.59961 5.02795 1.59961H26.9723ZM5.44983 6.61328H5.8717C6.1047 6.61328 6.29338 6.80228 6.29358 7.03516C6.29358 7.26809 6.10482 7.45703 5.8717 7.45703H5.44983V24.0723H5.8717C6.10482 24.0723 6.29358 24.2612 6.29358 24.4941C6.29342 24.727 6.10472 24.916 5.8717 24.916H5.44983V29.5566H15.5778V2.44336H5.44983V6.61328ZM16.4225 29.5566H26.5504V24.916H26.0719C25.8389 24.9159 25.6502 24.7269 25.65 24.4941C25.65 24.2612 25.8388 24.0723 26.0719 24.0723H26.5504V7.45703H26.0719C25.8388 7.45695 25.65 7.26804 25.65 7.03516C25.6502 6.80233 25.839 6.61336 26.0719 6.61328H26.5504V4.13086H23.6803C22.9825 4.13105 22.4149 4.69898 22.4147 5.39648V5.96191C23.7063 6.14751 24.73 7.17164 24.9156 8.46289H25.0875C25.3205 8.46298 25.5094 8.65178 25.5094 8.88477C25.5092 9.11761 25.3204 9.30655 25.0875 9.30664H18.8981C18.6651 9.30664 18.4764 9.11767 18.4762 8.88477C18.4762 8.65172 18.665 8.46289 18.8981 8.46289H19.069C19.2546 7.17162 20.2792 6.14748 21.5709 5.96191V5.39648C21.5712 4.23368 22.5171 3.2873 23.6803 3.28711H26.5504V2.44336H16.4225V29.5566ZM20.3131 25.3398C20.5476 25.3398 20.7379 25.5301 20.7379 25.7646V26.6133C20.7379 26.8478 20.5475 27.0381 20.3131 27.0381C20.0788 27.0379 19.8893 26.8477 19.8893 26.6133V25.7646C19.8893 25.5302 20.0788 25.34 20.3131 25.3398ZM21.9772 25.3398C22.2116 25.3399 22.402 25.5302 22.402 25.7646V26.6133C22.402 26.8477 22.2116 27.038 21.9772 27.0381C21.7427 27.0381 21.5524 26.8478 21.5524 26.6133V25.7646C21.5524 25.5301 21.7427 25.3398 21.9772 25.3398ZM23.6754 25.3398C23.9099 25.3398 24.1002 25.5301 24.1002 25.7646V26.6133C24.1002 26.8478 23.9099 27.0381 23.6754 27.0381C23.441 27.038 23.2506 26.8477 23.2506 26.6133V25.7646C23.2506 25.5302 23.441 25.3399 23.6754 25.3398ZM20.3131 22.792C20.5475 22.792 20.7379 22.9823 20.7379 23.2168V24.0664C20.7377 24.3007 20.5474 24.4902 20.3131 24.4902C20.0789 24.4901 19.8895 24.3006 19.8893 24.0664V23.2168C19.8893 22.9824 20.0788 22.7921 20.3131 22.792ZM21.9772 22.792C22.2115 22.792 22.4019 22.9824 22.402 23.2168V24.0664C22.4017 24.3007 22.2114 24.4902 21.9772 24.4902C21.7429 24.4902 21.5526 24.3007 21.5524 24.0664V23.2168C21.5524 22.9823 21.7428 22.792 21.9772 22.792ZM23.6754 22.792C23.9098 22.792 24.1002 22.9823 24.1002 23.2168V24.0664C24.1 24.3007 23.9097 24.4902 23.6754 24.4902C23.4411 24.4902 23.2508 24.3007 23.2506 24.0664V23.2168C23.2507 22.9824 23.441 22.792 23.6754 22.792ZM20.3131 20.2793C20.5476 20.2793 20.7379 20.4696 20.7379 20.7041V21.5527C20.7379 21.7872 20.5476 21.9775 20.3131 21.9775C20.0788 21.9774 19.8893 21.7871 19.8893 21.5527V20.7041C19.8893 20.4697 20.0788 20.2795 20.3131 20.2793ZM21.9772 20.2793C22.2116 20.2794 22.402 20.4696 22.402 20.7041V21.5527C22.402 21.7872 22.2116 21.9775 21.9772 21.9775C21.7427 21.9775 21.5524 21.7872 21.5524 21.5527V20.7041C21.5524 20.4696 21.7427 20.2793 21.9772 20.2793ZM23.6754 20.2793C23.9099 20.2793 24.1002 20.4696 24.1002 20.7041V21.5527C24.1002 21.7872 23.9099 21.9775 23.6754 21.9775C23.441 21.9775 23.2506 21.7872 23.2506 21.5527V20.7041C23.2506 20.4696 23.441 20.2793 23.6754 20.2793ZM20.3131 17.7324C20.5475 17.7324 20.7377 17.9219 20.7379 18.1562V19.0059C20.7378 19.2403 20.5475 19.4297 20.3131 19.4297C20.0789 19.4295 19.8894 19.2402 19.8893 19.0059V18.1562C19.8894 17.922 20.0789 17.7326 20.3131 17.7324ZM21.9772 17.7324C22.2115 17.7325 22.4018 17.9219 22.402 18.1562V19.0059C22.4018 19.2402 22.2115 19.4296 21.9772 19.4297C21.7428 19.4297 21.5525 19.2403 21.5524 19.0059V18.1562C21.5525 17.9219 21.7428 17.7324 21.9772 17.7324ZM23.6754 17.7324C23.9098 17.7324 24.1001 17.9219 24.1002 18.1562V19.0059C24.1001 19.2403 23.9098 19.4297 23.6754 19.4297C23.4411 19.4296 23.2507 19.2402 23.2506 19.0059V18.1562C23.2508 17.9219 23.4411 17.7325 23.6754 17.7324ZM14.3024 13.1475C14.5367 13.1476 14.7262 13.3363 14.7262 13.5693V18.6348C14.7261 18.8677 14.5366 19.0565 14.3024 19.0566C14.0679 19.0566 13.8777 18.8678 13.8776 18.6348V13.5693C13.8776 13.3362 14.0679 13.1475 14.3024 13.1475ZM17.6979 13.1475C17.9323 13.1475 18.1227 13.3362 18.1227 13.5693V18.6348C18.1225 18.8678 17.9322 19.0566 17.6979 19.0566C17.4636 19.0565 17.2742 18.8677 17.274 18.6348V13.5693C17.274 13.3363 17.4636 13.1476 17.6979 13.1475ZM20.3131 15.2188C20.5476 15.2188 20.7379 15.409 20.7379 15.6436V16.4922C20.7379 16.7267 20.5476 16.917 20.3131 16.917C20.0788 16.9168 19.8893 16.7266 19.8893 16.4922V15.6436C19.8893 15.4091 20.0788 15.2189 20.3131 15.2188ZM21.9772 15.2188C22.2116 15.2188 22.402 15.4091 22.402 15.6436V16.4922C22.402 16.7267 22.2116 16.9169 21.9772 16.917C21.7427 16.917 21.5524 16.7267 21.5524 16.4922V15.6436C21.5524 15.409 21.7427 15.2188 21.9772 15.2188ZM23.6754 15.2188C23.9099 15.2188 24.1002 15.409 24.1002 15.6436V16.4922C24.1002 16.7267 23.9099 16.917 23.6754 16.917C23.441 16.9169 23.2506 16.7267 23.2506 16.4922V15.6436C23.2506 15.4091 23.441 15.2188 23.6754 15.2188ZM20.3131 12.6719C20.5476 12.6719 20.7379 12.8622 20.7379 13.0967V13.9453C20.7379 14.1798 20.5476 14.3701 20.3131 14.3701C20.0788 14.37 19.8893 14.1797 19.8893 13.9453V13.0967C19.8893 12.8623 20.0788 12.672 20.3131 12.6719ZM21.9772 12.6719C22.2116 12.6719 22.402 12.8622 22.402 13.0967V13.9453C22.402 14.1798 22.2116 14.3701 21.9772 14.3701C21.7427 14.3701 21.5524 14.1798 21.5524 13.9453V13.0967C21.5524 12.8622 21.7427 12.6719 21.9772 12.6719ZM23.6754 12.6719C23.9099 12.6719 24.1002 12.8622 24.1002 13.0967V13.9453C24.1002 14.1798 23.9099 14.3701 23.6754 14.3701C23.441 14.3701 23.2506 14.1798 23.2506 13.9453V13.0967C23.2506 12.8622 23.441 12.6719 23.6754 12.6719ZM20.3131 10.1582C20.5476 10.1582 20.7379 10.3485 20.7379 10.583V11.4316C20.7379 11.6662 20.5476 11.8564 20.3131 11.8564C20.0788 11.8563 19.8893 11.6661 19.8893 11.4316V10.583C19.8893 10.3486 20.0788 10.1584 20.3131 10.1582ZM21.9772 10.1582C22.2116 10.1583 22.402 10.3485 22.402 10.583V11.4316C22.402 11.6661 22.2116 11.8564 21.9772 11.8564C21.7427 11.8564 21.5524 11.6662 21.5524 11.4316V10.583C21.5524 10.3485 21.7427 10.1582 21.9772 10.1582ZM23.6754 10.1582C23.9099 10.1582 24.1002 10.3485 24.1002 10.583V11.4316C24.1002 11.6662 23.9099 11.8564 23.6754 11.8564C23.441 11.8564 23.2506 11.6661 23.2506 11.4316V10.583C23.2506 10.3485 23.441 10.1583 23.6754 10.1582ZM21.9928 6.77539C20.9738 6.77539 20.1215 7.50124 19.9254 8.46289H24.0602C23.8641 7.50131 23.0117 6.77549 21.9928 6.77539Z" fill="black"/>
</g>
<defs>
<clipPath id="clip0_5_876">
<rect width="32" height="32" fill="white"/>
</clipPath>
</defs>
</svg>
