<svg width="32" height="32" viewBox="0 0 32 32" fill="none" xmlns="http://www.w3.org/2000/svg">
<g clip-path="url(#clip0_2_244)">
<path d="M26.2096 24.7072V9.75036H28.456V5.52636H19.7968V2.64636H12.2224V5.52636H3.5536V9.75036H5.8V24.7072H0.9328V29.3536H31.0672V24.7072H26.2H26.2096ZM13.4128 3.84636H18.5872V5.52636H13.4128V3.84636ZM4.7536 8.55036V6.72636H27.256V8.55036H4.7536ZM25.0096 9.75036V14.3296C22.3984 11.7088 16.3984 10.9408 16.0816 10.9024H16.0048H15.928C15.6016 10.9408 9.6112 11.6992 7 14.3296V9.75036H25.0096ZM7 16.9984C7 13.9168 13.432 12.4288 16.0048 12.1024C18.5776 12.4288 25.0096 13.9072 25.0096 16.9984V24.6976H7V16.9984ZM29.8768 28.144H2.1328V25.8976H29.8672V28.144H29.8768Z" fill="black"/>
<path d="M16.0816 13.3216C11.2048 13.3216 8.42081 16.0864 8.30561 16.2016L8.13281 16.3744V23.6608H23.8672V16.384L23.704 16.2112C23.5984 16.096 20.968 13.3216 16.0816 13.3216ZM14.0464 21.9232C14.0176 21.856 13.9984 21.7792 13.9792 21.712C13.816 21.1072 14.056 20.5216 14.344 19.8496C14.4208 19.6576 14.5072 19.4656 14.5744 19.2736C14.8528 18.5344 14.9104 17.9008 14.824 17.3152C14.9776 17.4208 15.112 17.5264 15.2368 17.6416L15.4672 17.8432C15.736 18.0832 15.784 18.1216 16.0912 18.8224L16.5904 19.9552L17.1664 18.8608C17.1952 18.8128 17.2144 18.7648 17.2432 18.7264C17.5696 19.1872 17.848 19.7632 18.0016 20.2912C18.1168 20.704 18.0496 21.1648 17.9824 21.6448C17.944 21.9136 17.9152 22.1824 17.896 22.4704H14.1808C14.152 22.2688 14.0944 22.0768 14.0464 21.9232ZM22.6672 22.4704H19.1056C19.1152 22.2592 19.144 22.048 19.1728 21.8176C19.2496 21.2512 19.3456 20.6176 19.1536 19.9648C18.8944 19.0528 18.328 18.0544 17.7232 17.4304L17.0608 16.768L16.6768 17.392C16.552 17.2288 16.4272 17.104 16.2352 16.9408L16.0336 16.7584C15.5056 16.2784 14.8336 15.8944 14.0368 15.616L12.7312 15.1552L13.2976 16.4224C13.7296 17.392 13.768 18.0064 13.4416 18.8704C13.3744 19.0432 13.3072 19.2256 13.2304 19.3984C12.9136 20.1664 12.5488 21.04 12.8176 22.0384C12.8464 22.144 12.8848 22.24 12.9136 22.3456C12.9328 22.3936 12.9424 22.4416 12.9616 22.48H9.32321V16.9024C9.96641 16.3456 12.3664 14.5408 16.072 14.5408C19.7776 14.5408 22.0528 16.3456 22.6576 16.8928V22.48L22.6672 22.4704Z" fill="black"/>
<path opacity="0.12" d="M16.0816 13.8304C11.3968 13.8304 8.72803 16.528 8.72803 16.528V22.9696H13.6432C13.6432 22.6912 13.4704 22.0288 13.4032 21.7696C13.1248 20.7616 13.672 19.888 14.008 18.9664C14.4112 17.8816 14.296 17.0848 13.8448 16.0672C14.4976 16.2976 15.1216 16.624 15.64 17.0944C16.1488 17.5648 16.2064 17.4976 16.6384 18.4768C16.84 18.1024 16.936 18.0256 17.1088 17.7472C17.128 17.7184 17.1856 17.6224 17.1856 17.6224C17.1856 17.6224 17.2624 17.7088 17.3008 17.7376C17.8576 18.3136 18.3664 19.2352 18.5872 20.0224C18.8272 20.8672 18.5008 22.1152 18.5008 22.9696H23.272V16.528C23.272 16.528 20.776 13.8304 16.0816 13.8304Z" fill="black"/>
</g>
<defs>
<clipPath id="clip0_2_244">
<rect width="32" height="32" fill="white"/>
</clipPath>
</defs>
</svg>
