<svg width="32" height="32" viewBox="0 0 32 32" fill="none" xmlns="http://www.w3.org/2000/svg">
<g clip-path="url(#clip0_2_222)">
<path d="M5.65594 1.62V30.38H26.3439V1.62H5.65594ZM25.3439 29.38H6.65594V2.62H25.3439V29.38Z" fill="black"/>
<path d="M23.904 4.32397H8.104V27.668H23.904V4.32397ZM22.904 26.668H9.104V5.32397H22.904V26.668Z" fill="black"/>
<path d="M12.6838 5.96165L9.87482 8.47314L10.5413 9.21862L13.3503 6.70713L12.6838 5.96165Z" fill="black"/>
<path d="M16.3298 7.27729L10.8423 12.182L11.5087 12.9276L16.9962 8.02288L16.3298 7.27729Z" fill="black"/>
<path opacity="0.12" d="M5.896 2.12402V29.884H25.584V2.12402H5.896ZM23.144 27.172H8.344V4.82802H23.144V27.172Z" fill="black"/>
</g>
<defs>
<clipPath id="clip0_2_222">
<rect width="32" height="32" fill="white"/>
</clipPath>
</defs>
</svg>
