<svg width="32" height="32" viewBox="0 0 32 32" fill="none" xmlns="http://www.w3.org/2000/svg">
<g clip-path="url(#clip0_2_229)">
<path opacity="0.12" d="M3.51599 15.76V12.632L3.96399 7.60803H16.508L16.892 12.632V15.76" fill="black"/>
<path opacity="0.12" d="M28.148 19.312H19.404V28.776H28.148V19.312Z" fill="black"/>
<path opacity="0.12" d="M3.77209 19.312V28.776H10.2041H16.6361V19.312H10.3001H3.77209Z" fill="black"/>
<path d="M31.9561 15.264H27.0281C27.0441 15.168 27.0601 15.088 27.1001 15.048C27.3481 14.8 27.7641 14.784 28.1881 14.792V13.792C27.7321 13.792 26.9481 13.784 26.3881 14.344C26.1081 14.624 26.0441 14.976 26.0201 15.272H24.5961L24.5641 12.424C24.5721 12.328 24.6361 11.848 25.0441 11.848C25.4521 11.848 25.5481 12.336 25.5561 12.44L26.0521 12.384L26.5481 12.328C26.4921 11.816 26.1001 10.856 25.0441 10.856C23.9881 10.856 23.6121 11.832 23.5641 12.392L23.5961 15.28H22.2601C22.2361 14.984 22.1641 14.632 21.8921 14.352C21.3321 13.792 20.5481 13.8 20.0841 13.8V14.8C20.5241 14.8 20.9401 14.816 21.1801 15.056C21.2201 15.096 21.2441 15.184 21.2521 15.28H17.3881V12.616L16.9641 7.12799H3.50807L3.01207 12.656V15.288H0.0440674V18.024H1.27607V31.176H30.7641V18.024H31.9481V15.288L31.9561 15.264ZM16.0441 8.10399L16.3561 12.136H4.06007L4.42007 8.10399H16.0441ZM4.01207 13.136H16.3881V15.264H4.01207V13.136ZM29.7641 30.152H2.27607V18H29.7641V30.152ZM30.9481 17H1.04407V16.264H30.9561V17H30.9481Z" fill="black"/>
<path d="M28.644 18.816H18.9V29.28H28.644V18.816ZM27.644 28.28H19.9V19.816H27.644V28.28Z" fill="black"/>
<path d="M17.1321 18.816H3.26807V29.28H17.1321V18.816ZM4.26807 19.816H9.70007V28.28H4.26807V19.816ZM16.1321 28.28H10.7001V19.816H16.1321V28.28Z" fill="black"/>
</g>
<defs>
<clipPath id="clip0_2_229">
<rect width="32" height="32" fill="white"/>
</clipPath>
</defs>
</svg>
