<svg width="32" height="32" viewBox="0 0 32 32" fill="none" xmlns="http://www.w3.org/2000/svg">
<g clip-path="url(#clip0_2_205)">
<path fill-rule="evenodd" clip-rule="evenodd" d="M23.6922 17.8937H29.4522V16.9468H23.6922V17.8937ZM29.3725 29.4531H29.3146L26.2164 18.88H28.0454L29.3725 29.4531ZM22.7054 19.8268H21.7586V15.0136H22.232C22.4934 15.0136 22.7054 15.2292 22.7054 15.495V19.8268ZM20.3186 10.2558H19.8386V9.2971C19.8386 7.17924 18.1193 5.46236 15.9986 5.46236C13.8778 5.46236 12.1586 7.17924 12.1586 9.2971V10.2558H11.6786C10.8843 10.2582 10.241 10.9006 10.2386 11.6938V12.1732H7.83857C7.57349 12.1732 7.35857 11.9585 7.35857 11.6938V3.06565C7.35857 2.80093 7.57349 2.5863 7.83857 2.5863H24.1586C24.4237 2.5863 24.6386 2.80093 24.6386 3.06565V11.6938C24.6386 11.9585 24.4237 12.1732 24.1586 12.1732H21.7586V11.6938C21.7562 10.9006 21.1129 10.2582 20.3186 10.2558V10.2558ZM13.1172 10.24V9.2833C13.1172 7.69814 14.4066 6.41316 15.9972 6.41316C17.5878 6.41316 18.8772 7.69814 18.8772 9.2833V10.24H13.1172ZM20.7704 21.2865H11.1836V11.7053C11.1836 11.4407 11.3982 11.2262 11.6629 11.2262H20.2911C20.5558 11.2262 20.7704 11.4407 20.7704 11.7053V21.2865ZM15.5289 25.1135H16.4757V22.2335H15.5289V25.1135ZM16.0023 29.4136C15.7409 29.4136 15.5289 29.2016 15.5289 28.9402C15.5289 28.6787 15.7409 28.4668 16.0023 28.4668C16.2638 28.4668 16.4757 28.6787 16.4757 28.9402C16.4757 29.2016 16.2638 29.4136 16.0023 29.4136V29.4136ZM20.8117 28.4668C21.0731 28.4668 21.2851 28.6787 21.2851 28.9402C21.2851 29.2016 21.0731 29.4136 20.8117 29.4136C20.5502 29.4136 20.3383 29.2016 20.3383 28.9402C20.3383 28.6787 20.5502 28.4668 20.8117 28.4668V28.4668ZM11.1859 29.4136C10.9245 29.4136 10.7125 29.2016 10.7125 28.9402C10.7125 28.6787 10.9245 28.4668 11.1859 28.4668C11.4473 28.4668 11.6593 28.6787 11.6593 28.9402C11.6593 29.2016 11.4473 29.4136 11.1859 29.4136V29.4136ZM10.239 19.8268H9.29216V15.495C9.29216 15.2292 9.50414 15.0136 9.76559 15.0136H10.239V19.8268ZM2.54919 17.8937H8.30919V16.9468H2.54919V17.8937ZM2.68445 29.4531H2.62654L3.95367 18.88H5.7827L2.68445 29.4531ZM30.4 18.3974V16.4777C30.4 16.2126 30.1851 15.9978 29.92 15.9978H23.68V15.5178C23.6776 14.7237 23.0343 14.0805 22.24 14.0781H21.76V13.1182H24.16C24.9543 13.1159 25.5976 12.4726 25.6 11.6784V3.03975C25.5976 2.2456 24.9543 1.60238 24.16 1.59998H7.83998C7.0457 1.60238 6.40238 2.2456 6.39998 3.03975V11.6784C6.40238 12.4726 7.0457 13.1159 7.83998 13.1182H10.24V14.0781H9.75998C8.9657 14.0805 8.32238 14.7237 8.31998 15.5178V15.9978H2.07998C1.8149 15.9978 1.59998 16.2126 1.59998 16.4777V18.3974C1.59998 18.6624 1.8149 18.8773 2.07998 18.8773H2.97758L1.60478 29.858C1.58612 29.9937 1.6283 30.1307 1.71998 30.2324C1.81022 30.3369 1.94186 30.3966 2.07998 30.3955H3.03998C3.25334 30.3955 3.44102 30.2547 3.50078 30.05L6.75998 18.8773H8.31998V20.3171C8.31998 20.5821 8.5349 20.797 8.79998 20.797H10.24V21.7569C10.24 22.0219 10.4549 22.2368 10.72 22.2368H14.56V25.1164H11.2C10.9349 25.1164 10.72 25.3312 10.72 25.5963V27.6024C9.97016 27.8674 9.57722 28.6901 9.84236 29.4397C10.1074 30.1894 10.9302 30.5823 11.68 30.3172C12.4298 30.0522 12.8227 29.2296 12.5576 28.4799C12.4126 28.0699 12.0901 27.7473 11.68 27.6024V26.0762H15.52V27.6024C14.7702 27.8674 14.3772 28.6901 14.6424 29.4397C14.9074 30.1894 15.7302 30.5823 16.48 30.3172C17.2298 30.0522 17.6227 29.2296 17.3576 28.4799C17.2126 28.0699 16.8901 27.7473 16.48 27.6024V26.0762H20.32V27.6024C19.5702 27.8674 19.1772 28.6901 19.4424 29.4397C19.7074 30.1894 20.5302 30.5823 21.28 30.3172C22.0298 30.0522 22.4227 29.2296 22.1576 28.4799C22.0126 28.0699 21.6901 27.7473 21.28 27.6024V25.5963C21.28 25.3312 21.0651 25.1164 20.8 25.1164H17.44V22.2368H21.28C21.5451 22.2368 21.76 22.0219 21.76 21.7569V20.797H23.2C23.4651 20.797 23.68 20.5821 23.68 20.3171V18.8773H25.24L28.4992 30.05C28.5589 30.2547 28.7466 30.3955 28.96 30.3955H29.92C30.0581 30.3966 30.1897 30.3369 30.28 30.2324C30.3717 30.1307 30.4138 29.9937 30.3952 29.858L29.0224 18.8773H29.92C30.1851 18.8773 30.4 18.6624 30.4 18.3974V18.3974Z" fill="black"/>
</g>
<defs>
<clipPath id="clip0_2_205">
<rect width="32" height="32" fill="white"/>
</clipPath>
</defs>
</svg>
