<svg width="32" height="32" viewBox="0 0 32 32" fill="none" xmlns="http://www.w3.org/2000/svg">
<g clip-path="url(#clip0_2_188)">
<g opacity="0.12">
<path d="M26.416 7.836H24.12V23.044H26.416V7.836Z" fill="black"/>
<path d="M22.416 7.836H19.192V23.044H22.416V7.836Z" fill="black"/>
<path d="M17.48 7.836H12.784V23.044H17.48V7.836Z" fill="black"/>
<path d="M5.58398 12.492V18.732V23.052H11.08V7.836H5.58398V12.492Z" fill="black"/>
</g>
<path d="M3.38398 24.636H0.599976V25.636H3.38398V24.636Z" fill="black"/>
<path d="M28.616 24.636V5.56396H13.288V6.56396H18.688V24.636H13.288V25.636H31.4V24.636H28.616ZM24.616 8.33996H25.912V22.548H24.616V8.33996ZM19.688 8.33996H21.912V22.548H19.688V8.33996ZM19.688 24.644V23.556H22.912V7.33996H19.688V6.56396H23.616V24.636H19.688V24.644ZM24.616 24.644V23.556H26.912V7.33996H24.616V6.56396H27.616V24.636H24.616V24.644Z" fill="black"/>
<path d="M17.984 7.33997H13.288V8.33997H16.984V22.548H13.288V23.548H17.984V7.33997Z" fill="black"/>
<path d="M13.288 23.548V5.56396H3.38397V25.636H13.288V23.548ZM4.38397 24.636V6.56396H12.288V24.636H4.38397Z" fill="black"/>
<path d="M5.08801 12.492H5.58401H6.08801V8.33997H10.584V22.548H6.08801V18.732H5.58401H5.08801V23.548H11.584V7.33997H5.08801V12.492Z" fill="black"/>
<path d="M6.08801 14.34H5.58401H5.08801V16.548H5.58401H6.08801V14.34Z" fill="black"/>
</g>
<defs>
<clipPath id="clip0_2_188">
<rect width="32" height="32" fill="white"/>
</clipPath>
</defs>
</svg>
