<svg width="32" height="32" viewBox="0 0 32 32" fill="none" xmlns="http://www.w3.org/2000/svg">
<g clip-path="url(#clip0_5_978)">
<path d="M29.623 1.59998H2.43262C2.10536 1.59998 1.84003 1.87289 1.84003 2.2095V5.01367C1.84003 5.32263 2.06702 5.56761 2.35681 5.60745V17.0666C2.35681 17.4035 2.62214 17.6762 2.9494 17.6762H3.16844C3.9472 17.6762 4.70631 17.5553 5.4387 17.3286V19.7468C5.01201 20.0864 4.7321 20.6123 4.7321 21.2089V22.5857H4.46647C4.13922 22.5857 3.87388 22.8583 3.87388 23.1952V29.7905C3.87388 30.1274 4.13922 30.4 4.46647 30.4H7.74801C8.07527 30.4 8.3406 30.1274 8.3406 29.7905V28.4785H23.715V29.7905C23.715 30.1274 23.9804 30.4 24.3076 30.4H27.5892C27.9164 30.4 28.1817 30.1274 28.1817 29.7905V23.1952C28.1817 22.8583 27.9164 22.5857 27.5892 22.5857H27.3235V21.2089C27.3235 20.6123 27.0436 20.0864 26.6169 19.7468V17.3286C27.3493 17.5553 28.1084 17.6762 28.8872 17.6762H29.1062C29.4335 17.6762 29.6988 17.4035 29.6988 17.0666V5.60745C29.9886 5.56761 30.2156 5.32263 30.2156 5.01367V2.2095C30.2156 1.87289 29.9503 1.59998 29.623 1.59998ZM3.02521 2.81902H29.0304V4.40414H27.4236C27.1899 4.40414 26.9754 4.55146 26.88 4.77111C26.8658 4.80414 26.518 5.58242 25.6629 5.58242C25.6221 5.58242 25.5802 5.58093 25.5403 5.57765C24.8924 5.5223 24.5758 5.28212 24.4216 5.08688C23.9676 4.52081 23.0967 3.8595 22.1355 3.8595C22.0617 3.8595 21.9882 3.86367 21.9092 3.8723C21.2382 3.95206 20.7741 4.38093 20.3646 4.7592C20.1919 4.91902 20.0284 5.06992 19.8736 5.17111C19.496 5.41634 19.1328 5.5589 18.7749 5.58956C18.7564 5.59253 18.6065 5.61456 18.3895 5.61456C17.7298 5.61456 16.8817 5.42884 16.5889 4.54313C16.5073 4.29611 16.2816 4.13003 16.0278 4.13003C15.7741 4.13003 15.5484 4.29611 15.4668 4.54313C15.1739 5.42855 14.3258 5.61456 13.6661 5.61456C13.4491 5.61456 13.2992 5.59253 13.2321 5.58361C12.9228 5.5589 12.5596 5.41634 12.1835 5.172C12.0272 5.06992 11.8638 4.91902 11.691 4.7592C11.4089 4.49852 11.0953 4.22096 10.7095 4.04276C10.7075 4.04187 10.7058 4.0406 10.7038 4.03974C10.5314 3.96076 10.3487 3.89618 10.1407 3.8714C9.10912 3.76218 8.12301 4.47736 7.63111 5.09045C7.47978 5.28212 7.16323 5.5223 6.51885 5.57736C5.56688 5.6598 5.19072 4.80563 5.17799 4.77646C5.0854 4.55087 4.87012 4.40414 4.63198 4.40414H3.02521V2.81902ZM25.4317 17.3208V19.3535H23.5723C23.6438 19.154 23.6887 18.9413 23.6887 18.7166V18.3143C23.6887 17.291 22.8794 16.4583 21.8843 16.4583H19.562C18.5669 16.4583 17.7576 17.291 17.7576 18.3143V18.7166C17.7576 18.9413 17.8025 19.154 17.8739 19.3535H14.1817C14.2531 19.154 14.2981 18.9413 14.2981 18.7166V18.3143C14.2981 17.291 13.4888 16.4583 12.4937 16.4583H10.1713C9.17625 16.4583 8.36694 17.291 8.36694 18.3143V18.7166C8.36694 18.9413 8.41186 19.154 8.48329 19.3535H6.62388V17.3208C6.62388 14.8187 8.60305 12.783 11.0359 12.783H21.0197C23.4526 12.783 25.4317 14.8187 25.4317 17.3208ZM18.9427 18.7166V18.3143C18.9427 17.9631 19.2205 17.6774 19.562 17.6774H21.8843C22.2257 17.6774 22.5035 17.9631 22.5035 18.3143V18.7166C22.5035 19.0678 22.2257 19.3535 21.8843 19.3535H19.562C19.2205 19.3535 18.9427 19.0678 18.9427 18.7166ZM9.55212 18.7166V18.3143C9.55212 17.9631 9.8299 17.6774 10.1713 17.6774H12.4937C12.8351 17.6774 13.1129 17.9631 13.1129 18.3143V18.7166C13.1129 19.0678 12.8351 19.3535 12.4937 19.3535H10.1713C9.8299 19.3535 9.55212 19.0678 9.55212 18.7166ZM21.0197 11.564H11.0359C10.9603 11.564 10.8866 11.5726 10.8117 11.5756C10.9771 10.9188 11.0677 10.2423 11.0677 9.55117V5.81772C11.2184 5.95336 11.3739 6.08725 11.5495 6.20206C12.0973 6.55771 12.6326 6.75861 13.0897 6.79283C13.1143 6.797 13.3394 6.83361 13.6661 6.83361C14.6687 6.83361 15.4856 6.50682 16.0278 5.91069C16.5701 6.50682 17.3869 6.83361 18.3895 6.83361C18.7144 6.83361 18.9401 6.79432 18.9153 6.79908C19.4231 6.75861 19.9584 6.55771 20.5076 6.20117C20.6821 6.08703 20.8373 5.95336 20.9879 5.81776V9.55117C20.9879 10.2423 21.0785 10.9188 21.2439 11.5756C21.169 11.5726 21.0954 11.564 21.0197 11.564ZM3.54199 5.62319H4.28997C4.59089 6.08271 5.24483 6.80146 6.39269 6.80146C6.46329 6.80146 6.53592 6.79878 6.61375 6.79253C7.67741 6.70146 8.25438 6.2345 8.54836 5.86248C8.84364 5.49428 9.3822 5.10117 9.88256 5.08208V9.55117C9.88256 10.3219 9.75362 11.0711 9.5127 11.7863C7.57675 12.3509 6.06811 13.9599 5.5974 15.9833C4.93927 16.2472 4.25156 16.4069 3.54199 16.4467V5.62319ZM24.9002 29.1809V27.869C24.9002 27.5321 24.6349 27.2595 24.3076 27.2595H7.74801C7.42076 27.2595 7.15542 27.5321 7.15542 27.869V29.1809H5.05907V23.8047C13.9947 23.8047 16.1994 23.8047 26.9966 23.8047V29.1809H24.9002ZM5.91728 22.5857V21.2089C5.91728 20.8583 6.19506 20.5726 6.53621 20.5726H10.1713H12.4937H19.562H21.8843H25.5194C25.8606 20.5726 26.1383 20.8583 26.1383 21.2089V22.5857H5.91728ZM26.4582 15.9833C25.9875 13.9599 24.4789 12.3509 22.5429 11.7863C22.302 11.0711 22.1731 10.3219 22.1731 9.55117V5.08435C22.679 5.10224 23.2117 5.49413 23.5044 5.8589C23.8013 6.2345 24.3782 6.70146 25.4453 6.79283C26.7298 6.897 27.4462 6.11099 27.7657 5.62319H28.5136V16.4467C27.8041 16.4069 27.1164 16.2472 26.4582 15.9833Z" fill="black"/>
</g>
<defs>
<clipPath id="clip0_5_978">
<rect width="32" height="32" fill="white"/>
</clipPath>
</defs>
</svg>
