<svg width="39" height="56" viewBox="0 0 39 56" fill="none" xmlns="http://www.w3.org/2000/svg">
<path d="M25.2451 2.31836C27.4419 1.0429 30.1246 0.924266 32.4248 2.00195L34.2881 2.875C37.0109 4.15068 38.75 6.88675 38.75 9.89355V34.707C38.75 37.4691 37.2802 40.0233 34.8916 41.4102L14.2275 53.4072C11.7822 54.8269 8.7577 54.8023 6.33594 53.3428L3.99902 51.9336C1.6726 50.5312 0.250093 48.0133 0.25 45.2969V21.293C0.25 18.5309 1.71977 15.9767 4.1084 14.5898L25.2451 2.31836Z" fill="#181515"/>
<path d="M25.2451 2.31836C27.4419 1.0429 30.1246 0.924266 32.4248 2.00195L34.2881 2.875C37.0109 4.15068 38.75 6.88675 38.75 9.89355V34.707C38.75 37.4691 37.2802 40.0233 34.8916 41.4102L14.2275 53.4072C11.7822 54.8269 8.7577 54.8023 6.33594 53.3428L3.99902 51.9336C1.6726 50.5312 0.250093 48.0133 0.25 45.2969V21.293C0.25 18.5309 1.71977 15.9767 4.1084 14.5898L25.2451 2.31836Z" stroke="white" stroke-width="0.5"/>
<path d="M25.2451 2.31836C27.4419 1.0429 30.1246 0.924266 32.4248 2.00195L34.2881 2.875C37.0109 4.15068 38.75 6.88675 38.75 9.89355V34.707C38.75 37.4691 37.2802 40.0233 34.8916 41.4102L14.2275 53.4072C11.7822 54.8269 8.7577 54.8023 6.33594 53.3428L3.99902 51.9336C1.6726 50.5312 0.250093 48.0133 0.25 45.2969V21.293C0.25 18.5309 1.71977 15.9767 4.1084 14.5898L25.2451 2.31836Z" stroke="url(#paint0_linear_52_2245)" stroke-width="0.5"/>
<rect width="29.6102" height="29.7347" rx="4" transform="matrix(0.864808 -0.502102 0 1 11.2466 23.1334)" fill="#362F2F"/>
<g clip-path="url(#clip0_52_2245)">
<path fill-rule="evenodd" clip-rule="evenodd" d="M26.822 21.4158C26.4733 21.2253 26.0059 21.2758 25.5193 21.5568C25.0328 21.8377 24.5654 22.3268 24.2167 22.92L17.2697 34.7975C17.1535 34.9951 16.9977 35.158 16.8356 35.2516C16.6735 35.3452 16.5178 35.3621 16.4015 35.2987C16.3446 35.2677 16.2994 35.2174 16.2685 35.1507C16.2376 35.0841 16.2217 35.0026 16.2217 34.9109C16.2217 34.8192 16.2376 34.7193 16.2685 34.617C16.2994 34.5147 16.3446 34.4122 16.4015 34.3154L23.3485 22.4379C23.9296 21.4494 24.7085 20.6343 25.5193 20.1662C26.3302 19.698 27.1091 19.6137 27.6902 19.9312C28.0264 20.1147 28.2805 20.4322 28.4315 20.8577C28.5825 21.2833 28.6262 21.8048 28.5591 22.3796C29.0294 22.0307 29.5089 21.8024 29.9605 21.7122C30.412 21.622 30.8237 21.6722 31.1637 21.8591L31.1997 21.88C31.4843 22.0352 31.7105 22.2868 31.865 22.6199C32.0194 22.953 32.099 23.3607 32.099 23.8191C32.099 24.2775 32.0194 24.7771 31.865 25.2886C31.7105 25.8 31.4843 26.3128 31.1997 26.7966L24.9167 37.5383C24.8978 37.5705 24.8827 37.6047 24.8724 37.6388C24.8621 37.6728 24.8568 37.7061 24.8568 37.7367C24.8568 37.7672 24.8621 37.7944 24.8724 37.8165C24.8827 37.8387 24.8978 37.8555 24.9167 37.8658L26.2071 38.5825C26.264 38.6135 26.3093 38.6638 26.3402 38.7305C26.371 38.7971 26.387 38.8786 26.387 38.9703C26.387 39.062 26.371 39.1619 26.3402 39.2642C26.3093 39.3665 26.264 39.469 26.2071 39.5658C26.0909 39.7634 25.9351 39.9263 25.773 40.0199C25.6109 40.1135 25.4552 40.1304 25.3389 40.0671L24.0485 39.3512C23.9156 39.2788 23.81 39.1614 23.7378 39.006C23.6657 38.8505 23.6285 38.6602 23.6285 38.4462C23.6285 38.2322 23.6657 37.999 23.7378 37.7602C23.81 37.5215 23.9156 37.2821 24.0485 37.0562L30.3316 26.3137C30.5022 26.0234 30.6379 25.7157 30.7305 25.4089C30.8231 25.1021 30.8708 24.8024 30.8708 24.5274C30.8708 24.2524 30.8231 24.0078 30.7305 23.8079C30.6379 23.608 30.5022 23.457 30.3316 23.3637L30.2955 23.3437C29.9472 23.1534 29.4804 23.2036 28.9943 23.4838C28.5083 23.7639 28.0412 24.2519 27.6923 24.8441L22.5164 33.6941L22.515 33.6966L22.4442 33.8183C22.3279 34.0162 22.1721 34.1793 22.0098 34.273C21.8475 34.3667 21.6916 34.3836 21.5753 34.32C21.5184 34.2889 21.4732 34.2386 21.4423 34.172C21.4114 34.1054 21.3955 34.0238 21.3955 33.9321C21.3955 33.8405 21.4114 33.7405 21.4423 33.6383C21.4732 33.536 21.5184 33.4334 21.5753 33.3366L26.8242 24.3621C26.9943 24.0719 27.1295 23.7645 27.2218 23.4581C27.314 23.1516 27.3614 22.8523 27.3612 22.5777C27.361 22.3031 27.3132 22.0589 27.2206 21.8593C27.128 21.6598 26.9925 21.509 26.822 21.4158Z" fill="white"/>
<path fill-rule="evenodd" clip-rule="evenodd" d="M25.9537 23.8837C26.0107 23.787 26.0559 23.6844 26.0868 23.5821C26.1177 23.4798 26.1336 23.3799 26.1336 23.2882C26.1336 23.1966 26.1177 23.115 26.0868 23.0484C26.0559 22.9818 26.0107 22.9315 25.9537 22.9004C25.8375 22.8368 25.6816 22.8537 25.5193 22.9474C25.357 23.0411 25.2011 23.2042 25.0848 23.4021L19.9471 32.1867C19.6626 32.6705 19.4364 33.1833 19.2819 33.6947C19.1274 34.2062 19.0479 34.7058 19.0479 35.1642C19.0479 35.6226 19.1274 36.0303 19.2819 36.3634C19.4364 36.6965 19.6626 36.9481 19.9471 37.1033C20.5283 37.4206 21.3072 37.3362 22.118 36.868C22.9288 36.3999 23.7076 35.585 24.2888 34.5967L29.4272 25.8117C29.4841 25.7149 29.5294 25.6123 29.5603 25.51C29.5912 25.4078 29.6071 25.3078 29.6071 25.2162C29.6071 25.1245 29.5912 25.0429 29.5603 24.9763C29.5294 24.9097 29.4841 24.8594 29.4272 24.8283C29.3109 24.7647 29.1551 24.7816 28.9928 24.8753C28.8305 24.969 28.6746 25.1321 28.5583 25.33L23.4206 34.1146C23.0719 34.7078 22.6045 35.1969 22.118 35.4778C21.6314 35.7587 21.164 35.8093 20.8153 35.6187C20.6447 35.5255 20.509 35.3744 20.4164 35.1746C20.3238 34.9747 20.2761 34.7301 20.2761 34.4551C20.2761 34.1801 20.3238 33.8803 20.4164 33.5735C20.509 33.2667 20.6447 32.9591 20.8153 32.6687L25.9537 23.8837Z" fill="white"/>
</g>
<defs>
<linearGradient id="paint0_linear_52_2245" x1="0.541667" y1="17.0196" x2="38.178" y2="39.0837" gradientUnits="userSpaceOnUse">
<stop stop-color="white"/>
<stop offset="0.312885" stop-color="white"/>
<stop offset="0.450292" stop-color="#0D0B0B" stop-opacity="0.5"/>
<stop offset="1" stop-color="#0D0B0B"/>
</linearGradient>
<clipPath id="clip0_52_2245">
<rect width="20" height="20" fill="white" transform="matrix(0.866025 -0.5 0 1 15.5 26)"/>
</clipPath>
</defs>
</svg>
