<svg width="39" height="56" viewBox="0 0 39 56" fill="none" xmlns="http://www.w3.org/2000/svg">
<path d="M25.2451 2.31836C27.4419 1.0429 30.1246 0.924266 32.4248 2.00195L34.2881 2.875C37.0109 4.15068 38.75 6.88675 38.75 9.89355V34.707C38.75 37.4691 37.2802 40.0233 34.8916 41.4102L14.2275 53.4072C11.7822 54.8269 8.7577 54.8023 6.33594 53.3428L3.99902 51.9336C1.6726 50.5312 0.250093 48.0133 0.25 45.2969V21.293C0.25 18.5309 1.71977 15.9767 4.1084 14.5898L25.2451 2.31836Z" fill="#181515"/>
<path d="M25.2451 2.31836C27.4419 1.0429 30.1246 0.924266 32.4248 2.00195L34.2881 2.875C37.0109 4.15068 38.75 6.88675 38.75 9.89355V34.707C38.75 37.4691 37.2802 40.0233 34.8916 41.4102L14.2275 53.4072C11.7822 54.8269 8.7577 54.8023 6.33594 53.3428L3.99902 51.9336C1.6726 50.5312 0.250093 48.0133 0.25 45.2969V21.293C0.25 18.5309 1.71977 15.9767 4.1084 14.5898L25.2451 2.31836Z" stroke="#0ACF83" stroke-width="0.5"/>
<path d="M25.2451 2.31836C27.4419 1.0429 30.1246 0.924266 32.4248 2.00195L34.2881 2.875C37.0109 4.15068 38.75 6.88675 38.75 9.89355V34.707C38.75 37.4691 37.2802 40.0233 34.8916 41.4102L14.2275 53.4072C11.7822 54.8269 8.7577 54.8023 6.33594 53.3428L3.99902 51.9336C1.6726 50.5312 0.250093 48.0133 0.25 45.2969V21.293C0.25 18.5309 1.71977 15.9767 4.1084 14.5898L25.2451 2.31836Z" stroke="url(#paint0_linear_52_2285)" stroke-width="0.5"/>
<rect width="29.6102" height="29.7347" rx="4" transform="matrix(0.864808 -0.502102 0 1 11.2466 23.1334)" fill="#362F2F"/>
<g clip-path="url(#clip0_52_2285)">
<path d="M20.7523 44.4746C22.6246 43.3936 24.1442 40.7616 24.1442 38.5996V34.6829L20.7523 36.6413C18.8799 37.7223 17.3604 40.3543 17.3604 42.5163C17.3604 44.6783 18.8799 45.5556 20.7523 44.4746Z" fill="#0ACF83"/>
<path d="M17.3604 34.6829C17.3604 32.5209 18.8799 29.8889 20.7523 28.8079L24.1442 26.8496V34.6829L20.7523 36.6412C18.8799 37.7222 17.3604 36.8449 17.3604 34.6829Z" fill="#A259FF"/>
<path d="M17.3604 26.8496C17.3604 24.6876 18.8799 22.0556 20.7523 20.9746L24.1442 19.0163V26.8496L20.7523 28.8079C18.8799 29.8889 17.3604 29.0116 17.3604 26.8496Z" fill="#F24E1E"/>
<path d="M24.144 19.0163L27.536 17.058C29.4083 15.977 30.9279 16.8543 30.9279 19.0163C30.9279 21.1783 29.4083 23.8103 27.536 24.8913L24.144 26.8496V19.0163Z" fill="#FF7262"/>
<path d="M30.9279 26.8496C30.9279 29.0116 29.4083 31.6436 27.536 32.7246C25.6636 33.8056 24.144 32.9283 24.144 30.7663C24.144 28.6043 25.6636 25.9723 27.536 24.8913C29.4083 23.8103 30.9279 24.6876 30.9279 26.8496Z" fill="#1ABCFE"/>
</g>
<defs>
<linearGradient id="paint0_linear_52_2285" x1="0.541667" y1="17.0196" x2="38.178" y2="39.0837" gradientUnits="userSpaceOnUse">
<stop stop-color="#F24E1E"/>
<stop offset="0.173077" stop-color="#FF7262"/>
<stop offset="0.307692" stop-color="#A259FF"/>
<stop offset="0.413462" stop-color="#1ABCFE"/>
<stop offset="0.450292" stop-color="#0D0B0B" stop-opacity="0.5"/>
<stop offset="1" stop-color="#0D0B0B"/>
</linearGradient>
<clipPath id="clip0_52_2285">
<rect width="24" height="24" fill="white" transform="matrix(0.866025 -0.5 0 1 13.752 24.7662)"/>
</clipPath>
</defs>
</svg>
