<svg width="39" height="56" viewBox="0 0 39 56" fill="none" xmlns="http://www.w3.org/2000/svg">
<path d="M25.2451 2.31836C27.4419 1.0429 30.1246 0.924266 32.4248 2.00195L34.2881 2.875C37.0109 4.15068 38.75 6.88675 38.75 9.89355V34.707C38.75 37.4691 37.2802 40.0233 34.8916 41.4102L14.2275 53.4072C11.7822 54.8269 8.7577 54.8023 6.33594 53.3428L3.99902 51.9336C1.6726 50.5312 0.250093 48.0133 0.25 45.2969V21.293C0.25 18.5309 1.71977 15.9767 4.1084 14.5898L25.2451 2.31836Z" fill="#181515"/>
<path d="M25.2451 2.31836C27.4419 1.0429 30.1246 0.924266 32.4248 2.00195L34.2881 2.875C37.0109 4.15068 38.75 6.88675 38.75 9.89355V34.707C38.75 37.4691 37.2802 40.0233 34.8916 41.4102L14.2275 53.4072C11.7822 54.8269 8.7577 54.8023 6.33594 53.3428L3.99902 51.9336C1.6726 50.5312 0.250093 48.0133 0.25 45.2969V21.293C0.25 18.5309 1.71977 15.9767 4.1084 14.5898L25.2451 2.31836Z" stroke="#D6CDB6" stroke-width="0.5"/>
<path d="M25.2451 2.31836C27.4419 1.0429 30.1246 0.924266 32.4248 2.00195L34.2881 2.875C37.0109 4.15068 38.75 6.88675 38.75 9.89355V34.707C38.75 37.4691 37.2802 40.0233 34.8916 41.4102L14.2275 53.4072C11.7822 54.8269 8.7577 54.8023 6.33594 53.3428L3.99902 51.9336C1.6726 50.5312 0.250093 48.0133 0.25 45.2969V21.293C0.25 18.5309 1.71977 15.9767 4.1084 14.5898L25.2451 2.31836Z" stroke="url(#paint0_linear_52_2345)" stroke-width="0.5"/>
<rect width="29.6102" height="29.7347" rx="4" transform="matrix(0.864808 -0.502102 0 1 11.2466 23.1334)" fill="#252121"/>
<path d="M24.6603 21C29.4432 18.2386 33.3205 20.4772 33.3205 26C33.3205 31.5228 29.4432 38.2386 24.6603 41C19.8773 43.7614 16 41.5228 16 36C16 30.4772 19.8773 23.7614 24.6603 21ZM26.6321 33.3928C25.9991 33.8194 25.3389 34.2332 24.6603 34.625C23.9815 35.0169 23.3213 35.3654 22.6882 35.6698C22.8349 36.828 23.0579 37.8015 23.3333 38.5398C23.5885 39.2239 23.8722 39.662 24.1441 39.8798C24.4199 40.1005 24.5983 40.0358 24.6603 40C24.7222 39.9642 24.9006 39.823 25.1764 39.2838C25.4483 38.7521 25.732 37.9863 25.9872 37.0076C26.2626 35.9513 26.4854 34.7203 26.6321 33.3928ZM17.0028 37.1056C17.5988 40.396 20.087 41.8204 23.2401 40.6703C22.5751 39.9028 22.0571 38.2676 21.8025 36.0745C19.7059 36.9808 17.9855 37.3446 17.0028 37.1056ZM32.3175 28.2637C31.3348 29.6374 29.6144 31.2602 27.5178 32.7748C27.2632 35.2619 26.7452 37.4952 26.0802 39.0305C29.2333 36.5398 31.7214 32.2424 32.3175 28.2637ZM24.6603 28.625C23.9409 29.0403 23.2466 29.4788 22.5882 29.9287C22.5277 30.7239 22.4952 31.5444 22.4952 32.375C22.4952 33.2056 22.5278 33.9884 22.5882 34.7136C23.2466 34.4033 23.9409 34.0403 24.6603 33.625C25.3795 33.2097 26.0737 32.7711 26.7321 32.3212C26.7925 31.5261 26.8253 30.7056 26.8253 29.875C26.8253 29.0443 26.7926 28.2616 26.7321 27.5363C26.0738 27.8465 25.3795 28.2097 24.6603 28.625ZM21.7101 30.5511C20.6339 31.3418 19.6793 32.1505 18.9023 32.9171C18.1823 33.6275 17.661 34.2561 17.3365 34.7574C17.0074 35.2659 16.9743 35.4909 16.9743 35.5625C16.9743 35.6341 17.0074 35.8209 17.3365 35.9493C17.661 36.076 18.1823 36.1026 18.9023 35.9816C19.6793 35.851 20.6339 35.5572 21.7101 35.1051C21.6572 34.4047 21.6292 33.6586 21.6292 32.875C21.6292 32.0913 21.6572 31.3127 21.7101 30.5511ZM27.6102 27.1448C27.6631 27.8452 27.6913 28.5913 27.6913 29.375C27.6913 30.1586 27.6631 30.9372 27.6102 31.6987C28.6865 30.908 29.6411 30.0995 30.4182 29.3329C31.1382 28.6225 31.6595 27.9939 31.984 27.4926C32.3131 26.9841 32.3462 26.7591 32.3462 26.6875C32.3462 26.6159 32.3131 26.4291 31.984 26.3007C31.6595 26.174 31.1382 26.1474 30.4182 26.2684C29.6411 26.399 28.6865 26.6926 27.6102 27.1448ZM23.4183 22.8311C20.0984 25.3616 17.4789 29.9084 16.9599 34.0464C17.9349 32.6601 19.6752 31.0119 21.8025 29.4751C22.0795 26.7695 22.6677 24.364 23.4183 22.8311ZM25.902 21.3971C26.6526 22.0633 27.2408 23.7895 27.5178 26.1754C29.6451 25.2558 31.3853 24.8945 32.3604 25.1549C31.8414 21.6162 29.222 20.0941 25.902 21.3971ZM24.6603 22.25C24.5983 22.2858 24.4199 22.427 24.1441 22.9662C23.8722 23.4979 23.5885 24.2637 23.3333 25.2424C23.0579 26.2986 22.8349 27.5296 22.6882 28.8571C23.3213 28.4304 23.9815 28.0169 24.6603 27.625C25.3389 27.2332 25.9991 26.8844 26.6321 26.5801C26.4854 25.422 26.2626 24.4484 25.9872 23.7102C25.732 23.0261 25.4483 22.588 25.1764 22.3702C24.9006 22.1495 24.7222 22.2142 24.6603 22.25Z" fill="#D6CDB6"/>
<defs>
<linearGradient id="paint0_linear_52_2345" x1="0.541667" y1="17.0196" x2="38.178" y2="39.0837" gradientUnits="userSpaceOnUse">
<stop stop-color="#D9D8D8"/>
<stop offset="0.312885" stop-color="#D6CDB6"/>
<stop offset="0.450292" stop-color="#0D0B0B" stop-opacity="0.5"/>
<stop offset="1" stop-color="#0D0B0B"/>
</linearGradient>
</defs>
</svg>
