<svg width="39" height="56" viewBox="0 0 39 56" fill="none" xmlns="http://www.w3.org/2000/svg">
<path d="M25.2451 2.31836C27.4419 1.0429 30.1246 0.924266 32.4248 2.00195L34.2881 2.875C37.0109 4.15068 38.75 6.88675 38.75 9.89355V34.707C38.75 37.4691 37.2802 40.0233 34.8916 41.4102L14.2275 53.4072C11.7822 54.8269 8.7577 54.8023 6.33594 53.3428L3.99902 51.9336C1.6726 50.5312 0.250093 48.0133 0.25 45.2969V21.293C0.25 18.5309 1.71977 15.9767 4.1084 14.5898L25.2451 2.31836Z" fill="#181515"/>
<path d="M25.2451 2.31836C27.4419 1.0429 30.1246 0.924266 32.4248 2.00195L34.2881 2.875C37.0109 4.15068 38.75 6.88675 38.75 9.89355V34.707C38.75 37.4691 37.2802 40.0233 34.8916 41.4102L14.2275 53.4072C11.7822 54.8269 8.7577 54.8023 6.33594 53.3428L3.99902 51.9336C1.6726 50.5312 0.250093 48.0133 0.25 45.2969V21.293C0.25 18.5309 1.71977 15.9767 4.1084 14.5898L25.2451 2.31836Z" stroke="#0877B9" stroke-width="0.5"/>
<path d="M25.2451 2.31836C27.4419 1.0429 30.1246 0.924266 32.4248 2.00195L34.2881 2.875C37.0109 4.15068 38.75 6.88675 38.75 9.89355V34.707C38.75 37.4691 37.2802 40.0233 34.8916 41.4102L14.2275 53.4072C11.7822 54.8269 8.7577 54.8023 6.33594 53.3428L3.99902 51.9336C1.6726 50.5312 0.250093 48.0133 0.25 45.2969V21.293C0.25 18.5309 1.71977 15.9767 4.1084 14.5898L25.2451 2.31836Z" stroke="url(#paint0_linear_52_2366)" stroke-width="0.5"/>
<rect width="29.6102" height="29.7347" rx="4" transform="matrix(0.864808 -0.502102 0 1 11.2466 23.1333)" fill="#362F2F"/>
<g clip-path="url(#clip0_52_2366)">
<path d="M16.4951 32.8637C16.4951 32.8637 16.0851 32.7529 16.5771 32.0048L17.7235 30.1377C17.7235 30.1377 18.0515 29.5425 18.3983 29.6958L28.9766 33.0058V37.5217C28.9766 37.5217 28.9715 38.2338 28.1976 38.6023L16.4951 32.8637Z" fill="#2489CA"/>
<path d="M19.2217 34.2002L16.4951 38.6892C16.4951 38.6892 16.215 39.0961 16.4951 39.3723L17.761 39.9953C17.761 39.9953 18.0617 40.2014 18.5059 39.5131L21.3965 35.2668L19.2217 34.2002Z" fill="#1070B3"/>
<path d="M24.0086 31.4606L29.0091 24.0839L28.9766 19.6108C28.9766 19.6108 28.7631 18.7538 28.0507 19.6754L21.3965 30.6385L24.0086 31.4606Z" fill="#0877B9"/>
<path d="M28.1977 38.6083C28.4881 38.7901 28.8401 38.4724 28.8401 38.4724L32.7369 33.9647C33.2357 33.2769 33.1657 32.8212 33.1657 32.8212V19.3378C33.1657 18.7452 32.6498 18.8382 32.6498 18.8382L29.2723 18.8738C28.5343 18.7635 28.0508 19.6754 28.0508 19.6754C28.0508 19.6754 28.6726 18.7901 28.9767 19.6109V37.4393C28.9767 37.5619 28.9545 37.6952 28.9101 37.8294C28.8213 38.0916 28.6282 38.3999 28.1652 38.5848L28.1977 38.6083Z" fill="#3C99D4"/>
</g>
<defs>
<linearGradient id="paint0_linear_52_2366" x1="0.541667" y1="17.0196" x2="38.178" y2="39.0837" gradientUnits="userSpaceOnUse">
<stop offset="0.312885" stop-color="#3C99D4"/>
<stop offset="0.450292" stop-color="#0D0B0B" stop-opacity="0.5"/>
<stop offset="1" stop-color="#0D0B0B"/>
</linearGradient>
<clipPath id="clip0_52_2366">
<rect width="20" height="20" fill="white" transform="matrix(0.866025 -0.5 0 1 16 26)"/>
</clipPath>
</defs>
</svg>
