<svg width="39" height="56" viewBox="0 0 39 56" fill="none" xmlns="http://www.w3.org/2000/svg">
<path d="M25.2451 2.31836C27.4419 1.0429 30.1246 0.924266 32.4248 2.00195L34.2881 2.875C37.0109 4.15068 38.75 6.88675 38.75 9.89355V34.707C38.75 37.4691 37.2802 40.0233 34.8916 41.4102L14.2275 53.4072C11.7822 54.8269 8.7577 54.8023 6.33594 53.3428L3.99902 51.9336C1.6726 50.5312 0.250093 48.0133 0.25 45.2969V21.293C0.25 18.5309 1.71977 15.9767 4.1084 14.5898L25.2451 2.31836Z" fill="#181515"/>
<path d="M25.2451 2.31836C27.4419 1.0429 30.1246 0.924266 32.4248 2.00195L34.2881 2.875C37.0109 4.15068 38.75 6.88675 38.75 9.89355V34.707C38.75 37.4691 37.2802 40.0233 34.8916 41.4102L14.2275 53.4072C11.7822 54.8269 8.7577 54.8023 6.33594 53.3428L3.99902 51.9336C1.6726 50.5312 0.250093 48.0133 0.25 45.2969V21.293C0.25 18.5309 1.71977 15.9767 4.1084 14.5898L25.2451 2.31836Z" stroke="#D97757" stroke-width="0.5"/>
<path d="M25.2451 2.31836C27.4419 1.0429 30.1246 0.924266 32.4248 2.00195L34.2881 2.875C37.0109 4.15068 38.75 6.88675 38.75 9.89355V34.707C38.75 37.4691 37.2802 40.0233 34.8916 41.4102L14.2275 53.4072C11.7822 54.8269 8.7577 54.8023 6.33594 53.3428L3.99902 51.9336C1.6726 50.5312 0.250093 48.0133 0.25 45.2969V21.293C0.25 18.5309 1.71977 15.9767 4.1084 14.5898L25.2451 2.31836Z" stroke="url(#paint0_linear_52_2357)" stroke-width="0.5"/>
<rect width="29.6102" height="29.7347" rx="4" transform="matrix(0.864808 -0.502102 0 1 11.2466 23.1334)" fill="#362F2F"/>
<path d="M19.401 37.3365L22.8071 33.1632L22.8644 32.9385L22.8071 32.865L22.6411 32.9608L22.0719 33.2489L20.1257 34.3118L18.4378 35.2054L16.8026 36.0482L16.3911 36.1846L16.0054 35.8201L16.0451 35.5043L16.3911 35.0359L16.8867 34.7997L17.982 34.2538L19.6254 33.4359L20.8177 32.8285L22.5838 32.0207L22.8644 31.8587L22.9041 31.7049L22.8083 31.6792L22.7335 31.6414L21.0327 31.2925L19.1917 30.949L18.2274 30.696L17.7061 30.5866L17.4431 30.3538L17.3297 29.5798L17.8031 28.7045L18.439 28.3873L18.6015 28.3434L19.2455 28.5438L20.6213 28.9791L22.4179 29.4697L22.6809 29.5703L22.7861 29.4232L22.7989 29.355L22.6809 29.1951L21.7037 27.7199L20.661 26.2473L20.197 25.6555L20.0742 25.2107C20.031 25.0238 19.9994 24.8639 19.9994 24.6466L20.5383 23.4905L20.8364 23.2078L21.5552 22.9034L21.858 23.0323L22.3045 23.9542L23.028 25.3936L24.1501 27.2711L24.4786 27.8305L24.6539 28.423L24.7194 28.5972L24.8328 28.5317V28.4102L24.9251 26.9343L25.0958 25.0893L25.2618 22.7462L25.319 22.0801L25.5902 21.165L26.1291 20.4436L26.5499 20.4328L26.8959 20.8053L26.8479 21.2028L26.6422 22.8656L26.2389 25.5171L25.9759 27.2886L26.1291 27.2002L26.3044 26.8966L27.0139 25.399L28.2062 22.9898L28.7322 22.0032L29.3458 20.8944L29.7397 20.3079L30.4843 19.8781L31.0325 20.5023L30.7871 21.6158L30.0203 23.1815L29.3844 24.5001L28.4727 26.4437L27.9034 27.9061L27.956 27.9662L28.0916 27.8731L30.1512 26.1778L31.264 25.3032L32.5918 24.2734L33.1926 24.2504L33.2581 24.542L33.022 25.3518L31.6018 26.5767L29.9361 27.923L27.4557 30.0326L27.4254 30.0758L27.4604 30.1055L28.5779 29.5818L29.056 29.3355L30.226 28.6599L32.4048 27.5896L32.974 27.6956L33.3154 28.0303L33.2581 28.4683L32.3814 29.49L31.1985 29.849L28.4376 30.6845L27.4908 30.9585L27.3599 31.0341V31.1245L28.1489 31.5598L29.5948 32.2326L31.4054 33.1308L31.4977 33.558L31.2651 34.0716L31.0197 34.1728L29.4288 33.7092L28.8152 33.4413L27.4254 32.8926L27.333 32.9459V33.0876L27.6533 33.444L29.3447 35.4031L29.4323 36.2527L29.3096 36.6165L28.8713 37.0463L28.3897 37.2232L27.3997 36.19L26.378 34.9725L25.554 33.8286L25.4535 33.9528L24.9672 40.2816L24.7393 40.7223L24.2133 41.2581L23.7749 41.1265L23.5423 40.6386L23.7749 39.2747L24.0555 37.508L24.2834 36.1009L24.4891 34.3976L24.6118 33.8003L24.6037 33.7699L24.5031 33.8428L23.4687 36.08L21.8954 39.4434L20.6505 41.7008L20.3524 42.0092L19.8358 41.9984L19.8837 41.4187L20.1724 40.7608L21.8954 37.2353L22.9345 35.067L23.6054 33.774L23.6008 33.6458L23.561 33.6687L18.9849 39.7417L18.1701 40.3336L17.8195 40.1568L17.8627 39.5096L18.0287 39.2113L19.4045 37.3237L19.3998 37.3318L19.401 37.3365Z" fill="#D97757"/>
<defs>
<linearGradient id="paint0_linear_52_2357" x1="0.541667" y1="17.0196" x2="38.178" y2="39.0837" gradientUnits="userSpaceOnUse">
<stop offset="0.312885" stop-color="#D97757"/>
<stop offset="0.450292" stop-color="#0D0B0B" stop-opacity="0.5"/>
<stop offset="1" stop-color="#0D0B0B"/>
</linearGradient>
</defs>
</svg>
