<svg width="39" height="56" viewBox="0 0 39 56" fill="none" xmlns="http://www.w3.org/2000/svg">
<path d="M25.2451 2.31836C27.4419 1.0429 30.1246 0.924266 32.4248 2.00195L34.2881 2.875C37.0109 4.15068 38.75 6.88675 38.75 9.89355V34.707C38.75 37.4691 37.2802 40.0233 34.8916 41.4102L14.2275 53.4072C11.7822 54.8269 8.7577 54.8023 6.33594 53.3428L3.99902 51.9336C1.6726 50.5312 0.250093 48.0133 0.25 45.2969V21.293C0.25 18.5309 1.71977 15.9767 4.1084 14.5898L25.2451 2.31836Z" fill="#181515"/>
<path d="M25.2451 2.31836C27.4419 1.0429 30.1246 0.924266 32.4248 2.00195L34.2881 2.875C37.0109 4.15068 38.75 6.88675 38.75 9.89355V34.707C38.75 37.4691 37.2802 40.0233 34.8916 41.4102L14.2275 53.4072C11.7822 54.8269 8.7577 54.8023 6.33594 53.3428L3.99902 51.9336C1.6726 50.5312 0.250093 48.0133 0.25 45.2969V21.293C0.25 18.5309 1.71977 15.9767 4.1084 14.5898L25.2451 2.31836Z" stroke="#FF4785" stroke-width="0.5"/>
<path d="M25.2451 2.31836C27.4419 1.0429 30.1246 0.924266 32.4248 2.00195L34.2881 2.875C37.0109 4.15068 38.75 6.88675 38.75 9.89355V34.707C38.75 37.4691 37.2802 40.0233 34.8916 41.4102L14.2275 53.4072C11.7822 54.8269 8.7577 54.8023 6.33594 53.3428L3.99902 51.9336C1.6726 50.5312 0.250093 48.0133 0.25 45.2969V21.293C0.25 18.5309 1.71977 15.9767 4.1084 14.5898L25.2451 2.31836Z" stroke="url(#paint0_linear_52_2263)" stroke-width="0.5"/>
<rect width="29.6102" height="29.7347" rx="4" transform="matrix(0.864808 -0.502102 0 1 11.2466 23.1334)" fill="#362F2F"/>
<g clip-path="url(#clip0_52_2263)">
<path d="M16.6199 45.1913L15.9905 26.172C15.9697 25.5439 16.3944 24.7458 16.9477 24.3734L31.2138 14.7714C31.777 14.3924 32.262 14.596 32.2972 15.2261C32.2985 15.2498 32.2992 15.274 32.2992 15.2986V36.4355C32.2992 37.0881 31.8418 37.8919 31.2776 38.2308C31.2623 38.24 31.247 38.2488 31.2317 38.2572L17.595 45.7415C17.0639 46.033 16.6399 45.7937 16.6199 45.1913Z" fill="#FF4785"/>
<mask id="mask0_52_2263" style="mask-type:luminance" maskUnits="userSpaceOnUse" x="15" y="14" width="18" height="32">
<path d="M16.6199 45.1913L15.9905 26.172C15.9697 25.5439 16.3944 24.7458 16.9477 24.3734L31.2138 14.7714C31.777 14.3924 32.262 14.596 32.2972 15.2261C32.2985 15.2498 32.2992 15.274 32.2992 15.2986V36.4355C32.2992 37.0881 31.8418 37.8919 31.2776 38.2308C31.2623 38.24 31.247 38.2488 31.2317 38.2572L17.595 45.7415C17.0639 46.033 16.6399 45.7937 16.6199 45.1913Z" fill="white"/>
</mask>
<g mask="url(#mask0_52_2263)">
<path d="M28.0331 19.5686L28.1306 16.7995L30.0897 15.4445L30.1741 18.189C30.1771 18.2845 30.1112 18.4057 30.0271 18.4596C29.9911 18.4827 29.9558 18.4905 29.9275 18.4818L29.172 18.2473L28.2775 19.5695C28.2104 19.6686 28.1148 19.7109 28.064 19.6639C28.0425 19.6441 28.0316 19.6104 28.0331 19.5686ZM25.5275 27.0428C25.5275 27.5025 28.2048 25.6737 28.5643 25.1349C28.5643 22.0046 27.1119 21.2322 24.4524 22.8299C21.7929 24.4277 20.3028 26.9934 20.3028 29.4992C20.3028 33.8635 25.3955 30.8874 25.3955 33.2679C25.3955 33.9361 25.1126 34.5029 24.4901 34.8768C23.679 35.3641 23.3584 35.0777 23.3961 33.4263C23.3961 33.0729 20.3028 34.8212 20.2085 35.3413C19.9684 39.4327 22.0947 39.2937 24.5278 37.8319C26.8856 36.4154 28.734 33.8515 28.734 31.2204C28.734 26.543 23.5659 29.7732 23.5659 27.4553C23.5659 26.5157 24.1694 26.0278 24.5278 25.8124C24.9051 25.5858 25.5841 25.2548 25.5275 27.0428Z" fill="white"/>
</g>
</g>
<defs>
<linearGradient id="paint0_linear_52_2263" x1="0.541667" y1="17.0196" x2="38.178" y2="39.0837" gradientUnits="userSpaceOnUse">
<stop stop-color="#FF4785"/>
<stop offset="0.312885" stop-color="#FF4785"/>
<stop offset="0.450292" stop-color="#0D0B0B" stop-opacity="0.5"/>
<stop offset="1" stop-color="#0D0B0B"/>
</linearGradient>
<clipPath id="clip0_52_2263">
<rect width="24" height="24" fill="white" transform="matrix(0.864676 -0.519478 0 1 13.7681 25)"/>
</clipPath>
</defs>
</svg>
