<svg width="39" height="56" viewBox="0 0 39 56" fill="none" xmlns="http://www.w3.org/2000/svg">
<path d="M25.2451 2.31836C27.4419 1.0429 30.1246 0.924266 32.4248 2.00195L34.2881 2.875C37.0109 4.15068 38.75 6.88675 38.75 9.89355V34.707C38.75 37.4691 37.2802 40.0233 34.8916 41.4102L14.2275 53.4072C11.7822 54.8269 8.7577 54.8023 6.33594 53.3428L3.99902 51.9336C1.6726 50.5312 0.250093 48.0133 0.25 45.2969V21.293C0.25 18.5309 1.71977 15.9767 4.1084 14.5898L25.2451 2.31836Z" fill="#181515"/>
<path d="M25.2451 2.31836C27.4419 1.0429 30.1246 0.924266 32.4248 2.00195L34.2881 2.875C37.0109 4.15068 38.75 6.88675 38.75 9.89355V34.707C38.75 37.4691 37.2802 40.0233 34.8916 41.4102L14.2275 53.4072C11.7822 54.8269 8.7577 54.8023 6.33594 53.3428L3.99902 51.9336C1.6726 50.5312 0.250093 48.0133 0.25 45.2969V21.293C0.25 18.5309 1.71977 15.9767 4.1084 14.5898L25.2451 2.31836Z" stroke="#D6CDB6" stroke-width="0.5"/>
<path d="M25.2451 2.31836C27.4419 1.0429 30.1246 0.924266 32.4248 2.00195L34.2881 2.875C37.0109 4.15068 38.75 6.88675 38.75 9.89355V34.707C38.75 37.4691 37.2802 40.0233 34.8916 41.4102L14.2275 53.4072C11.7822 54.8269 8.7577 54.8023 6.33594 53.3428L3.99902 51.9336C1.6726 50.5312 0.250093 48.0133 0.25 45.2969V21.293C0.25 18.5309 1.71977 15.9767 4.1084 14.5898L25.2451 2.31836Z" stroke="url(#paint0_linear_39_1641)" stroke-width="0.5"/>
<rect width="29.6102" height="29.7347" rx="4" transform="matrix(0.864808 -0.502102 0 1 11.2463 23.1334)" fill="#362F2F"/>
<path d="M22.436 21.817C24.361 20.6408 26.2322 20.3518 27.6637 21.0103C29.0952 21.6689 29.9779 23.2249 30.1297 25.3568C30.2815 27.4887 29.6907 30.0347 28.4795 32.4693L32.2918 34.6631C32.4376 34.7502 32.519 34.9349 32.5181 35.1762C32.5171 35.4175 32.4339 35.6965 32.2867 35.9522C32.1395 36.2078 31.94 36.4199 31.7318 36.5419C31.5236 36.6639 31.323 36.6862 31.1744 36.6038L27.363 34.4085C25.8657 36.6784 23.9606 38.4676 22.0407 39.4068C20.1208 40.3459 18.3319 40.3639 17.0436 39.4565C15.7554 38.5492 15.0658 36.7859 15.1164 34.5305C15.167 32.2749 15.9546 29.6987 17.3164 27.3333C18.6782 24.9679 20.5107 22.9933 22.436 21.817ZM23.805 23.0133C22.6559 23.4162 21.4645 24.2435 20.3821 25.3903C19.2995 26.5373 18.3736 27.9533 17.7226 29.4578C17.0718 30.9622 16.7244 32.4883 16.7244 33.843C16.7261 35.6583 17.3509 37.0368 18.4616 37.6762C19.5723 38.3157 21.0781 38.1639 22.6488 37.2539C23.8204 36.5737 24.9658 35.507 25.94 34.1888C26.9142 32.8705 27.6738 31.3595 28.1223 29.8476C28.5706 28.3356 28.6877 26.89 28.4592 25.6939C28.2306 24.4977 27.6663 23.6046 26.8377 23.1275C26.0093 22.6506 24.9541 22.6106 23.805 23.0133ZM23.1125 30.6088C26.017 28.9224 25.8834 29.2465 26.1182 30.6137C26.3528 31.9807 26.0167 33.2976 23.1125 34.9838C20.2086 36.6696 19.873 35.7428 20.1076 34.1034C20.3423 32.4637 20.2084 32.2949 23.1125 30.6088ZM23.1125 25.3588C24.1498 24.7565 24.9907 25.2476 24.9907 26.4558C24.9906 27.6638 24.1497 29.1315 23.1125 29.7338C22.0754 30.3356 21.2343 29.8445 21.2342 28.6368C21.2342 27.4288 22.0753 25.9612 23.1125 25.3588Z" fill="#D6CDB6"/>
<defs>
<linearGradient id="paint0_linear_39_1641" x1="0.541667" y1="17.0196" x2="38.178" y2="39.0837" gradientUnits="userSpaceOnUse">
<stop stop-color="#D9D8D8"/>
<stop offset="0.312885" stop-color="#D6CDB6"/>
<stop offset="0.450292" stop-color="#0D0B0B" stop-opacity="0.5"/>
<stop offset="1" stop-color="#0D0B0B"/>
</linearGradient>
</defs>
</svg>
