<svg width="39" height="56" viewBox="0 0 39 56" fill="none" xmlns="http://www.w3.org/2000/svg">
<path d="M25.2451 2.31836C27.4419 1.0429 30.1246 0.924266 32.4248 2.00195L34.2881 2.875C37.0109 4.15068 38.75 6.88675 38.75 9.89355V34.707C38.75 37.4691 37.2802 40.0233 34.8916 41.4102L14.2275 53.4072C11.7822 54.8269 8.7577 54.8023 6.33594 53.3428L3.99902 51.9336C1.6726 50.5312 0.250093 48.0133 0.25 45.2969V21.293C0.25 18.5309 1.71977 15.9767 4.1084 14.5898L25.2451 2.31836Z" fill="#181515"/>
<path d="M25.2451 2.31836C27.4419 1.0429 30.1246 0.924266 32.4248 2.00195L34.2881 2.875C37.0109 4.15068 38.75 6.88675 38.75 9.89355V34.707C38.75 37.4691 37.2802 40.0233 34.8916 41.4102L14.2275 53.4072C11.7822 54.8269 8.7577 54.8023 6.33594 53.3428L3.99902 51.9336C1.6726 50.5312 0.250093 48.0133 0.25 45.2969V21.293C0.25 18.5309 1.71977 15.9767 4.1084 14.5898L25.2451 2.31836Z" stroke="#D6CDB6" stroke-width="0.5"/>
<path d="M25.2451 2.31836C27.4419 1.0429 30.1246 0.924266 32.4248 2.00195L34.2881 2.875C37.0109 4.15068 38.75 6.88675 38.75 9.89355V34.707C38.75 37.4691 37.2802 40.0233 34.8916 41.4102L14.2275 53.4072C11.7822 54.8269 8.7577 54.8023 6.33594 53.3428L3.99902 51.9336C1.6726 50.5312 0.250093 48.0133 0.25 45.2969V21.293C0.25 18.5309 1.71977 15.9767 4.1084 14.5898L25.2451 2.31836Z" stroke="url(#paint0_linear_52_2849)" stroke-width="0.5"/>
<rect width="29.6102" height="29.7347" rx="4" transform="matrix(0.864808 -0.502102 0 1 11.2466 23.1334)" fill="#252121"/>
<path d="M22.4352 21.8174C24.3604 20.6411 26.2321 20.3517 27.6637 21.0103C29.0952 21.6689 29.9779 23.225 30.1297 25.3568C30.2815 27.4887 29.6907 30.0347 28.4795 32.4693L32.2909 34.6636C32.4368 34.7507 32.5182 34.9354 32.5173 35.1767C32.5162 35.418 32.433 35.6971 32.2859 35.9527C32.1386 36.2082 31.9391 36.4205 31.731 36.5424C31.523 36.6642 31.3229 36.6861 31.1744 36.6038L27.3622 34.409C25.8649 36.6788 23.9598 38.4682 22.0399 39.4073C20.1202 40.3462 18.3318 40.3638 17.0436 39.4565C15.7553 38.5492 15.0657 36.7852 15.1164 34.5296C15.1671 32.2742 15.954 29.6989 17.3156 27.3338C18.6773 24.9685 20.51 22.9938 22.4352 21.8174ZM23.8042 23.0138C22.655 23.4168 21.4637 24.2438 20.3812 25.3908C19.2988 26.5378 18.3736 27.9534 17.7226 29.4578C17.0717 30.9622 16.7244 32.4882 16.7244 33.8431C16.7261 35.6583 17.3509 37.0368 18.4616 37.6762C19.5723 38.3156 21.0781 38.1639 22.6488 37.2539C23.8204 36.5737 24.9658 35.507 25.94 34.1888C26.9143 32.8704 27.6739 31.3587 28.1223 29.8466C28.5706 28.3347 28.6878 26.889 28.4593 25.6929C28.2306 24.497 27.6662 23.6045 26.8377 23.1275C26.0092 22.6505 24.9534 22.6109 23.8042 23.0138ZM23.1125 30.6088C26.017 28.9224 25.8834 29.2465 26.1182 30.6137C26.3528 31.9807 26.0166 33.2976 23.1125 34.9838C20.2084 36.6698 19.873 35.7428 20.1076 34.1034C20.3424 32.4636 20.2082 32.295 23.1125 30.6088ZM23.1125 25.3588C24.1498 24.7565 24.9907 25.2476 24.9907 26.4558C24.9905 27.6638 24.1497 29.1316 23.1125 29.7338C22.0754 30.3358 21.2344 29.8445 21.2342 28.6368C21.2342 27.4287 22.0752 25.9611 23.1125 25.3588Z" fill="#D6CDB6"/>
<defs>
<linearGradient id="paint0_linear_52_2849" x1="0.541667" y1="17.0196" x2="38.178" y2="39.0837" gradientUnits="userSpaceOnUse">
<stop stop-color="#D9D8D8"/>
<stop offset="0.312885" stop-color="#D6CDB6"/>
<stop offset="0.450292" stop-color="#0D0B0B" stop-opacity="0.5"/>
<stop offset="1" stop-color="#0D0B0B"/>
</linearGradient>
</defs>
</svg>
